G04 #@! TF.GenerationSoftware,KiCad,Pcbnew,(5.1.5-0-10_14)*
G04 #@! TF.CreationDate,2020-02-25T16:28:57+09:00*
G04 #@! TF.ProjectId,hbldc,68626c64-632e-46b6-9963-61645f706362,rev?*
G04 #@! TF.SameCoordinates,Original*
G04 #@! TF.FileFunction,Legend,Bot*
G04 #@! TF.FilePolarity,Positive*
%FSLAX46Y46*%
G04 Gerber Fmt 4.6, Leading zero omitted, Abs format (unit mm)*
G04 Created by KiCad (PCBNEW (5.1.5-0-10_14)) date 2020-02-25 16:28:57*
%MOMM*%
%LPD*%
G04 APERTURE LIST*
%ADD10C,0.150000*%
%ADD11C,0.010000*%
%ADD12C,0.120000*%
G04 APERTURE END LIST*
D10*
X105592380Y-37107380D02*
X105592380Y-36107380D01*
X105592380Y-36583571D02*
X105020952Y-36583571D01*
X105020952Y-37107380D02*
X105020952Y-36107380D01*
X104211428Y-36583571D02*
X104068571Y-36631190D01*
X104020952Y-36678809D01*
X103973333Y-36774047D01*
X103973333Y-36916904D01*
X104020952Y-37012142D01*
X104068571Y-37059761D01*
X104163809Y-37107380D01*
X104544761Y-37107380D01*
X104544761Y-36107380D01*
X104211428Y-36107380D01*
X104116190Y-36155000D01*
X104068571Y-36202619D01*
X104020952Y-36297857D01*
X104020952Y-36393095D01*
X104068571Y-36488333D01*
X104116190Y-36535952D01*
X104211428Y-36583571D01*
X104544761Y-36583571D01*
X103068571Y-37107380D02*
X103544761Y-37107380D01*
X103544761Y-36107380D01*
X102735238Y-37107380D02*
X102735238Y-36107380D01*
X102497142Y-36107380D01*
X102354285Y-36155000D01*
X102259047Y-36250238D01*
X102211428Y-36345476D01*
X102163809Y-36535952D01*
X102163809Y-36678809D01*
X102211428Y-36869285D01*
X102259047Y-36964523D01*
X102354285Y-37059761D01*
X102497142Y-37107380D01*
X102735238Y-37107380D01*
X101163809Y-37012142D02*
X101211428Y-37059761D01*
X101354285Y-37107380D01*
X101449523Y-37107380D01*
X101592380Y-37059761D01*
X101687619Y-36964523D01*
X101735238Y-36869285D01*
X101782857Y-36678809D01*
X101782857Y-36535952D01*
X101735238Y-36345476D01*
X101687619Y-36250238D01*
X101592380Y-36155000D01*
X101449523Y-36107380D01*
X101354285Y-36107380D01*
X101211428Y-36155000D01*
X101163809Y-36202619D01*
X99640000Y-36583571D02*
X99497142Y-36631190D01*
X99449523Y-36678809D01*
X99401904Y-36774047D01*
X99401904Y-36916904D01*
X99449523Y-37012142D01*
X99497142Y-37059761D01*
X99592380Y-37107380D01*
X99973333Y-37107380D01*
X99973333Y-36107380D01*
X99640000Y-36107380D01*
X99544761Y-36155000D01*
X99497142Y-36202619D01*
X99449523Y-36297857D01*
X99449523Y-36393095D01*
X99497142Y-36488333D01*
X99544761Y-36535952D01*
X99640000Y-36583571D01*
X99973333Y-36583571D01*
X98830476Y-37107380D02*
X98925714Y-37059761D01*
X98973333Y-37012142D01*
X99020952Y-36916904D01*
X99020952Y-36631190D01*
X98973333Y-36535952D01*
X98925714Y-36488333D01*
X98830476Y-36440714D01*
X98687619Y-36440714D01*
X98592380Y-36488333D01*
X98544761Y-36535952D01*
X98497142Y-36631190D01*
X98497142Y-36916904D01*
X98544761Y-37012142D01*
X98592380Y-37059761D01*
X98687619Y-37107380D01*
X98830476Y-37107380D01*
X97640000Y-37107380D02*
X97640000Y-36583571D01*
X97687619Y-36488333D01*
X97782857Y-36440714D01*
X97973333Y-36440714D01*
X98068571Y-36488333D01*
X97640000Y-37059761D02*
X97735238Y-37107380D01*
X97973333Y-37107380D01*
X98068571Y-37059761D01*
X98116190Y-36964523D01*
X98116190Y-36869285D01*
X98068571Y-36774047D01*
X97973333Y-36726428D01*
X97735238Y-36726428D01*
X97640000Y-36678809D01*
X97163809Y-37107380D02*
X97163809Y-36440714D01*
X97163809Y-36631190D02*
X97116190Y-36535952D01*
X97068571Y-36488333D01*
X96973333Y-36440714D01*
X96878095Y-36440714D01*
X96116190Y-37107380D02*
X96116190Y-36107380D01*
X96116190Y-37059761D02*
X96211428Y-37107380D01*
X96401904Y-37107380D01*
X96497142Y-37059761D01*
X96544761Y-37012142D01*
X96592380Y-36916904D01*
X96592380Y-36631190D01*
X96544761Y-36535952D01*
X96497142Y-36488333D01*
X96401904Y-36440714D01*
X96211428Y-36440714D01*
X96116190Y-36488333D01*
X94973333Y-36440714D02*
X94735238Y-37107380D01*
X94497142Y-36440714D01*
X93925714Y-36107380D02*
X93830476Y-36107380D01*
X93735238Y-36155000D01*
X93687619Y-36202619D01*
X93640000Y-36297857D01*
X93592380Y-36488333D01*
X93592380Y-36726428D01*
X93640000Y-36916904D01*
X93687619Y-37012142D01*
X93735238Y-37059761D01*
X93830476Y-37107380D01*
X93925714Y-37107380D01*
X94020952Y-37059761D01*
X94068571Y-37012142D01*
X94116190Y-36916904D01*
X94163809Y-36726428D01*
X94163809Y-36488333D01*
X94116190Y-36297857D01*
X94068571Y-36202619D01*
X94020952Y-36155000D01*
X93925714Y-36107380D01*
X93163809Y-37012142D02*
X93116190Y-37059761D01*
X93163809Y-37107380D01*
X93211428Y-37059761D01*
X93163809Y-37012142D01*
X93163809Y-37107380D01*
X92163809Y-37107380D02*
X92735238Y-37107380D01*
X92449523Y-37107380D02*
X92449523Y-36107380D01*
X92544761Y-36250238D01*
X92640000Y-36345476D01*
X92735238Y-36393095D01*
X90973333Y-37107380D02*
X90973333Y-36107380D01*
X90973333Y-36488333D02*
X90878095Y-36440714D01*
X90687619Y-36440714D01*
X90592380Y-36488333D01*
X90544761Y-36535952D01*
X90497142Y-36631190D01*
X90497142Y-36916904D01*
X90544761Y-37012142D01*
X90592380Y-37059761D01*
X90687619Y-37107380D01*
X90878095Y-37107380D01*
X90973333Y-37059761D01*
X90163809Y-36440714D02*
X89925714Y-37107380D01*
X89687619Y-36440714D02*
X89925714Y-37107380D01*
X90020952Y-37345476D01*
X90068571Y-37393095D01*
X90163809Y-37440714D01*
X88544761Y-37107380D02*
X88544761Y-36107380D01*
X88544761Y-36583571D02*
X87973333Y-36583571D01*
X87973333Y-37107380D02*
X87973333Y-36107380D01*
X87497142Y-37012142D02*
X87449523Y-37059761D01*
X87497142Y-37107380D01*
X87544761Y-37059761D01*
X87497142Y-37012142D01*
X87497142Y-37107380D01*
X87020952Y-37107380D02*
X87020952Y-36107380D01*
X86449523Y-37107380D02*
X86878095Y-36535952D01*
X86449523Y-36107380D02*
X87020952Y-36678809D01*
X86020952Y-37107380D02*
X86020952Y-36440714D01*
X86020952Y-36107380D02*
X86068571Y-36155000D01*
X86020952Y-36202619D01*
X85973333Y-36155000D01*
X86020952Y-36107380D01*
X86020952Y-36202619D01*
X85544761Y-37107380D02*
X85544761Y-36440714D01*
X85544761Y-36535952D02*
X85497142Y-36488333D01*
X85401904Y-36440714D01*
X85259047Y-36440714D01*
X85163809Y-36488333D01*
X85116190Y-36583571D01*
X85116190Y-37107380D01*
X85116190Y-36583571D02*
X85068571Y-36488333D01*
X84973333Y-36440714D01*
X84830476Y-36440714D01*
X84735238Y-36488333D01*
X84687619Y-36583571D01*
X84687619Y-37107380D01*
X98020952Y-38233571D02*
X98354285Y-38233571D01*
X98354285Y-38757380D02*
X98354285Y-37757380D01*
X97878095Y-37757380D01*
X97116190Y-38709761D02*
X97211428Y-38757380D01*
X97401904Y-38757380D01*
X97497142Y-38709761D01*
X97544761Y-38614523D01*
X97544761Y-38233571D01*
X97497142Y-38138333D01*
X97401904Y-38090714D01*
X97211428Y-38090714D01*
X97116190Y-38138333D01*
X97068571Y-38233571D01*
X97068571Y-38328809D01*
X97544761Y-38424047D01*
X96640000Y-38757380D02*
X96640000Y-37757380D01*
X96640000Y-38138333D02*
X96544761Y-38090714D01*
X96354285Y-38090714D01*
X96259047Y-38138333D01*
X96211428Y-38185952D01*
X96163809Y-38281190D01*
X96163809Y-38566904D01*
X96211428Y-38662142D01*
X96259047Y-38709761D01*
X96354285Y-38757380D01*
X96544761Y-38757380D01*
X96640000Y-38709761D01*
X95687619Y-38709761D02*
X95687619Y-38757380D01*
X95735238Y-38852619D01*
X95782857Y-38900238D01*
X95306666Y-37852619D02*
X95259047Y-37805000D01*
X95163809Y-37757380D01*
X94925714Y-37757380D01*
X94830476Y-37805000D01*
X94782857Y-37852619D01*
X94735238Y-37947857D01*
X94735238Y-38043095D01*
X94782857Y-38185952D01*
X95354285Y-38757380D01*
X94735238Y-38757380D01*
X94116190Y-37757380D02*
X94020952Y-37757380D01*
X93925714Y-37805000D01*
X93878095Y-37852619D01*
X93830476Y-37947857D01*
X93782857Y-38138333D01*
X93782857Y-38376428D01*
X93830476Y-38566904D01*
X93878095Y-38662142D01*
X93925714Y-38709761D01*
X94020952Y-38757380D01*
X94116190Y-38757380D01*
X94211428Y-38709761D01*
X94259047Y-38662142D01*
X94306666Y-38566904D01*
X94354285Y-38376428D01*
X94354285Y-38138333D01*
X94306666Y-37947857D01*
X94259047Y-37852619D01*
X94211428Y-37805000D01*
X94116190Y-37757380D01*
X93401904Y-37852619D02*
X93354285Y-37805000D01*
X93259047Y-37757380D01*
X93020952Y-37757380D01*
X92925714Y-37805000D01*
X92878095Y-37852619D01*
X92830476Y-37947857D01*
X92830476Y-38043095D01*
X92878095Y-38185952D01*
X93449523Y-38757380D01*
X92830476Y-38757380D01*
X92211428Y-37757380D02*
X92116190Y-37757380D01*
X92020952Y-37805000D01*
X91973333Y-37852619D01*
X91925714Y-37947857D01*
X91878095Y-38138333D01*
X91878095Y-38376428D01*
X91925714Y-38566904D01*
X91973333Y-38662142D01*
X92020952Y-38709761D01*
X92116190Y-38757380D01*
X92211428Y-38757380D01*
X92306666Y-38709761D01*
X92354285Y-38662142D01*
X92401904Y-38566904D01*
X92449523Y-38376428D01*
X92449523Y-38138333D01*
X92401904Y-37947857D01*
X92354285Y-37852619D01*
X92306666Y-37805000D01*
X92211428Y-37757380D01*
D11*
G36*
X117621114Y-54144505D02*
G01*
X117546461Y-54181727D01*
X117480569Y-54250261D01*
X117462423Y-54275648D01*
X117442655Y-54308866D01*
X117429828Y-54344945D01*
X117422490Y-54393098D01*
X117419187Y-54462536D01*
X117418462Y-54554206D01*
X117421737Y-54679830D01*
X117433123Y-54774154D01*
X117454959Y-54844523D01*
X117489581Y-54898286D01*
X117539330Y-54942788D01*
X117542986Y-54945423D01*
X117592015Y-54972377D01*
X117651055Y-54985712D01*
X117726141Y-54989000D01*
X117848205Y-54989000D01*
X117848256Y-55107497D01*
X117849392Y-55173492D01*
X117856314Y-55212202D01*
X117874402Y-55235419D01*
X117909038Y-55254933D01*
X117917355Y-55258920D01*
X117956280Y-55277603D01*
X117986417Y-55289403D01*
X118008826Y-55290422D01*
X118024567Y-55276761D01*
X118034698Y-55244522D01*
X118040277Y-55189804D01*
X118042365Y-55108711D01*
X118042019Y-54997344D01*
X118040300Y-54851802D01*
X118039763Y-54808269D01*
X118037828Y-54658205D01*
X118036096Y-54560042D01*
X117848308Y-54560042D01*
X117847252Y-54643364D01*
X117842562Y-54697880D01*
X117831949Y-54733837D01*
X117813128Y-54761482D01*
X117800350Y-54774965D01*
X117748110Y-54814417D01*
X117701858Y-54817628D01*
X117654133Y-54785049D01*
X117652923Y-54783846D01*
X117633506Y-54758668D01*
X117621693Y-54724447D01*
X117615735Y-54671748D01*
X117613880Y-54591131D01*
X117613846Y-54573271D01*
X117618330Y-54462175D01*
X117632926Y-54385161D01*
X117659350Y-54338147D01*
X117699317Y-54317050D01*
X117722416Y-54314923D01*
X117777238Y-54324900D01*
X117814842Y-54357752D01*
X117837477Y-54417857D01*
X117847394Y-54509598D01*
X117848308Y-54560042D01*
X118036096Y-54560042D01*
X118035778Y-54542060D01*
X118033127Y-54454679D01*
X118029394Y-54390905D01*
X118024093Y-54345582D01*
X118016742Y-54313555D01*
X118006857Y-54289668D01*
X117993954Y-54268764D01*
X117988421Y-54260898D01*
X117915031Y-54186595D01*
X117822240Y-54144467D01*
X117714904Y-54132722D01*
X117621114Y-54144505D01*
G37*
X117621114Y-54144505D02*
X117546461Y-54181727D01*
X117480569Y-54250261D01*
X117462423Y-54275648D01*
X117442655Y-54308866D01*
X117429828Y-54344945D01*
X117422490Y-54393098D01*
X117419187Y-54462536D01*
X117418462Y-54554206D01*
X117421737Y-54679830D01*
X117433123Y-54774154D01*
X117454959Y-54844523D01*
X117489581Y-54898286D01*
X117539330Y-54942788D01*
X117542986Y-54945423D01*
X117592015Y-54972377D01*
X117651055Y-54985712D01*
X117726141Y-54989000D01*
X117848205Y-54989000D01*
X117848256Y-55107497D01*
X117849392Y-55173492D01*
X117856314Y-55212202D01*
X117874402Y-55235419D01*
X117909038Y-55254933D01*
X117917355Y-55258920D01*
X117956280Y-55277603D01*
X117986417Y-55289403D01*
X118008826Y-55290422D01*
X118024567Y-55276761D01*
X118034698Y-55244522D01*
X118040277Y-55189804D01*
X118042365Y-55108711D01*
X118042019Y-54997344D01*
X118040300Y-54851802D01*
X118039763Y-54808269D01*
X118037828Y-54658205D01*
X118036096Y-54560042D01*
X117848308Y-54560042D01*
X117847252Y-54643364D01*
X117842562Y-54697880D01*
X117831949Y-54733837D01*
X117813128Y-54761482D01*
X117800350Y-54774965D01*
X117748110Y-54814417D01*
X117701858Y-54817628D01*
X117654133Y-54785049D01*
X117652923Y-54783846D01*
X117633506Y-54758668D01*
X117621693Y-54724447D01*
X117615735Y-54671748D01*
X117613880Y-54591131D01*
X117613846Y-54573271D01*
X117618330Y-54462175D01*
X117632926Y-54385161D01*
X117659350Y-54338147D01*
X117699317Y-54317050D01*
X117722416Y-54314923D01*
X117777238Y-54324900D01*
X117814842Y-54357752D01*
X117837477Y-54417857D01*
X117847394Y-54509598D01*
X117848308Y-54560042D01*
X118036096Y-54560042D01*
X118035778Y-54542060D01*
X118033127Y-54454679D01*
X118029394Y-54390905D01*
X118024093Y-54345582D01*
X118016742Y-54313555D01*
X118006857Y-54289668D01*
X117993954Y-54268764D01*
X117988421Y-54260898D01*
X117915031Y-54186595D01*
X117822240Y-54144467D01*
X117714904Y-54132722D01*
X117621114Y-54144505D01*
G36*
X116118336Y-54155089D02*
G01*
X116055633Y-54191358D01*
X116012039Y-54227358D01*
X115980155Y-54265075D01*
X115958190Y-54311199D01*
X115944351Y-54372421D01*
X115936847Y-54455431D01*
X115933883Y-54566919D01*
X115933539Y-54647062D01*
X115933539Y-54942065D01*
X116099615Y-55016515D01*
X116109385Y-54693402D01*
X116113421Y-54572729D01*
X116117656Y-54485141D01*
X116122903Y-54424650D01*
X116129975Y-54385268D01*
X116139689Y-54361007D01*
X116152856Y-54345880D01*
X116157081Y-54342606D01*
X116221091Y-54317034D01*
X116285792Y-54327153D01*
X116324308Y-54354000D01*
X116339975Y-54373024D01*
X116350820Y-54397988D01*
X116357712Y-54435834D01*
X116361521Y-54493502D01*
X116363117Y-54577935D01*
X116363385Y-54665928D01*
X116363437Y-54776323D01*
X116365328Y-54854463D01*
X116371655Y-54907165D01*
X116385017Y-54941242D01*
X116408015Y-54963511D01*
X116443246Y-54980787D01*
X116490303Y-54998738D01*
X116541697Y-55018278D01*
X116535579Y-54671485D01*
X116533116Y-54546468D01*
X116530233Y-54454082D01*
X116526102Y-54387881D01*
X116519893Y-54341420D01*
X116510774Y-54308256D01*
X116497917Y-54281944D01*
X116482416Y-54258729D01*
X116407629Y-54184569D01*
X116316372Y-54141684D01*
X116217117Y-54131412D01*
X116118336Y-54155089D01*
G37*
X116118336Y-54155089D02*
X116055633Y-54191358D01*
X116012039Y-54227358D01*
X115980155Y-54265075D01*
X115958190Y-54311199D01*
X115944351Y-54372421D01*
X115936847Y-54455431D01*
X115933883Y-54566919D01*
X115933539Y-54647062D01*
X115933539Y-54942065D01*
X116099615Y-55016515D01*
X116109385Y-54693402D01*
X116113421Y-54572729D01*
X116117656Y-54485141D01*
X116122903Y-54424650D01*
X116129975Y-54385268D01*
X116139689Y-54361007D01*
X116152856Y-54345880D01*
X116157081Y-54342606D01*
X116221091Y-54317034D01*
X116285792Y-54327153D01*
X116324308Y-54354000D01*
X116339975Y-54373024D01*
X116350820Y-54397988D01*
X116357712Y-54435834D01*
X116361521Y-54493502D01*
X116363117Y-54577935D01*
X116363385Y-54665928D01*
X116363437Y-54776323D01*
X116365328Y-54854463D01*
X116371655Y-54907165D01*
X116385017Y-54941242D01*
X116408015Y-54963511D01*
X116443246Y-54980787D01*
X116490303Y-54998738D01*
X116541697Y-55018278D01*
X116535579Y-54671485D01*
X116533116Y-54546468D01*
X116530233Y-54454082D01*
X116526102Y-54387881D01*
X116519893Y-54341420D01*
X116510774Y-54308256D01*
X116497917Y-54281944D01*
X116482416Y-54258729D01*
X116407629Y-54184569D01*
X116316372Y-54141684D01*
X116217117Y-54131412D01*
X116118336Y-54155089D01*
G36*
X118373114Y-54147256D02*
G01*
X118281536Y-54195409D01*
X118213951Y-54272905D01*
X118189943Y-54322727D01*
X118171262Y-54397533D01*
X118161699Y-54492052D01*
X118160792Y-54595210D01*
X118168079Y-54695935D01*
X118183097Y-54783153D01*
X118205385Y-54845791D01*
X118212235Y-54856579D01*
X118293368Y-54937105D01*
X118389734Y-54985336D01*
X118494299Y-54999450D01*
X118600032Y-54977629D01*
X118629457Y-54964547D01*
X118686759Y-54924231D01*
X118737050Y-54870775D01*
X118741803Y-54863995D01*
X118761122Y-54831321D01*
X118773892Y-54796394D01*
X118781436Y-54750414D01*
X118785076Y-54684584D01*
X118786135Y-54590105D01*
X118786154Y-54568923D01*
X118786106Y-54562182D01*
X118590769Y-54562182D01*
X118589632Y-54651349D01*
X118585159Y-54710520D01*
X118575754Y-54748741D01*
X118559824Y-54775053D01*
X118551692Y-54783846D01*
X118504942Y-54817261D01*
X118459553Y-54815737D01*
X118413660Y-54786752D01*
X118386288Y-54755809D01*
X118370077Y-54710643D01*
X118360974Y-54639420D01*
X118360349Y-54631114D01*
X118358796Y-54502037D01*
X118375035Y-54406172D01*
X118408848Y-54344107D01*
X118460016Y-54316432D01*
X118478280Y-54314923D01*
X118526240Y-54322513D01*
X118559047Y-54348808D01*
X118579105Y-54399095D01*
X118588822Y-54478664D01*
X118590769Y-54562182D01*
X118786106Y-54562182D01*
X118785426Y-54468249D01*
X118782371Y-54397906D01*
X118775678Y-54349163D01*
X118764040Y-54313288D01*
X118746147Y-54281548D01*
X118742192Y-54275648D01*
X118675733Y-54196104D01*
X118603315Y-54149929D01*
X118515151Y-54131599D01*
X118485213Y-54130703D01*
X118373114Y-54147256D01*
G37*
X118373114Y-54147256D02*
X118281536Y-54195409D01*
X118213951Y-54272905D01*
X118189943Y-54322727D01*
X118171262Y-54397533D01*
X118161699Y-54492052D01*
X118160792Y-54595210D01*
X118168079Y-54695935D01*
X118183097Y-54783153D01*
X118205385Y-54845791D01*
X118212235Y-54856579D01*
X118293368Y-54937105D01*
X118389734Y-54985336D01*
X118494299Y-54999450D01*
X118600032Y-54977629D01*
X118629457Y-54964547D01*
X118686759Y-54924231D01*
X118737050Y-54870775D01*
X118741803Y-54863995D01*
X118761122Y-54831321D01*
X118773892Y-54796394D01*
X118781436Y-54750414D01*
X118785076Y-54684584D01*
X118786135Y-54590105D01*
X118786154Y-54568923D01*
X118786106Y-54562182D01*
X118590769Y-54562182D01*
X118589632Y-54651349D01*
X118585159Y-54710520D01*
X118575754Y-54748741D01*
X118559824Y-54775053D01*
X118551692Y-54783846D01*
X118504942Y-54817261D01*
X118459553Y-54815737D01*
X118413660Y-54786752D01*
X118386288Y-54755809D01*
X118370077Y-54710643D01*
X118360974Y-54639420D01*
X118360349Y-54631114D01*
X118358796Y-54502037D01*
X118375035Y-54406172D01*
X118408848Y-54344107D01*
X118460016Y-54316432D01*
X118478280Y-54314923D01*
X118526240Y-54322513D01*
X118559047Y-54348808D01*
X118579105Y-54399095D01*
X118588822Y-54478664D01*
X118590769Y-54562182D01*
X118786106Y-54562182D01*
X118785426Y-54468249D01*
X118782371Y-54397906D01*
X118775678Y-54349163D01*
X118764040Y-54313288D01*
X118746147Y-54281548D01*
X118742192Y-54275648D01*
X118675733Y-54196104D01*
X118603315Y-54149929D01*
X118515151Y-54131599D01*
X118485213Y-54130703D01*
X118373114Y-54147256D01*
G36*
X116855746Y-54159745D02*
G01*
X116778714Y-54211567D01*
X116719184Y-54286412D01*
X116683622Y-54381654D01*
X116676429Y-54451756D01*
X116677246Y-54481009D01*
X116684086Y-54503407D01*
X116702888Y-54523474D01*
X116739592Y-54545733D01*
X116800138Y-54574709D01*
X116890466Y-54614927D01*
X116890923Y-54615129D01*
X116974067Y-54653210D01*
X117042247Y-54687025D01*
X117088495Y-54712933D01*
X117105842Y-54727295D01*
X117105846Y-54727411D01*
X117090557Y-54758685D01*
X117054804Y-54793157D01*
X117013758Y-54817990D01*
X116992963Y-54822923D01*
X116936230Y-54805862D01*
X116887373Y-54763133D01*
X116863535Y-54716155D01*
X116840603Y-54681522D01*
X116795682Y-54642081D01*
X116742877Y-54608009D01*
X116696290Y-54589480D01*
X116686548Y-54588462D01*
X116675582Y-54605215D01*
X116674921Y-54648039D01*
X116682980Y-54705781D01*
X116698173Y-54767289D01*
X116718914Y-54821409D01*
X116719962Y-54823510D01*
X116782379Y-54910660D01*
X116863274Y-54969939D01*
X116955144Y-54999034D01*
X117050487Y-54995634D01*
X117141802Y-54957428D01*
X117145862Y-54954741D01*
X117217694Y-54889642D01*
X117264927Y-54804705D01*
X117291066Y-54693021D01*
X117294574Y-54661643D01*
X117300787Y-54513536D01*
X117293339Y-54444468D01*
X117105846Y-54444468D01*
X117103410Y-54487552D01*
X117090086Y-54500126D01*
X117056868Y-54490719D01*
X117004506Y-54468483D01*
X116945976Y-54440610D01*
X116944521Y-54439872D01*
X116894911Y-54413777D01*
X116875000Y-54396363D01*
X116879910Y-54378107D01*
X116900584Y-54354120D01*
X116953181Y-54319406D01*
X117009823Y-54316856D01*
X117060631Y-54342119D01*
X117095724Y-54390847D01*
X117105846Y-54444468D01*
X117293339Y-54444468D01*
X117288008Y-54395036D01*
X117255222Y-54301055D01*
X117209579Y-54235215D01*
X117127198Y-54168681D01*
X117036454Y-54135676D01*
X116943815Y-54133573D01*
X116855746Y-54159745D01*
G37*
X116855746Y-54159745D02*
X116778714Y-54211567D01*
X116719184Y-54286412D01*
X116683622Y-54381654D01*
X116676429Y-54451756D01*
X116677246Y-54481009D01*
X116684086Y-54503407D01*
X116702888Y-54523474D01*
X116739592Y-54545733D01*
X116800138Y-54574709D01*
X116890466Y-54614927D01*
X116890923Y-54615129D01*
X116974067Y-54653210D01*
X117042247Y-54687025D01*
X117088495Y-54712933D01*
X117105842Y-54727295D01*
X117105846Y-54727411D01*
X117090557Y-54758685D01*
X117054804Y-54793157D01*
X117013758Y-54817990D01*
X116992963Y-54822923D01*
X116936230Y-54805862D01*
X116887373Y-54763133D01*
X116863535Y-54716155D01*
X116840603Y-54681522D01*
X116795682Y-54642081D01*
X116742877Y-54608009D01*
X116696290Y-54589480D01*
X116686548Y-54588462D01*
X116675582Y-54605215D01*
X116674921Y-54648039D01*
X116682980Y-54705781D01*
X116698173Y-54767289D01*
X116718914Y-54821409D01*
X116719962Y-54823510D01*
X116782379Y-54910660D01*
X116863274Y-54969939D01*
X116955144Y-54999034D01*
X117050487Y-54995634D01*
X117141802Y-54957428D01*
X117145862Y-54954741D01*
X117217694Y-54889642D01*
X117264927Y-54804705D01*
X117291066Y-54693021D01*
X117294574Y-54661643D01*
X117300787Y-54513536D01*
X117293339Y-54444468D01*
X117105846Y-54444468D01*
X117103410Y-54487552D01*
X117090086Y-54500126D01*
X117056868Y-54490719D01*
X117004506Y-54468483D01*
X116945976Y-54440610D01*
X116944521Y-54439872D01*
X116894911Y-54413777D01*
X116875000Y-54396363D01*
X116879910Y-54378107D01*
X116900584Y-54354120D01*
X116953181Y-54319406D01*
X117009823Y-54316856D01*
X117060631Y-54342119D01*
X117095724Y-54390847D01*
X117105846Y-54444468D01*
X117293339Y-54444468D01*
X117288008Y-54395036D01*
X117255222Y-54301055D01*
X117209579Y-54235215D01*
X117127198Y-54168681D01*
X117036454Y-54135676D01*
X116943815Y-54133573D01*
X116855746Y-54159745D01*
G36*
X115230154Y-54052120D02*
G01*
X115224428Y-54131980D01*
X115217851Y-54179039D01*
X115208738Y-54199566D01*
X115195402Y-54199829D01*
X115191077Y-54197378D01*
X115133556Y-54179636D01*
X115058732Y-54180672D01*
X114982661Y-54198910D01*
X114935082Y-54222505D01*
X114886298Y-54260198D01*
X114850636Y-54302855D01*
X114826155Y-54357057D01*
X114810913Y-54429384D01*
X114802970Y-54526419D01*
X114800384Y-54654742D01*
X114800338Y-54679358D01*
X114800308Y-54955870D01*
X114861839Y-54977320D01*
X114905541Y-54991912D01*
X114929518Y-54998706D01*
X114930223Y-54998769D01*
X114932585Y-54980345D01*
X114934594Y-54929526D01*
X114936099Y-54852993D01*
X114936947Y-54757430D01*
X114937077Y-54699329D01*
X114937349Y-54584771D01*
X114938748Y-54502667D01*
X114942151Y-54446393D01*
X114948433Y-54409326D01*
X114958471Y-54384844D01*
X114973139Y-54366325D01*
X114982298Y-54357406D01*
X115045211Y-54321466D01*
X115113864Y-54318775D01*
X115176152Y-54349170D01*
X115187671Y-54360144D01*
X115204567Y-54380779D01*
X115216286Y-54405256D01*
X115223767Y-54440647D01*
X115227946Y-54494026D01*
X115229763Y-54572466D01*
X115230154Y-54680617D01*
X115230154Y-54955870D01*
X115291685Y-54977320D01*
X115335387Y-54991912D01*
X115359364Y-54998706D01*
X115360070Y-54998769D01*
X115361874Y-54980069D01*
X115363500Y-54927322D01*
X115364883Y-54845557D01*
X115365958Y-54739805D01*
X115366660Y-54615094D01*
X115366923Y-54476455D01*
X115366923Y-53941806D01*
X115239923Y-53888236D01*
X115230154Y-54052120D01*
G37*
X115230154Y-54052120D02*
X115224428Y-54131980D01*
X115217851Y-54179039D01*
X115208738Y-54199566D01*
X115195402Y-54199829D01*
X115191077Y-54197378D01*
X115133556Y-54179636D01*
X115058732Y-54180672D01*
X114982661Y-54198910D01*
X114935082Y-54222505D01*
X114886298Y-54260198D01*
X114850636Y-54302855D01*
X114826155Y-54357057D01*
X114810913Y-54429384D01*
X114802970Y-54526419D01*
X114800384Y-54654742D01*
X114800338Y-54679358D01*
X114800308Y-54955870D01*
X114861839Y-54977320D01*
X114905541Y-54991912D01*
X114929518Y-54998706D01*
X114930223Y-54998769D01*
X114932585Y-54980345D01*
X114934594Y-54929526D01*
X114936099Y-54852993D01*
X114936947Y-54757430D01*
X114937077Y-54699329D01*
X114937349Y-54584771D01*
X114938748Y-54502667D01*
X114942151Y-54446393D01*
X114948433Y-54409326D01*
X114958471Y-54384844D01*
X114973139Y-54366325D01*
X114982298Y-54357406D01*
X115045211Y-54321466D01*
X115113864Y-54318775D01*
X115176152Y-54349170D01*
X115187671Y-54360144D01*
X115204567Y-54380779D01*
X115216286Y-54405256D01*
X115223767Y-54440647D01*
X115227946Y-54494026D01*
X115229763Y-54572466D01*
X115230154Y-54680617D01*
X115230154Y-54955870D01*
X115291685Y-54977320D01*
X115335387Y-54991912D01*
X115359364Y-54998706D01*
X115360070Y-54998769D01*
X115361874Y-54980069D01*
X115363500Y-54927322D01*
X115364883Y-54845557D01*
X115365958Y-54739805D01*
X115366660Y-54615094D01*
X115366923Y-54476455D01*
X115366923Y-53941806D01*
X115239923Y-53888236D01*
X115230154Y-54052120D01*
G36*
X114336499Y-54186303D02*
G01*
X114259940Y-54214733D01*
X114259064Y-54215279D01*
X114211715Y-54250127D01*
X114176759Y-54290852D01*
X114152175Y-54343925D01*
X114135938Y-54415814D01*
X114126025Y-54512992D01*
X114120414Y-54641928D01*
X114119923Y-54660298D01*
X114112859Y-54937287D01*
X114172305Y-54968028D01*
X114215319Y-54988802D01*
X114241290Y-54998646D01*
X114242491Y-54998769D01*
X114246986Y-54980606D01*
X114250556Y-54931612D01*
X114252752Y-54860031D01*
X114253231Y-54802068D01*
X114253242Y-54708170D01*
X114257534Y-54649203D01*
X114272497Y-54621079D01*
X114304518Y-54619706D01*
X114359986Y-54640998D01*
X114443731Y-54680136D01*
X114505311Y-54712643D01*
X114536983Y-54740845D01*
X114546294Y-54771582D01*
X114546308Y-54773104D01*
X114530943Y-54826054D01*
X114485453Y-54854660D01*
X114415834Y-54858803D01*
X114365687Y-54858084D01*
X114339246Y-54872527D01*
X114322757Y-54907218D01*
X114313267Y-54951416D01*
X114326943Y-54976493D01*
X114332093Y-54980082D01*
X114380575Y-54994496D01*
X114448469Y-54996537D01*
X114518388Y-54986983D01*
X114567932Y-54969522D01*
X114636430Y-54911364D01*
X114675366Y-54830408D01*
X114683077Y-54767160D01*
X114677193Y-54710111D01*
X114655899Y-54663542D01*
X114613735Y-54622181D01*
X114545241Y-54580755D01*
X114444956Y-54533993D01*
X114438846Y-54531350D01*
X114348510Y-54489617D01*
X114292765Y-54455391D01*
X114268871Y-54424635D01*
X114274087Y-54393311D01*
X114305672Y-54357383D01*
X114315117Y-54349116D01*
X114378383Y-54317058D01*
X114443936Y-54318407D01*
X114501028Y-54349838D01*
X114538907Y-54408024D01*
X114542426Y-54419446D01*
X114576700Y-54474837D01*
X114620191Y-54501518D01*
X114683077Y-54527960D01*
X114683077Y-54459548D01*
X114663948Y-54360110D01*
X114607169Y-54268902D01*
X114577622Y-54238389D01*
X114510458Y-54199228D01*
X114425044Y-54181500D01*
X114336499Y-54186303D01*
G37*
X114336499Y-54186303D02*
X114259940Y-54214733D01*
X114259064Y-54215279D01*
X114211715Y-54250127D01*
X114176759Y-54290852D01*
X114152175Y-54343925D01*
X114135938Y-54415814D01*
X114126025Y-54512992D01*
X114120414Y-54641928D01*
X114119923Y-54660298D01*
X114112859Y-54937287D01*
X114172305Y-54968028D01*
X114215319Y-54988802D01*
X114241290Y-54998646D01*
X114242491Y-54998769D01*
X114246986Y-54980606D01*
X114250556Y-54931612D01*
X114252752Y-54860031D01*
X114253231Y-54802068D01*
X114253242Y-54708170D01*
X114257534Y-54649203D01*
X114272497Y-54621079D01*
X114304518Y-54619706D01*
X114359986Y-54640998D01*
X114443731Y-54680136D01*
X114505311Y-54712643D01*
X114536983Y-54740845D01*
X114546294Y-54771582D01*
X114546308Y-54773104D01*
X114530943Y-54826054D01*
X114485453Y-54854660D01*
X114415834Y-54858803D01*
X114365687Y-54858084D01*
X114339246Y-54872527D01*
X114322757Y-54907218D01*
X114313267Y-54951416D01*
X114326943Y-54976493D01*
X114332093Y-54980082D01*
X114380575Y-54994496D01*
X114448469Y-54996537D01*
X114518388Y-54986983D01*
X114567932Y-54969522D01*
X114636430Y-54911364D01*
X114675366Y-54830408D01*
X114683077Y-54767160D01*
X114677193Y-54710111D01*
X114655899Y-54663542D01*
X114613735Y-54622181D01*
X114545241Y-54580755D01*
X114444956Y-54533993D01*
X114438846Y-54531350D01*
X114348510Y-54489617D01*
X114292765Y-54455391D01*
X114268871Y-54424635D01*
X114274087Y-54393311D01*
X114305672Y-54357383D01*
X114315117Y-54349116D01*
X114378383Y-54317058D01*
X114443936Y-54318407D01*
X114501028Y-54349838D01*
X114538907Y-54408024D01*
X114542426Y-54419446D01*
X114576700Y-54474837D01*
X114620191Y-54501518D01*
X114683077Y-54527960D01*
X114683077Y-54459548D01*
X114663948Y-54360110D01*
X114607169Y-54268902D01*
X114577622Y-54238389D01*
X114510458Y-54199228D01*
X114425044Y-54181500D01*
X114336499Y-54186303D01*
G36*
X113676638Y-54184670D02*
G01*
X113587883Y-54217421D01*
X113515978Y-54275350D01*
X113487856Y-54316128D01*
X113457198Y-54390954D01*
X113457835Y-54445058D01*
X113490013Y-54481446D01*
X113501919Y-54487633D01*
X113553325Y-54506925D01*
X113579578Y-54501982D01*
X113588470Y-54469587D01*
X113588923Y-54451692D01*
X113605203Y-54385859D01*
X113647635Y-54339807D01*
X113706612Y-54317564D01*
X113772525Y-54323161D01*
X113826105Y-54352229D01*
X113844202Y-54368810D01*
X113857029Y-54388925D01*
X113865694Y-54419332D01*
X113871304Y-54466788D01*
X113874965Y-54538050D01*
X113877785Y-54639875D01*
X113878516Y-54672115D01*
X113881180Y-54782410D01*
X113884208Y-54860036D01*
X113888750Y-54911396D01*
X113895954Y-54942890D01*
X113906967Y-54960920D01*
X113922940Y-54971888D01*
X113933166Y-54976733D01*
X113976594Y-54993301D01*
X114002158Y-54998769D01*
X114010605Y-54980507D01*
X114015761Y-54925296D01*
X114017654Y-54832499D01*
X114016311Y-54701478D01*
X114015893Y-54681269D01*
X114012942Y-54561733D01*
X114009452Y-54474449D01*
X114004486Y-54412591D01*
X113997107Y-54369336D01*
X113986376Y-54337860D01*
X113971355Y-54311339D01*
X113963498Y-54299975D01*
X113918447Y-54249692D01*
X113868060Y-54210581D01*
X113861892Y-54207167D01*
X113771542Y-54180212D01*
X113676638Y-54184670D01*
G37*
X113676638Y-54184670D02*
X113587883Y-54217421D01*
X113515978Y-54275350D01*
X113487856Y-54316128D01*
X113457198Y-54390954D01*
X113457835Y-54445058D01*
X113490013Y-54481446D01*
X113501919Y-54487633D01*
X113553325Y-54506925D01*
X113579578Y-54501982D01*
X113588470Y-54469587D01*
X113588923Y-54451692D01*
X113605203Y-54385859D01*
X113647635Y-54339807D01*
X113706612Y-54317564D01*
X113772525Y-54323161D01*
X113826105Y-54352229D01*
X113844202Y-54368810D01*
X113857029Y-54388925D01*
X113865694Y-54419332D01*
X113871304Y-54466788D01*
X113874965Y-54538050D01*
X113877785Y-54639875D01*
X113878516Y-54672115D01*
X113881180Y-54782410D01*
X113884208Y-54860036D01*
X113888750Y-54911396D01*
X113895954Y-54942890D01*
X113906967Y-54960920D01*
X113922940Y-54971888D01*
X113933166Y-54976733D01*
X113976594Y-54993301D01*
X114002158Y-54998769D01*
X114010605Y-54980507D01*
X114015761Y-54925296D01*
X114017654Y-54832499D01*
X114016311Y-54701478D01*
X114015893Y-54681269D01*
X114012942Y-54561733D01*
X114009452Y-54474449D01*
X114004486Y-54412591D01*
X113997107Y-54369336D01*
X113986376Y-54337860D01*
X113971355Y-54311339D01*
X113963498Y-54299975D01*
X113918447Y-54249692D01*
X113868060Y-54210581D01*
X113861892Y-54207167D01*
X113771542Y-54180212D01*
X113676638Y-54184670D01*
G36*
X112787919Y-54340289D02*
G01*
X112788167Y-54486320D01*
X112789128Y-54598655D01*
X112791206Y-54682678D01*
X112794807Y-54743769D01*
X112800335Y-54787309D01*
X112808196Y-54818679D01*
X112818793Y-54843262D01*
X112826818Y-54857294D01*
X112893272Y-54933388D01*
X112977530Y-54981084D01*
X113070751Y-54998199D01*
X113164100Y-54982546D01*
X113219688Y-54954418D01*
X113278043Y-54905760D01*
X113317814Y-54846333D01*
X113341810Y-54768507D01*
X113352839Y-54664652D01*
X113354401Y-54588462D01*
X113354191Y-54582986D01*
X113217692Y-54582986D01*
X113216859Y-54670355D01*
X113213039Y-54728192D01*
X113204254Y-54766029D01*
X113188526Y-54793398D01*
X113169734Y-54814042D01*
X113106625Y-54853890D01*
X113038863Y-54857295D01*
X112974821Y-54824025D01*
X112969836Y-54819517D01*
X112948561Y-54796067D01*
X112935221Y-54768166D01*
X112927999Y-54726641D01*
X112925077Y-54662316D01*
X112924615Y-54591200D01*
X112925617Y-54501858D01*
X112929762Y-54442258D01*
X112938764Y-54403089D01*
X112954333Y-54375040D01*
X112967098Y-54360144D01*
X113026400Y-54322575D01*
X113094699Y-54318057D01*
X113159890Y-54346753D01*
X113172472Y-54357406D01*
X113193889Y-54381063D01*
X113207256Y-54409251D01*
X113214434Y-54451245D01*
X113217281Y-54516319D01*
X113217692Y-54582986D01*
X113354191Y-54582986D01*
X113349678Y-54465765D01*
X113333638Y-54373577D01*
X113303472Y-54304269D01*
X113256371Y-54250211D01*
X113219688Y-54222505D01*
X113153010Y-54192572D01*
X113075728Y-54178678D01*
X113003890Y-54182397D01*
X112963692Y-54197400D01*
X112947918Y-54201670D01*
X112937450Y-54185750D01*
X112930144Y-54143089D01*
X112924615Y-54078106D01*
X112918563Y-54005732D01*
X112910156Y-53962187D01*
X112894859Y-53937287D01*
X112868136Y-53920845D01*
X112851346Y-53913564D01*
X112787846Y-53886963D01*
X112787919Y-54340289D01*
G37*
X112787919Y-54340289D02*
X112788167Y-54486320D01*
X112789128Y-54598655D01*
X112791206Y-54682678D01*
X112794807Y-54743769D01*
X112800335Y-54787309D01*
X112808196Y-54818679D01*
X112818793Y-54843262D01*
X112826818Y-54857294D01*
X112893272Y-54933388D01*
X112977530Y-54981084D01*
X113070751Y-54998199D01*
X113164100Y-54982546D01*
X113219688Y-54954418D01*
X113278043Y-54905760D01*
X113317814Y-54846333D01*
X113341810Y-54768507D01*
X113352839Y-54664652D01*
X113354401Y-54588462D01*
X113354191Y-54582986D01*
X113217692Y-54582986D01*
X113216859Y-54670355D01*
X113213039Y-54728192D01*
X113204254Y-54766029D01*
X113188526Y-54793398D01*
X113169734Y-54814042D01*
X113106625Y-54853890D01*
X113038863Y-54857295D01*
X112974821Y-54824025D01*
X112969836Y-54819517D01*
X112948561Y-54796067D01*
X112935221Y-54768166D01*
X112927999Y-54726641D01*
X112925077Y-54662316D01*
X112924615Y-54591200D01*
X112925617Y-54501858D01*
X112929762Y-54442258D01*
X112938764Y-54403089D01*
X112954333Y-54375040D01*
X112967098Y-54360144D01*
X113026400Y-54322575D01*
X113094699Y-54318057D01*
X113159890Y-54346753D01*
X113172472Y-54357406D01*
X113193889Y-54381063D01*
X113207256Y-54409251D01*
X113214434Y-54451245D01*
X113217281Y-54516319D01*
X113217692Y-54582986D01*
X113354191Y-54582986D01*
X113349678Y-54465765D01*
X113333638Y-54373577D01*
X113303472Y-54304269D01*
X113256371Y-54250211D01*
X113219688Y-54222505D01*
X113153010Y-54192572D01*
X113075728Y-54178678D01*
X113003890Y-54182397D01*
X112963692Y-54197400D01*
X112947918Y-54201670D01*
X112937450Y-54185750D01*
X112930144Y-54143089D01*
X112924615Y-54078106D01*
X112918563Y-54005732D01*
X112910156Y-53962187D01*
X112894859Y-53937287D01*
X112868136Y-53920845D01*
X112851346Y-53913564D01*
X112787846Y-53886963D01*
X112787919Y-54340289D01*
G36*
X111994071Y-54196662D02*
G01*
X111991089Y-54248068D01*
X111988753Y-54326192D01*
X111987251Y-54424857D01*
X111986769Y-54528343D01*
X111986769Y-54878533D01*
X112048599Y-54940363D01*
X112091207Y-54978462D01*
X112128610Y-54993895D01*
X112179730Y-54992918D01*
X112200022Y-54990433D01*
X112263446Y-54983200D01*
X112315905Y-54979055D01*
X112328692Y-54978672D01*
X112371801Y-54981176D01*
X112433456Y-54987462D01*
X112457362Y-54990433D01*
X112516078Y-54995028D01*
X112555536Y-54985046D01*
X112594662Y-54954228D01*
X112608785Y-54940363D01*
X112670615Y-54878533D01*
X112670615Y-54223503D01*
X112620850Y-54200829D01*
X112577998Y-54184034D01*
X112552927Y-54178154D01*
X112546499Y-54196736D01*
X112540491Y-54248655D01*
X112535303Y-54328172D01*
X112531336Y-54429546D01*
X112529423Y-54515192D01*
X112524077Y-54852231D01*
X112477440Y-54858825D01*
X112435024Y-54854214D01*
X112414240Y-54839287D01*
X112408430Y-54811377D01*
X112403470Y-54751925D01*
X112399754Y-54668466D01*
X112397676Y-54568532D01*
X112397376Y-54517104D01*
X112397077Y-54221054D01*
X112335546Y-54199604D01*
X112291996Y-54185020D01*
X112268306Y-54178219D01*
X112267623Y-54178154D01*
X112265246Y-54196642D01*
X112262634Y-54247906D01*
X112260005Y-54325649D01*
X112257579Y-54423574D01*
X112255885Y-54515192D01*
X112250539Y-54852231D01*
X112133308Y-54852231D01*
X112127928Y-54544746D01*
X112122549Y-54237261D01*
X112065399Y-54207707D01*
X112023203Y-54187413D01*
X111998230Y-54178204D01*
X111997509Y-54178154D01*
X111994071Y-54196662D01*
G37*
X111994071Y-54196662D02*
X111991089Y-54248068D01*
X111988753Y-54326192D01*
X111987251Y-54424857D01*
X111986769Y-54528343D01*
X111986769Y-54878533D01*
X112048599Y-54940363D01*
X112091207Y-54978462D01*
X112128610Y-54993895D01*
X112179730Y-54992918D01*
X112200022Y-54990433D01*
X112263446Y-54983200D01*
X112315905Y-54979055D01*
X112328692Y-54978672D01*
X112371801Y-54981176D01*
X112433456Y-54987462D01*
X112457362Y-54990433D01*
X112516078Y-54995028D01*
X112555536Y-54985046D01*
X112594662Y-54954228D01*
X112608785Y-54940363D01*
X112670615Y-54878533D01*
X112670615Y-54223503D01*
X112620850Y-54200829D01*
X112577998Y-54184034D01*
X112552927Y-54178154D01*
X112546499Y-54196736D01*
X112540491Y-54248655D01*
X112535303Y-54328172D01*
X112531336Y-54429546D01*
X112529423Y-54515192D01*
X112524077Y-54852231D01*
X112477440Y-54858825D01*
X112435024Y-54854214D01*
X112414240Y-54839287D01*
X112408430Y-54811377D01*
X112403470Y-54751925D01*
X112399754Y-54668466D01*
X112397676Y-54568532D01*
X112397376Y-54517104D01*
X112397077Y-54221054D01*
X112335546Y-54199604D01*
X112291996Y-54185020D01*
X112268306Y-54178219D01*
X112267623Y-54178154D01*
X112265246Y-54196642D01*
X112262634Y-54247906D01*
X112260005Y-54325649D01*
X112257579Y-54423574D01*
X112255885Y-54515192D01*
X112250539Y-54852231D01*
X112133308Y-54852231D01*
X112127928Y-54544746D01*
X112122549Y-54237261D01*
X112065399Y-54207707D01*
X112023203Y-54187413D01*
X111998230Y-54178204D01*
X111997509Y-54178154D01*
X111994071Y-54196662D01*
G36*
X111502667Y-54193528D02*
G01*
X111446410Y-54219117D01*
X111402253Y-54250124D01*
X111369899Y-54284795D01*
X111347562Y-54329520D01*
X111333454Y-54390692D01*
X111325789Y-54474701D01*
X111322780Y-54587940D01*
X111322462Y-54662509D01*
X111322462Y-54953420D01*
X111372227Y-54976095D01*
X111411424Y-54992667D01*
X111430843Y-54998769D01*
X111434558Y-54980610D01*
X111437505Y-54931648D01*
X111439309Y-54860153D01*
X111439692Y-54803385D01*
X111441339Y-54721371D01*
X111445778Y-54656309D01*
X111452260Y-54616467D01*
X111457410Y-54608000D01*
X111492023Y-54616646D01*
X111546360Y-54638823D01*
X111609278Y-54668886D01*
X111669632Y-54701192D01*
X111716279Y-54730098D01*
X111738074Y-54749961D01*
X111738161Y-54750175D01*
X111736286Y-54786935D01*
X111719475Y-54822026D01*
X111689961Y-54850528D01*
X111646884Y-54860061D01*
X111610068Y-54858950D01*
X111557926Y-54858133D01*
X111530556Y-54870349D01*
X111514118Y-54902624D01*
X111512045Y-54908710D01*
X111504919Y-54954739D01*
X111523976Y-54982687D01*
X111573647Y-54996007D01*
X111627303Y-54998470D01*
X111723858Y-54980210D01*
X111773841Y-54954131D01*
X111835571Y-54892868D01*
X111868310Y-54817670D01*
X111871247Y-54738211D01*
X111843576Y-54664167D01*
X111801953Y-54617769D01*
X111760396Y-54591793D01*
X111695078Y-54558907D01*
X111618962Y-54525557D01*
X111606274Y-54520461D01*
X111522667Y-54483565D01*
X111474470Y-54451046D01*
X111458970Y-54418718D01*
X111473450Y-54382394D01*
X111498308Y-54354000D01*
X111557061Y-54319039D01*
X111621707Y-54316417D01*
X111680992Y-54343358D01*
X111723661Y-54397088D01*
X111729261Y-54410950D01*
X111761867Y-54461936D01*
X111809470Y-54499787D01*
X111869539Y-54530850D01*
X111869539Y-54442768D01*
X111866003Y-54388951D01*
X111850844Y-54346534D01*
X111817232Y-54301279D01*
X111784965Y-54266420D01*
X111734791Y-54217062D01*
X111695807Y-54190547D01*
X111653936Y-54179911D01*
X111606540Y-54178154D01*
X111502667Y-54193528D01*
G37*
X111502667Y-54193528D02*
X111446410Y-54219117D01*
X111402253Y-54250124D01*
X111369899Y-54284795D01*
X111347562Y-54329520D01*
X111333454Y-54390692D01*
X111325789Y-54474701D01*
X111322780Y-54587940D01*
X111322462Y-54662509D01*
X111322462Y-54953420D01*
X111372227Y-54976095D01*
X111411424Y-54992667D01*
X111430843Y-54998769D01*
X111434558Y-54980610D01*
X111437505Y-54931648D01*
X111439309Y-54860153D01*
X111439692Y-54803385D01*
X111441339Y-54721371D01*
X111445778Y-54656309D01*
X111452260Y-54616467D01*
X111457410Y-54608000D01*
X111492023Y-54616646D01*
X111546360Y-54638823D01*
X111609278Y-54668886D01*
X111669632Y-54701192D01*
X111716279Y-54730098D01*
X111738074Y-54749961D01*
X111738161Y-54750175D01*
X111736286Y-54786935D01*
X111719475Y-54822026D01*
X111689961Y-54850528D01*
X111646884Y-54860061D01*
X111610068Y-54858950D01*
X111557926Y-54858133D01*
X111530556Y-54870349D01*
X111514118Y-54902624D01*
X111512045Y-54908710D01*
X111504919Y-54954739D01*
X111523976Y-54982687D01*
X111573647Y-54996007D01*
X111627303Y-54998470D01*
X111723858Y-54980210D01*
X111773841Y-54954131D01*
X111835571Y-54892868D01*
X111868310Y-54817670D01*
X111871247Y-54738211D01*
X111843576Y-54664167D01*
X111801953Y-54617769D01*
X111760396Y-54591793D01*
X111695078Y-54558907D01*
X111618962Y-54525557D01*
X111606274Y-54520461D01*
X111522667Y-54483565D01*
X111474470Y-54451046D01*
X111458970Y-54418718D01*
X111473450Y-54382394D01*
X111498308Y-54354000D01*
X111557061Y-54319039D01*
X111621707Y-54316417D01*
X111680992Y-54343358D01*
X111723661Y-54397088D01*
X111729261Y-54410950D01*
X111761867Y-54461936D01*
X111809470Y-54499787D01*
X111869539Y-54530850D01*
X111869539Y-54442768D01*
X111866003Y-54388951D01*
X111850844Y-54346534D01*
X111817232Y-54301279D01*
X111784965Y-54266420D01*
X111734791Y-54217062D01*
X111695807Y-54190547D01*
X111653936Y-54179911D01*
X111606540Y-54178154D01*
X111502667Y-54193528D01*
G36*
X110819193Y-54196782D02*
G01*
X110795839Y-54206988D01*
X110740098Y-54251134D01*
X110692431Y-54314967D01*
X110662952Y-54383087D01*
X110658154Y-54416670D01*
X110674240Y-54463556D01*
X110709525Y-54488365D01*
X110747356Y-54503387D01*
X110764679Y-54506155D01*
X110773114Y-54486066D01*
X110789770Y-54442351D01*
X110797077Y-54422598D01*
X110838052Y-54354271D01*
X110897378Y-54320191D01*
X110973448Y-54321239D01*
X110979082Y-54322581D01*
X111019695Y-54341836D01*
X111049552Y-54379375D01*
X111069945Y-54439809D01*
X111082164Y-54527751D01*
X111087500Y-54647813D01*
X111088000Y-54711698D01*
X111088248Y-54812403D01*
X111089874Y-54881054D01*
X111094199Y-54924673D01*
X111102546Y-54950282D01*
X111116235Y-54964903D01*
X111136589Y-54975558D01*
X111137766Y-54976095D01*
X111176962Y-54992667D01*
X111196381Y-54998769D01*
X111199365Y-54980319D01*
X111201919Y-54929323D01*
X111203860Y-54852308D01*
X111205003Y-54755805D01*
X111205231Y-54685184D01*
X111204068Y-54548525D01*
X111199521Y-54444851D01*
X111190001Y-54368108D01*
X111173919Y-54312246D01*
X111149687Y-54271212D01*
X111115714Y-54238954D01*
X111082167Y-54216440D01*
X111001501Y-54186476D01*
X110907619Y-54179718D01*
X110819193Y-54196782D01*
G37*
X110819193Y-54196782D02*
X110795839Y-54206988D01*
X110740098Y-54251134D01*
X110692431Y-54314967D01*
X110662952Y-54383087D01*
X110658154Y-54416670D01*
X110674240Y-54463556D01*
X110709525Y-54488365D01*
X110747356Y-54503387D01*
X110764679Y-54506155D01*
X110773114Y-54486066D01*
X110789770Y-54442351D01*
X110797077Y-54422598D01*
X110838052Y-54354271D01*
X110897378Y-54320191D01*
X110973448Y-54321239D01*
X110979082Y-54322581D01*
X111019695Y-54341836D01*
X111049552Y-54379375D01*
X111069945Y-54439809D01*
X111082164Y-54527751D01*
X111087500Y-54647813D01*
X111088000Y-54711698D01*
X111088248Y-54812403D01*
X111089874Y-54881054D01*
X111094199Y-54924673D01*
X111102546Y-54950282D01*
X111116235Y-54964903D01*
X111136589Y-54975558D01*
X111137766Y-54976095D01*
X111176962Y-54992667D01*
X111196381Y-54998769D01*
X111199365Y-54980319D01*
X111201919Y-54929323D01*
X111203860Y-54852308D01*
X111205003Y-54755805D01*
X111205231Y-54685184D01*
X111204068Y-54548525D01*
X111199521Y-54444851D01*
X111190001Y-54368108D01*
X111173919Y-54312246D01*
X111149687Y-54271212D01*
X111115714Y-54238954D01*
X111082167Y-54216440D01*
X111001501Y-54186476D01*
X110907619Y-54179718D01*
X110819193Y-54196782D01*
G36*
X110144776Y-54207838D02*
G01*
X110067472Y-54258361D01*
X110030186Y-54303590D01*
X110000647Y-54385663D01*
X109998301Y-54450607D01*
X110003615Y-54537445D01*
X110203885Y-54625103D01*
X110301261Y-54669887D01*
X110364887Y-54705913D01*
X110397971Y-54737117D01*
X110403720Y-54767436D01*
X110385342Y-54800805D01*
X110365077Y-54822923D01*
X110306111Y-54858393D01*
X110241976Y-54860879D01*
X110183074Y-54833235D01*
X110139803Y-54778320D01*
X110132064Y-54758928D01*
X110094994Y-54698364D01*
X110052346Y-54672552D01*
X109993846Y-54650471D01*
X109993846Y-54734184D01*
X109999018Y-54791150D01*
X110019277Y-54839189D01*
X110061738Y-54894346D01*
X110068049Y-54901514D01*
X110115280Y-54950585D01*
X110155879Y-54976920D01*
X110206672Y-54989035D01*
X110248780Y-54993003D01*
X110324098Y-54993991D01*
X110377714Y-54981466D01*
X110411162Y-54962869D01*
X110463732Y-54921975D01*
X110500121Y-54877748D01*
X110523150Y-54822126D01*
X110535641Y-54747047D01*
X110540413Y-54644449D01*
X110540794Y-54592376D01*
X110539499Y-54529948D01*
X110421529Y-54529948D01*
X110420161Y-54563438D01*
X110416751Y-54568923D01*
X110394247Y-54561472D01*
X110345818Y-54541753D01*
X110281092Y-54513718D01*
X110267557Y-54507692D01*
X110185756Y-54466096D01*
X110140688Y-54429538D01*
X110130783Y-54395296D01*
X110154474Y-54360648D01*
X110174040Y-54345339D01*
X110244640Y-54314721D01*
X110310720Y-54319780D01*
X110366041Y-54357151D01*
X110404364Y-54423473D01*
X110416651Y-54476116D01*
X110421529Y-54529948D01*
X110539499Y-54529948D01*
X110538270Y-54470720D01*
X110528968Y-54380710D01*
X110510540Y-54315167D01*
X110480640Y-54266912D01*
X110436920Y-54228767D01*
X110417859Y-54216440D01*
X110331274Y-54184336D01*
X110236478Y-54182316D01*
X110144776Y-54207838D01*
G37*
X110144776Y-54207838D02*
X110067472Y-54258361D01*
X110030186Y-54303590D01*
X110000647Y-54385663D01*
X109998301Y-54450607D01*
X110003615Y-54537445D01*
X110203885Y-54625103D01*
X110301261Y-54669887D01*
X110364887Y-54705913D01*
X110397971Y-54737117D01*
X110403720Y-54767436D01*
X110385342Y-54800805D01*
X110365077Y-54822923D01*
X110306111Y-54858393D01*
X110241976Y-54860879D01*
X110183074Y-54833235D01*
X110139803Y-54778320D01*
X110132064Y-54758928D01*
X110094994Y-54698364D01*
X110052346Y-54672552D01*
X109993846Y-54650471D01*
X109993846Y-54734184D01*
X109999018Y-54791150D01*
X110019277Y-54839189D01*
X110061738Y-54894346D01*
X110068049Y-54901514D01*
X110115280Y-54950585D01*
X110155879Y-54976920D01*
X110206672Y-54989035D01*
X110248780Y-54993003D01*
X110324098Y-54993991D01*
X110377714Y-54981466D01*
X110411162Y-54962869D01*
X110463732Y-54921975D01*
X110500121Y-54877748D01*
X110523150Y-54822126D01*
X110535641Y-54747047D01*
X110540413Y-54644449D01*
X110540794Y-54592376D01*
X110539499Y-54529948D01*
X110421529Y-54529948D01*
X110420161Y-54563438D01*
X110416751Y-54568923D01*
X110394247Y-54561472D01*
X110345818Y-54541753D01*
X110281092Y-54513718D01*
X110267557Y-54507692D01*
X110185756Y-54466096D01*
X110140688Y-54429538D01*
X110130783Y-54395296D01*
X110154474Y-54360648D01*
X110174040Y-54345339D01*
X110244640Y-54314721D01*
X110310720Y-54319780D01*
X110366041Y-54357151D01*
X110404364Y-54423473D01*
X110416651Y-54476116D01*
X110421529Y-54529948D01*
X110539499Y-54529948D01*
X110538270Y-54470720D01*
X110528968Y-54380710D01*
X110510540Y-54315167D01*
X110480640Y-54266912D01*
X110436920Y-54228767D01*
X110417859Y-54216440D01*
X110331274Y-54184336D01*
X110236478Y-54182316D01*
X110144776Y-54207838D01*
G36*
X114250122Y-47847776D02*
G01*
X114144388Y-47848355D01*
X114067868Y-47849922D01*
X114015628Y-47852972D01*
X113982737Y-47857996D01*
X113964263Y-47865489D01*
X113955273Y-47875944D01*
X113950837Y-47889853D01*
X113950406Y-47891654D01*
X113943667Y-47924145D01*
X113931192Y-47988252D01*
X113914281Y-48077151D01*
X113894229Y-48184019D01*
X113872336Y-48302033D01*
X113871571Y-48306178D01*
X113849641Y-48421831D01*
X113829123Y-48524014D01*
X113811341Y-48606598D01*
X113797619Y-48663456D01*
X113789282Y-48688458D01*
X113788884Y-48688901D01*
X113764323Y-48701110D01*
X113713685Y-48721456D01*
X113647905Y-48745545D01*
X113647539Y-48745674D01*
X113564683Y-48776818D01*
X113467000Y-48816491D01*
X113374923Y-48856381D01*
X113370566Y-48858353D01*
X113220593Y-48926420D01*
X112888502Y-48699639D01*
X112786626Y-48630504D01*
X112694343Y-48568697D01*
X112616997Y-48517733D01*
X112559936Y-48481127D01*
X112528505Y-48462394D01*
X112525521Y-48461004D01*
X112502679Y-48467190D01*
X112460018Y-48497035D01*
X112395872Y-48551947D01*
X112308579Y-48633334D01*
X112219465Y-48719922D01*
X112133559Y-48805247D01*
X112056673Y-48883108D01*
X111993436Y-48948697D01*
X111948477Y-48997205D01*
X111926424Y-49023825D01*
X111925604Y-49025195D01*
X111923166Y-49043463D01*
X111932350Y-49073295D01*
X111955426Y-49118721D01*
X111994663Y-49183770D01*
X112052330Y-49272470D01*
X112129205Y-49386657D01*
X112197430Y-49487162D01*
X112258418Y-49577303D01*
X112308644Y-49651849D01*
X112344584Y-49705565D01*
X112362713Y-49733218D01*
X112363854Y-49735095D01*
X112361641Y-49761590D01*
X112344862Y-49813086D01*
X112316858Y-49879851D01*
X112306878Y-49901172D01*
X112263328Y-49996159D01*
X112216866Y-50103937D01*
X112179123Y-50197192D01*
X112151927Y-50266406D01*
X112130325Y-50319006D01*
X112117842Y-50346497D01*
X112116291Y-50348616D01*
X112093332Y-50352124D01*
X112039214Y-50361738D01*
X111961132Y-50376089D01*
X111866281Y-50393807D01*
X111761857Y-50413525D01*
X111655056Y-50433874D01*
X111553074Y-50453486D01*
X111463106Y-50470991D01*
X111392347Y-50485022D01*
X111347994Y-50494209D01*
X111337115Y-50496807D01*
X111325878Y-50503218D01*
X111317395Y-50517697D01*
X111311286Y-50545133D01*
X111307168Y-50590411D01*
X111304659Y-50658420D01*
X111303379Y-50754047D01*
X111302946Y-50882180D01*
X111302923Y-50934701D01*
X111302923Y-51361845D01*
X111405500Y-51382091D01*
X111462569Y-51393070D01*
X111547731Y-51409095D01*
X111650628Y-51428233D01*
X111760904Y-51448551D01*
X111791385Y-51454132D01*
X111893145Y-51473917D01*
X111981795Y-51493373D01*
X112049892Y-51510697D01*
X112089996Y-51524088D01*
X112096677Y-51528079D01*
X112113081Y-51556342D01*
X112136601Y-51611109D01*
X112162684Y-51681588D01*
X112167858Y-51696769D01*
X112202044Y-51790896D01*
X112244477Y-51897101D01*
X112286003Y-51992473D01*
X112286208Y-51992916D01*
X112355360Y-52142525D01*
X111900488Y-52811617D01*
X112192500Y-53104116D01*
X112280820Y-53191170D01*
X112361375Y-53267909D01*
X112429640Y-53330237D01*
X112481092Y-53374056D01*
X112511206Y-53395270D01*
X112515526Y-53396616D01*
X112540889Y-53386016D01*
X112592642Y-53356547D01*
X112665132Y-53311705D01*
X112752706Y-53254984D01*
X112847388Y-53191462D01*
X112943484Y-53126668D01*
X113029163Y-53070287D01*
X113098984Y-53025788D01*
X113147506Y-52996639D01*
X113169218Y-52986308D01*
X113195707Y-52995050D01*
X113245938Y-53018087D01*
X113309549Y-53050631D01*
X113316292Y-53054249D01*
X113401954Y-53097210D01*
X113460694Y-53118279D01*
X113497228Y-53118503D01*
X113516269Y-53098928D01*
X113516380Y-53098654D01*
X113525898Y-53075472D01*
X113548597Y-53020441D01*
X113582718Y-52937822D01*
X113626500Y-52831872D01*
X113678184Y-52706852D01*
X113736008Y-52567020D01*
X113792009Y-52431637D01*
X113853553Y-52282234D01*
X113910061Y-52143832D01*
X113959839Y-52020673D01*
X114001194Y-51917002D01*
X114032432Y-51837059D01*
X114051859Y-51785088D01*
X114057846Y-51765692D01*
X114042832Y-51743443D01*
X114003561Y-51707982D01*
X113951193Y-51668887D01*
X113802059Y-51545245D01*
X113685489Y-51403522D01*
X113602882Y-51246704D01*
X113555634Y-51077775D01*
X113545143Y-50899722D01*
X113552769Y-50817539D01*
X113594318Y-50647031D01*
X113665877Y-50496459D01*
X113763005Y-50367309D01*
X113881266Y-50261064D01*
X114016220Y-50179210D01*
X114163429Y-50123232D01*
X114318456Y-50094615D01*
X114476861Y-50094844D01*
X114634206Y-50125405D01*
X114786054Y-50187782D01*
X114927965Y-50283460D01*
X114987197Y-50337572D01*
X115100797Y-50476520D01*
X115179894Y-50628361D01*
X115225014Y-50788667D01*
X115236684Y-50953012D01*
X115215431Y-51116971D01*
X115161780Y-51276118D01*
X115076260Y-51426025D01*
X114959395Y-51562267D01*
X114828807Y-51668887D01*
X114774412Y-51709642D01*
X114735986Y-51744718D01*
X114722154Y-51765726D01*
X114729397Y-51788635D01*
X114749995Y-51843365D01*
X114782254Y-51925672D01*
X114824479Y-52031315D01*
X114874977Y-52156050D01*
X114932052Y-52295636D01*
X114988146Y-52431670D01*
X115050033Y-52581201D01*
X115107356Y-52719767D01*
X115158356Y-52843107D01*
X115201273Y-52946964D01*
X115234347Y-53027080D01*
X115255819Y-53079195D01*
X115263775Y-53098654D01*
X115282571Y-53118423D01*
X115318926Y-53118365D01*
X115377521Y-53097441D01*
X115463032Y-53054613D01*
X115463708Y-53054249D01*
X115528093Y-53021012D01*
X115580139Y-52996802D01*
X115609488Y-52986404D01*
X115610783Y-52986308D01*
X115632876Y-52996855D01*
X115681652Y-53026184D01*
X115751669Y-53070827D01*
X115837486Y-53127314D01*
X115932612Y-53191462D01*
X116029460Y-53256411D01*
X116116747Y-53312896D01*
X116188819Y-53357421D01*
X116240023Y-53386490D01*
X116264474Y-53396616D01*
X116286990Y-53383307D01*
X116332258Y-53346112D01*
X116395756Y-53289128D01*
X116472961Y-53216449D01*
X116559349Y-53132171D01*
X116587601Y-53104016D01*
X116879713Y-52811416D01*
X116657369Y-52485104D01*
X116589798Y-52384897D01*
X116530493Y-52294963D01*
X116482783Y-52220510D01*
X116449993Y-52166751D01*
X116435452Y-52138894D01*
X116435026Y-52136912D01*
X116442692Y-52110655D01*
X116463311Y-52057837D01*
X116493315Y-51987310D01*
X116514375Y-51940093D01*
X116553752Y-51849694D01*
X116590835Y-51758366D01*
X116619585Y-51681200D01*
X116627395Y-51657692D01*
X116649583Y-51594916D01*
X116671273Y-51546411D01*
X116683187Y-51528079D01*
X116709477Y-51516859D01*
X116766858Y-51500954D01*
X116847882Y-51482167D01*
X116945105Y-51462299D01*
X116988615Y-51454132D01*
X117099104Y-51433829D01*
X117205084Y-51414170D01*
X117296199Y-51397088D01*
X117362092Y-51384518D01*
X117374500Y-51382091D01*
X117477077Y-51361845D01*
X117477077Y-50934701D01*
X117476847Y-50794246D01*
X117475901Y-50687979D01*
X117473859Y-50611013D01*
X117470338Y-50558460D01*
X117464957Y-50525433D01*
X117457334Y-50507045D01*
X117447088Y-50498408D01*
X117442885Y-50496807D01*
X117417530Y-50491127D01*
X117361516Y-50479795D01*
X117282036Y-50464179D01*
X117186288Y-50445647D01*
X117081467Y-50425569D01*
X116974768Y-50405312D01*
X116873387Y-50386246D01*
X116784521Y-50369739D01*
X116715363Y-50357159D01*
X116673111Y-50349875D01*
X116663710Y-50348616D01*
X116655193Y-50331763D01*
X116636340Y-50286870D01*
X116610676Y-50222430D01*
X116600877Y-50197192D01*
X116561352Y-50099686D01*
X116514808Y-49991959D01*
X116473123Y-49901172D01*
X116442450Y-49831753D01*
X116422044Y-49774710D01*
X116415232Y-49739777D01*
X116416318Y-49735095D01*
X116430715Y-49712991D01*
X116463588Y-49663831D01*
X116511410Y-49592848D01*
X116570652Y-49505278D01*
X116637785Y-49406357D01*
X116651059Y-49386830D01*
X116728954Y-49271140D01*
X116786213Y-49183044D01*
X116825119Y-49118486D01*
X116847956Y-49073411D01*
X116857006Y-49043763D01*
X116854552Y-49025485D01*
X116854489Y-49025369D01*
X116835173Y-49001361D01*
X116792449Y-48954947D01*
X116730949Y-48890937D01*
X116655302Y-48814145D01*
X116570139Y-48729382D01*
X116560535Y-48719922D01*
X116453210Y-48615989D01*
X116370385Y-48539675D01*
X116310395Y-48489571D01*
X116271577Y-48464270D01*
X116254480Y-48461004D01*
X116229527Y-48475250D01*
X116177745Y-48508156D01*
X116104480Y-48556208D01*
X116015080Y-48615890D01*
X115914889Y-48683688D01*
X115891499Y-48699639D01*
X115559407Y-48926420D01*
X115409435Y-48858353D01*
X115318230Y-48818685D01*
X115220331Y-48778791D01*
X115136169Y-48746983D01*
X115132462Y-48745674D01*
X115066631Y-48721576D01*
X115015884Y-48701200D01*
X114991158Y-48688936D01*
X114991116Y-48688901D01*
X114983271Y-48666734D01*
X114969934Y-48612217D01*
X114952430Y-48531480D01*
X114932083Y-48430650D01*
X114910218Y-48315856D01*
X114908429Y-48306178D01*
X114886496Y-48187904D01*
X114866360Y-48080542D01*
X114849320Y-47990917D01*
X114836672Y-47925851D01*
X114829716Y-47892168D01*
X114829594Y-47891654D01*
X114825361Y-47877325D01*
X114817129Y-47866507D01*
X114799967Y-47858706D01*
X114768942Y-47853429D01*
X114719122Y-47850182D01*
X114645576Y-47848472D01*
X114543371Y-47847807D01*
X114407575Y-47847693D01*
X114390000Y-47847692D01*
X114250122Y-47847776D01*
G37*
X114250122Y-47847776D02*
X114144388Y-47848355D01*
X114067868Y-47849922D01*
X114015628Y-47852972D01*
X113982737Y-47857996D01*
X113964263Y-47865489D01*
X113955273Y-47875944D01*
X113950837Y-47889853D01*
X113950406Y-47891654D01*
X113943667Y-47924145D01*
X113931192Y-47988252D01*
X113914281Y-48077151D01*
X113894229Y-48184019D01*
X113872336Y-48302033D01*
X113871571Y-48306178D01*
X113849641Y-48421831D01*
X113829123Y-48524014D01*
X113811341Y-48606598D01*
X113797619Y-48663456D01*
X113789282Y-48688458D01*
X113788884Y-48688901D01*
X113764323Y-48701110D01*
X113713685Y-48721456D01*
X113647905Y-48745545D01*
X113647539Y-48745674D01*
X113564683Y-48776818D01*
X113467000Y-48816491D01*
X113374923Y-48856381D01*
X113370566Y-48858353D01*
X113220593Y-48926420D01*
X112888502Y-48699639D01*
X112786626Y-48630504D01*
X112694343Y-48568697D01*
X112616997Y-48517733D01*
X112559936Y-48481127D01*
X112528505Y-48462394D01*
X112525521Y-48461004D01*
X112502679Y-48467190D01*
X112460018Y-48497035D01*
X112395872Y-48551947D01*
X112308579Y-48633334D01*
X112219465Y-48719922D01*
X112133559Y-48805247D01*
X112056673Y-48883108D01*
X111993436Y-48948697D01*
X111948477Y-48997205D01*
X111926424Y-49023825D01*
X111925604Y-49025195D01*
X111923166Y-49043463D01*
X111932350Y-49073295D01*
X111955426Y-49118721D01*
X111994663Y-49183770D01*
X112052330Y-49272470D01*
X112129205Y-49386657D01*
X112197430Y-49487162D01*
X112258418Y-49577303D01*
X112308644Y-49651849D01*
X112344584Y-49705565D01*
X112362713Y-49733218D01*
X112363854Y-49735095D01*
X112361641Y-49761590D01*
X112344862Y-49813086D01*
X112316858Y-49879851D01*
X112306878Y-49901172D01*
X112263328Y-49996159D01*
X112216866Y-50103937D01*
X112179123Y-50197192D01*
X112151927Y-50266406D01*
X112130325Y-50319006D01*
X112117842Y-50346497D01*
X112116291Y-50348616D01*
X112093332Y-50352124D01*
X112039214Y-50361738D01*
X111961132Y-50376089D01*
X111866281Y-50393807D01*
X111761857Y-50413525D01*
X111655056Y-50433874D01*
X111553074Y-50453486D01*
X111463106Y-50470991D01*
X111392347Y-50485022D01*
X111347994Y-50494209D01*
X111337115Y-50496807D01*
X111325878Y-50503218D01*
X111317395Y-50517697D01*
X111311286Y-50545133D01*
X111307168Y-50590411D01*
X111304659Y-50658420D01*
X111303379Y-50754047D01*
X111302946Y-50882180D01*
X111302923Y-50934701D01*
X111302923Y-51361845D01*
X111405500Y-51382091D01*
X111462569Y-51393070D01*
X111547731Y-51409095D01*
X111650628Y-51428233D01*
X111760904Y-51448551D01*
X111791385Y-51454132D01*
X111893145Y-51473917D01*
X111981795Y-51493373D01*
X112049892Y-51510697D01*
X112089996Y-51524088D01*
X112096677Y-51528079D01*
X112113081Y-51556342D01*
X112136601Y-51611109D01*
X112162684Y-51681588D01*
X112167858Y-51696769D01*
X112202044Y-51790896D01*
X112244477Y-51897101D01*
X112286003Y-51992473D01*
X112286208Y-51992916D01*
X112355360Y-52142525D01*
X111900488Y-52811617D01*
X112192500Y-53104116D01*
X112280820Y-53191170D01*
X112361375Y-53267909D01*
X112429640Y-53330237D01*
X112481092Y-53374056D01*
X112511206Y-53395270D01*
X112515526Y-53396616D01*
X112540889Y-53386016D01*
X112592642Y-53356547D01*
X112665132Y-53311705D01*
X112752706Y-53254984D01*
X112847388Y-53191462D01*
X112943484Y-53126668D01*
X113029163Y-53070287D01*
X113098984Y-53025788D01*
X113147506Y-52996639D01*
X113169218Y-52986308D01*
X113195707Y-52995050D01*
X113245938Y-53018087D01*
X113309549Y-53050631D01*
X113316292Y-53054249D01*
X113401954Y-53097210D01*
X113460694Y-53118279D01*
X113497228Y-53118503D01*
X113516269Y-53098928D01*
X113516380Y-53098654D01*
X113525898Y-53075472D01*
X113548597Y-53020441D01*
X113582718Y-52937822D01*
X113626500Y-52831872D01*
X113678184Y-52706852D01*
X113736008Y-52567020D01*
X113792009Y-52431637D01*
X113853553Y-52282234D01*
X113910061Y-52143832D01*
X113959839Y-52020673D01*
X114001194Y-51917002D01*
X114032432Y-51837059D01*
X114051859Y-51785088D01*
X114057846Y-51765692D01*
X114042832Y-51743443D01*
X114003561Y-51707982D01*
X113951193Y-51668887D01*
X113802059Y-51545245D01*
X113685489Y-51403522D01*
X113602882Y-51246704D01*
X113555634Y-51077775D01*
X113545143Y-50899722D01*
X113552769Y-50817539D01*
X113594318Y-50647031D01*
X113665877Y-50496459D01*
X113763005Y-50367309D01*
X113881266Y-50261064D01*
X114016220Y-50179210D01*
X114163429Y-50123232D01*
X114318456Y-50094615D01*
X114476861Y-50094844D01*
X114634206Y-50125405D01*
X114786054Y-50187782D01*
X114927965Y-50283460D01*
X114987197Y-50337572D01*
X115100797Y-50476520D01*
X115179894Y-50628361D01*
X115225014Y-50788667D01*
X115236684Y-50953012D01*
X115215431Y-51116971D01*
X115161780Y-51276118D01*
X115076260Y-51426025D01*
X114959395Y-51562267D01*
X114828807Y-51668887D01*
X114774412Y-51709642D01*
X114735986Y-51744718D01*
X114722154Y-51765726D01*
X114729397Y-51788635D01*
X114749995Y-51843365D01*
X114782254Y-51925672D01*
X114824479Y-52031315D01*
X114874977Y-52156050D01*
X114932052Y-52295636D01*
X114988146Y-52431670D01*
X115050033Y-52581201D01*
X115107356Y-52719767D01*
X115158356Y-52843107D01*
X115201273Y-52946964D01*
X115234347Y-53027080D01*
X115255819Y-53079195D01*
X115263775Y-53098654D01*
X115282571Y-53118423D01*
X115318926Y-53118365D01*
X115377521Y-53097441D01*
X115463032Y-53054613D01*
X115463708Y-53054249D01*
X115528093Y-53021012D01*
X115580139Y-52996802D01*
X115609488Y-52986404D01*
X115610783Y-52986308D01*
X115632876Y-52996855D01*
X115681652Y-53026184D01*
X115751669Y-53070827D01*
X115837486Y-53127314D01*
X115932612Y-53191462D01*
X116029460Y-53256411D01*
X116116747Y-53312896D01*
X116188819Y-53357421D01*
X116240023Y-53386490D01*
X116264474Y-53396616D01*
X116286990Y-53383307D01*
X116332258Y-53346112D01*
X116395756Y-53289128D01*
X116472961Y-53216449D01*
X116559349Y-53132171D01*
X116587601Y-53104016D01*
X116879713Y-52811416D01*
X116657369Y-52485104D01*
X116589798Y-52384897D01*
X116530493Y-52294963D01*
X116482783Y-52220510D01*
X116449993Y-52166751D01*
X116435452Y-52138894D01*
X116435026Y-52136912D01*
X116442692Y-52110655D01*
X116463311Y-52057837D01*
X116493315Y-51987310D01*
X116514375Y-51940093D01*
X116553752Y-51849694D01*
X116590835Y-51758366D01*
X116619585Y-51681200D01*
X116627395Y-51657692D01*
X116649583Y-51594916D01*
X116671273Y-51546411D01*
X116683187Y-51528079D01*
X116709477Y-51516859D01*
X116766858Y-51500954D01*
X116847882Y-51482167D01*
X116945105Y-51462299D01*
X116988615Y-51454132D01*
X117099104Y-51433829D01*
X117205084Y-51414170D01*
X117296199Y-51397088D01*
X117362092Y-51384518D01*
X117374500Y-51382091D01*
X117477077Y-51361845D01*
X117477077Y-50934701D01*
X117476847Y-50794246D01*
X117475901Y-50687979D01*
X117473859Y-50611013D01*
X117470338Y-50558460D01*
X117464957Y-50525433D01*
X117457334Y-50507045D01*
X117447088Y-50498408D01*
X117442885Y-50496807D01*
X117417530Y-50491127D01*
X117361516Y-50479795D01*
X117282036Y-50464179D01*
X117186288Y-50445647D01*
X117081467Y-50425569D01*
X116974768Y-50405312D01*
X116873387Y-50386246D01*
X116784521Y-50369739D01*
X116715363Y-50357159D01*
X116673111Y-50349875D01*
X116663710Y-50348616D01*
X116655193Y-50331763D01*
X116636340Y-50286870D01*
X116610676Y-50222430D01*
X116600877Y-50197192D01*
X116561352Y-50099686D01*
X116514808Y-49991959D01*
X116473123Y-49901172D01*
X116442450Y-49831753D01*
X116422044Y-49774710D01*
X116415232Y-49739777D01*
X116416318Y-49735095D01*
X116430715Y-49712991D01*
X116463588Y-49663831D01*
X116511410Y-49592848D01*
X116570652Y-49505278D01*
X116637785Y-49406357D01*
X116651059Y-49386830D01*
X116728954Y-49271140D01*
X116786213Y-49183044D01*
X116825119Y-49118486D01*
X116847956Y-49073411D01*
X116857006Y-49043763D01*
X116854552Y-49025485D01*
X116854489Y-49025369D01*
X116835173Y-49001361D01*
X116792449Y-48954947D01*
X116730949Y-48890937D01*
X116655302Y-48814145D01*
X116570139Y-48729382D01*
X116560535Y-48719922D01*
X116453210Y-48615989D01*
X116370385Y-48539675D01*
X116310395Y-48489571D01*
X116271577Y-48464270D01*
X116254480Y-48461004D01*
X116229527Y-48475250D01*
X116177745Y-48508156D01*
X116104480Y-48556208D01*
X116015080Y-48615890D01*
X115914889Y-48683688D01*
X115891499Y-48699639D01*
X115559407Y-48926420D01*
X115409435Y-48858353D01*
X115318230Y-48818685D01*
X115220331Y-48778791D01*
X115136169Y-48746983D01*
X115132462Y-48745674D01*
X115066631Y-48721576D01*
X115015884Y-48701200D01*
X114991158Y-48688936D01*
X114991116Y-48688901D01*
X114983271Y-48666734D01*
X114969934Y-48612217D01*
X114952430Y-48531480D01*
X114932083Y-48430650D01*
X114910218Y-48315856D01*
X114908429Y-48306178D01*
X114886496Y-48187904D01*
X114866360Y-48080542D01*
X114849320Y-47990917D01*
X114836672Y-47925851D01*
X114829716Y-47892168D01*
X114829594Y-47891654D01*
X114825361Y-47877325D01*
X114817129Y-47866507D01*
X114799967Y-47858706D01*
X114768942Y-47853429D01*
X114719122Y-47850182D01*
X114645576Y-47848472D01*
X114543371Y-47847807D01*
X114407575Y-47847693D01*
X114390000Y-47847692D01*
X114250122Y-47847776D01*
D12*
X83950000Y-48100000D02*
X86050000Y-48100000D01*
X86050000Y-48100000D02*
X86050000Y-53600000D01*
X83950000Y-48100000D02*
X83950000Y-53600000D01*
X86900000Y-55410000D02*
X92910000Y-55410000D01*
X89150000Y-48590000D02*
X92910000Y-48590000D01*
X92910000Y-55410000D02*
X92910000Y-54150000D01*
X92910000Y-48590000D02*
X92910000Y-49850000D01*
D10*
X85437142Y-56693333D02*
X85484761Y-56645714D01*
X85532380Y-56502857D01*
X85532380Y-56407619D01*
X85484761Y-56264761D01*
X85389523Y-56169523D01*
X85294285Y-56121904D01*
X85103809Y-56074285D01*
X84960952Y-56074285D01*
X84770476Y-56121904D01*
X84675238Y-56169523D01*
X84580000Y-56264761D01*
X84532380Y-56407619D01*
X84532380Y-56502857D01*
X84580000Y-56645714D01*
X84627619Y-56693333D01*
X84532380Y-57026666D02*
X84532380Y-57693333D01*
X85532380Y-57264761D01*
X91761904Y-55952380D02*
X91761904Y-56761904D01*
X91714285Y-56857142D01*
X91666666Y-56904761D01*
X91571428Y-56952380D01*
X91380952Y-56952380D01*
X91285714Y-56904761D01*
X91238095Y-56857142D01*
X91190476Y-56761904D01*
X91190476Y-55952380D01*
X90285714Y-56285714D02*
X90285714Y-56952380D01*
X90523809Y-55904761D02*
X90761904Y-56619047D01*
X90142857Y-56619047D01*
M02*
