M48
METRIC,TZ
T1C0.400
T2C0.800
T3C1.000
T4C1.501
T5C2.200
%
G90
G05
T1
X87360Y-48000
X88300Y-31450
X88320Y-32380
X88690Y-39950
X88710Y-40880
X89383Y-31450
X89402Y-32380
X89773Y-39950
X89793Y-40880
X90465Y-31450
X90485Y-32380
X90855Y-39950
X90875Y-40880
X91938Y-39950
X91958Y-40880
X93020Y-39950
X93040Y-40880
X96690Y-52990
X99400Y-52100
X100300Y-54500
X100850Y-49470
X102720Y-31450
X102740Y-32380
X103110Y-39840
X103110Y-40770
X103802Y-31450
X103823Y-32380
X104193Y-39840
X104193Y-40770
X104885Y-31450
X104905Y-32380
X105275Y-39840
X105275Y-40770
X106358Y-39840
X106358Y-40770
X107440Y-39840
X107440Y-40770
X108100Y-54600
X109700Y-53000
X111230Y-52440
X115710Y-48840
X115800Y-54900
X117180Y-31450
X117200Y-32380
X117580Y-39740
X117600Y-40670
X118263Y-31450
X118283Y-32380
X118663Y-39740
X118682Y-40670
X119345Y-31450
X119365Y-32380
X119745Y-39740
X119765Y-40670
X120828Y-39740
X120848Y-40670
X121910Y-39740
X121930Y-40670
X122720Y-53650
T2
X82030Y-41910
X82030Y-37490
X82030Y-46330
T3
X116500Y-58200
X119040Y-58200
X121580Y-58200
X124120Y-58200
X97300Y-58200
X99840Y-58200
X102380Y-58200
X104920Y-58200
X107460Y-58200
X110000Y-58200
X82000Y-52000
X82000Y-54540
T4
X96850Y-25700
X102700Y-25720
T5
X125460Y-25470
X87820Y-57730
X82510Y-25550
X125620Y-53420
T0
M30
