G04 #@! TF.GenerationSoftware,KiCad,Pcbnew,(5.1.5-0-10_14)*
G04 #@! TF.CreationDate,2020-02-25T16:28:57+09:00*
G04 #@! TF.ProjectId,hbldc,68626c64-632e-46b6-9963-61645f706362,rev?*
G04 #@! TF.SameCoordinates,Original*
G04 #@! TF.FileFunction,Copper,L1,Top*
G04 #@! TF.FilePolarity,Positive*
%FSLAX46Y46*%
G04 Gerber Fmt 4.6, Leading zero omitted, Abs format (unit mm)*
G04 Created by KiCad (PCBNEW (5.1.5-0-10_14)) date 2020-02-25 16:28:57*
%MOMM*%
%LPD*%
G04 APERTURE LIST*
%ADD10C,3.500000*%
%ADD11C,3.000000*%
%ADD12R,3.200000X1.500000*%
%ADD13R,0.750000X0.800000*%
%ADD14R,0.450000X0.600000*%
%ADD15R,0.800000X0.800000*%
%ADD16C,4.000500*%
%ADD17O,1.700000X1.700000*%
%ADD18R,1.700000X1.700000*%
%ADD19R,1.550000X1.200000*%
%ADD20R,1.550000X1.600000*%
%ADD21R,4.500000X4.290000*%
%ADD22R,0.700000X0.800000*%
%ADD23R,0.900000X0.500000*%
%ADD24R,0.500000X0.900000*%
%ADD25R,1.550000X0.600000*%
%ADD26C,0.800000*%
%ADD27C,0.250000*%
%ADD28C,0.254000*%
G04 APERTURE END LIST*
D10*
X87820000Y-57730000D03*
X125620000Y-53420000D03*
X125460000Y-25470000D03*
X82510000Y-25550000D03*
D11*
X82030000Y-37490000D03*
D12*
X94000000Y-48600000D03*
X90000000Y-48600000D03*
X104426000Y-48610000D03*
X108426000Y-48610000D03*
X123250000Y-48610000D03*
X119250000Y-48610000D03*
D13*
X93130000Y-50670000D03*
X93130000Y-52170000D03*
X107620000Y-52170000D03*
X107620000Y-50670000D03*
X122470000Y-52170000D03*
X122470000Y-50670000D03*
D14*
X97160000Y-47160000D03*
X97160000Y-49260000D03*
X111540000Y-49290000D03*
X111540000Y-47190000D03*
X126390000Y-47150000D03*
X126390000Y-49250000D03*
D15*
X86500000Y-53000000D03*
X84900000Y-53000000D03*
D16*
X96850000Y-25700000D03*
X102700000Y-25720000D03*
D17*
X110000000Y-58200000D03*
X107460000Y-58200000D03*
X104920000Y-58200000D03*
X102380000Y-58200000D03*
X99840000Y-58200000D03*
D18*
X97300000Y-58200000D03*
D11*
X82030000Y-41910000D03*
X82030000Y-46330000D03*
D17*
X124120000Y-58200000D03*
X121580000Y-58200000D03*
X119040000Y-58200000D03*
D18*
X116500000Y-58200000D03*
D17*
X82000000Y-54540000D03*
D18*
X82000000Y-52000000D03*
D19*
X95930000Y-36800000D03*
X93750000Y-36800000D03*
D20*
X95930000Y-34800000D03*
X93750000Y-34800000D03*
D21*
X94840000Y-35550000D03*
D22*
X92930000Y-33300000D03*
X94200000Y-33300000D03*
X95480000Y-33300000D03*
X96750000Y-33300000D03*
X96750000Y-38800000D03*
X95480000Y-38800000D03*
X94200000Y-38800000D03*
X92930000Y-38800000D03*
X90660000Y-33290000D03*
X89390000Y-33290000D03*
X88110000Y-33290000D03*
X86840000Y-33290000D03*
X86840000Y-38790000D03*
X88110000Y-38790000D03*
X89390000Y-38790000D03*
X90660000Y-38790000D03*
D21*
X88750000Y-36540000D03*
D20*
X89840000Y-37290000D03*
X87660000Y-37290000D03*
D19*
X89840000Y-35290000D03*
X87660000Y-35290000D03*
D22*
X107400000Y-38800000D03*
X108670000Y-38800000D03*
X109950000Y-38800000D03*
X111220000Y-38800000D03*
X111220000Y-33300000D03*
X109950000Y-33300000D03*
X108670000Y-33300000D03*
X107400000Y-33300000D03*
D21*
X109310000Y-35550000D03*
D20*
X108220000Y-34800000D03*
X110400000Y-34800000D03*
D19*
X108220000Y-36800000D03*
X110400000Y-36800000D03*
X102120000Y-35300000D03*
X104300000Y-35300000D03*
D20*
X102120000Y-37300000D03*
X104300000Y-37300000D03*
D21*
X103210000Y-36550000D03*
D22*
X105120000Y-38800000D03*
X103850000Y-38800000D03*
X102570000Y-38800000D03*
X101300000Y-38800000D03*
X101300000Y-33300000D03*
X102570000Y-33300000D03*
X103850000Y-33300000D03*
X105120000Y-33300000D03*
X121860000Y-38800000D03*
X123130000Y-38800000D03*
X124410000Y-38800000D03*
X125680000Y-38800000D03*
X125680000Y-33300000D03*
X124410000Y-33300000D03*
X123130000Y-33300000D03*
X121860000Y-33300000D03*
D21*
X123770000Y-35550000D03*
D20*
X122680000Y-34800000D03*
X124860000Y-34800000D03*
D19*
X122680000Y-36800000D03*
X124860000Y-36800000D03*
X116590000Y-35280000D03*
X118770000Y-35280000D03*
D20*
X116590000Y-37280000D03*
X118770000Y-37280000D03*
D21*
X117680000Y-36530000D03*
D22*
X119590000Y-38780000D03*
X118320000Y-38780000D03*
X117040000Y-38780000D03*
X115770000Y-38780000D03*
X115770000Y-33280000D03*
X117040000Y-33280000D03*
X118320000Y-33280000D03*
X119590000Y-33280000D03*
D23*
X85240000Y-46320000D03*
X85240000Y-44820000D03*
X87100000Y-44820000D03*
X87100000Y-46320000D03*
X99510000Y-46310000D03*
X99510000Y-44810000D03*
X101000000Y-44810000D03*
X101000000Y-46310000D03*
X114260000Y-46320000D03*
X114260000Y-44820000D03*
X115800000Y-44820000D03*
X115800000Y-46320000D03*
X97220000Y-40950000D03*
X97220000Y-42450000D03*
X86480000Y-42450000D03*
X86480000Y-40950000D03*
X111610000Y-42450000D03*
X111610000Y-40950000D03*
X100900000Y-40950000D03*
X100900000Y-42450000D03*
X126100000Y-42450000D03*
X126100000Y-40950000D03*
X115350000Y-40950000D03*
X115350000Y-42450000D03*
X90200000Y-50670000D03*
X90200000Y-52170000D03*
X104640000Y-52170000D03*
X104640000Y-50670000D03*
X119470000Y-50670000D03*
X119470000Y-52170000D03*
X91700000Y-52170000D03*
X91700000Y-50670000D03*
X106160000Y-50670000D03*
X106160000Y-52170000D03*
X88710000Y-52170000D03*
X88710000Y-50670000D03*
X103124000Y-50670000D03*
X103124000Y-52170000D03*
X117950000Y-52170000D03*
X117950000Y-50670000D03*
X121000000Y-52170000D03*
X121000000Y-50670000D03*
D24*
X84750000Y-51500000D03*
X86250000Y-51500000D03*
D25*
X89210000Y-46375000D03*
X89210000Y-45105000D03*
X89210000Y-43835000D03*
X89210000Y-42565000D03*
X94610000Y-42565000D03*
X94610000Y-43835000D03*
X94610000Y-45105000D03*
X94610000Y-46375000D03*
X108990000Y-46375000D03*
X108990000Y-45105000D03*
X108990000Y-43835000D03*
X108990000Y-42565000D03*
X103590000Y-42565000D03*
X103590000Y-43835000D03*
X103590000Y-45105000D03*
X103590000Y-46375000D03*
X118300000Y-46375000D03*
X118300000Y-45105000D03*
X118300000Y-43835000D03*
X118300000Y-42565000D03*
X123700000Y-42565000D03*
X123700000Y-43835000D03*
X123700000Y-45105000D03*
X123700000Y-46375000D03*
D26*
X88690000Y-39950000D03*
X89772500Y-39950000D03*
X90855000Y-39950000D03*
X91937500Y-39950000D03*
X93020000Y-39950000D03*
X93040000Y-40880000D03*
X91957500Y-40880000D03*
X88710000Y-40880000D03*
X89792500Y-40880000D03*
X90875000Y-40880000D03*
X103110000Y-40770000D03*
X105275000Y-40770000D03*
X107440000Y-39840000D03*
X104192500Y-40770000D03*
X106357500Y-40770000D03*
X107440000Y-40770000D03*
X106357500Y-39840000D03*
X103110000Y-39840000D03*
X104192500Y-39840000D03*
X105275000Y-39840000D03*
X121930000Y-40670000D03*
X119745000Y-39740000D03*
X120827500Y-39740000D03*
X121910000Y-39740000D03*
X117580000Y-39740000D03*
X118682500Y-40670000D03*
X120847500Y-40670000D03*
X118662500Y-39740000D03*
X117600000Y-40670000D03*
X119765000Y-40670000D03*
X99400000Y-52100000D03*
X88320000Y-32380000D03*
X90485000Y-32380000D03*
X89402500Y-32380000D03*
X88300000Y-31450000D03*
X89382500Y-31450000D03*
X90465000Y-31450000D03*
X104885000Y-31450000D03*
X103822500Y-32380000D03*
X102740000Y-32380000D03*
X104905000Y-32380000D03*
X103802500Y-31450000D03*
X102720000Y-31450000D03*
X117200000Y-32380000D03*
X118282500Y-32380000D03*
X119345000Y-31450000D03*
X118262500Y-31450000D03*
X117180000Y-31450000D03*
X119365000Y-32380000D03*
X115710000Y-48840000D03*
X122720000Y-53650000D03*
X111230000Y-52440000D03*
X100850000Y-49470000D03*
X96690000Y-52990000D03*
X87360000Y-48000000D03*
X109700000Y-53000000D03*
X108100000Y-54600000D03*
X100300000Y-54500000D03*
X115800000Y-54900000D03*
D27*
X92150000Y-47600000D02*
X93150000Y-48600000D01*
X93150000Y-48600000D02*
X94000000Y-48600000D01*
X93585000Y-45105000D02*
X92150000Y-46540000D01*
X92150000Y-46540000D02*
X92150000Y-47600000D01*
X94610000Y-45105000D02*
X93585000Y-45105000D01*
X94660000Y-49260000D02*
X94000000Y-48600000D01*
X97160000Y-49260000D02*
X94660000Y-49260000D01*
X88110000Y-37740000D02*
X87660000Y-37290000D01*
X88110000Y-38790000D02*
X88110000Y-37740000D01*
X94610000Y-39210000D02*
X94200000Y-38800000D01*
X94610000Y-42565000D02*
X94610000Y-39210000D01*
X93585000Y-42565000D02*
X91030000Y-45120000D01*
X94610000Y-42565000D02*
X93585000Y-42565000D01*
X90000000Y-47600000D02*
X90000000Y-48600000D01*
X91030000Y-46570000D02*
X90000000Y-47600000D01*
X91030000Y-45120000D02*
X91030000Y-46570000D01*
X90200000Y-48800000D02*
X90000000Y-48600000D01*
X90200000Y-50670000D02*
X90200000Y-48800000D01*
X102570000Y-37750000D02*
X102120000Y-37300000D01*
X102570000Y-38800000D02*
X102570000Y-37750000D01*
X108515000Y-42565000D02*
X105930000Y-45150000D01*
X108990000Y-42565000D02*
X108515000Y-42565000D01*
X104426000Y-47610000D02*
X104426000Y-48610000D01*
X105930000Y-46106000D02*
X104426000Y-47610000D01*
X105930000Y-45150000D02*
X105930000Y-46106000D01*
X104640000Y-48824000D02*
X104426000Y-48610000D01*
X104640000Y-50670000D02*
X104640000Y-48824000D01*
X108990000Y-39120000D02*
X108670000Y-38800000D01*
X108990000Y-42565000D02*
X108990000Y-39120000D01*
X107576000Y-48610000D02*
X108426000Y-48610000D01*
X106576000Y-46494000D02*
X106576000Y-47610000D01*
X106576000Y-47610000D02*
X107576000Y-48610000D01*
X107965000Y-45105000D02*
X106576000Y-46494000D01*
X108990000Y-45105000D02*
X107965000Y-45105000D01*
X109106000Y-49290000D02*
X108426000Y-48610000D01*
X111540000Y-49290000D02*
X109106000Y-49290000D01*
X123250000Y-47610000D02*
X123250000Y-48610000D01*
X121900000Y-47410000D02*
X123050000Y-47410000D01*
X121550010Y-46229990D02*
X121550010Y-47060010D01*
X123700000Y-45105000D02*
X122675000Y-45105000D01*
X121550010Y-47060010D02*
X121900000Y-47410000D01*
X123050000Y-47410000D02*
X123250000Y-47610000D01*
X122675000Y-45105000D02*
X121550010Y-46229990D01*
X123890000Y-49250000D02*
X123250000Y-48610000D01*
X126390000Y-49250000D02*
X123890000Y-49250000D01*
X117040000Y-37730000D02*
X116590000Y-37280000D01*
X117040000Y-38780000D02*
X117040000Y-37730000D01*
X123700000Y-39370000D02*
X123130000Y-38800000D01*
X123700000Y-42565000D02*
X123700000Y-39370000D01*
X121100000Y-47610000D02*
X120100000Y-48610000D01*
X121100000Y-44140000D02*
X121100000Y-47610000D01*
X120100000Y-48610000D02*
X119250000Y-48610000D01*
X122675000Y-42565000D02*
X121100000Y-44140000D01*
X123700000Y-42565000D02*
X122675000Y-42565000D01*
X119470000Y-48830000D02*
X119250000Y-48610000D01*
X119470000Y-50670000D02*
X119470000Y-48830000D01*
X90200000Y-52170000D02*
X91700000Y-50670000D01*
X91700000Y-50670000D02*
X93130000Y-50670000D01*
X90200000Y-52160000D02*
X88710000Y-50670000D01*
X90200000Y-52170000D02*
X90200000Y-52160000D01*
X93130000Y-50670000D02*
X97970000Y-50670000D01*
X97970000Y-50670000D02*
X99400000Y-52100000D01*
X91700000Y-52170000D02*
X93130000Y-52170000D01*
X106160000Y-52170000D02*
X107620000Y-52170000D01*
X122470000Y-52170000D02*
X121000000Y-52170000D01*
X83202081Y-54540000D02*
X82000000Y-54540000D01*
X85610000Y-54540000D02*
X83202081Y-54540000D01*
X86500000Y-53650000D02*
X85610000Y-54540000D01*
X86500000Y-53000000D02*
X86500000Y-53650000D01*
X99510000Y-46310000D02*
X101000000Y-46310000D01*
X88515000Y-45105000D02*
X89210000Y-45105000D01*
X87300000Y-46320000D02*
X88515000Y-45105000D01*
X87100000Y-46320000D02*
X87300000Y-46320000D01*
X115710000Y-46410000D02*
X115800000Y-46320000D01*
X115710000Y-48840000D02*
X115710000Y-46410000D01*
X115800000Y-46320000D02*
X114260000Y-46320000D01*
X116500000Y-46320000D02*
X117715000Y-45105000D01*
X117715000Y-45105000D02*
X118300000Y-45105000D01*
X115800000Y-46320000D02*
X116500000Y-46320000D01*
X122154315Y-53650000D02*
X122720000Y-53650000D01*
X121980000Y-53650000D02*
X122154315Y-53650000D01*
X121000000Y-52670000D02*
X121980000Y-53650000D01*
X121000000Y-52170000D02*
X121000000Y-52670000D01*
X111230000Y-53005685D02*
X110335685Y-53900000D01*
X111230000Y-52440000D02*
X111230000Y-53005685D01*
X110335685Y-53900000D02*
X108390000Y-53900000D01*
X107620000Y-53130000D02*
X107620000Y-52170000D01*
X108390000Y-53900000D02*
X107620000Y-53130000D01*
X100850000Y-46460000D02*
X101000000Y-46310000D01*
X100850000Y-49470000D02*
X100850000Y-46460000D01*
X101700000Y-46310000D02*
X102905000Y-45105000D01*
X102905000Y-45105000D02*
X103590000Y-45105000D01*
X101000000Y-46310000D02*
X101700000Y-46310000D01*
X95870000Y-52170000D02*
X96690000Y-52990000D01*
X93130000Y-52170000D02*
X95870000Y-52170000D01*
X86970000Y-46450000D02*
X87100000Y-46320000D01*
X103140000Y-50670000D02*
X104640000Y-52170000D01*
X103124000Y-50670000D02*
X103140000Y-50670000D01*
X104660000Y-52170000D02*
X106160000Y-50670000D01*
X104640000Y-52170000D02*
X104660000Y-52170000D01*
X106160000Y-50670000D02*
X107620000Y-50670000D01*
X109700000Y-52434315D02*
X109700000Y-53000000D01*
X109700000Y-52125000D02*
X109700000Y-52434315D01*
X108245000Y-50670000D02*
X109700000Y-52125000D01*
X107620000Y-50670000D02*
X108245000Y-50670000D01*
X117970000Y-50670000D02*
X119470000Y-52170000D01*
X117950000Y-50670000D02*
X117970000Y-50670000D01*
X119500000Y-52170000D02*
X121000000Y-50670000D01*
X119470000Y-52170000D02*
X119500000Y-52170000D01*
X121000000Y-50670000D02*
X122470000Y-50670000D01*
X119670000Y-52170000D02*
X119470000Y-52170000D01*
X124120000Y-56620000D02*
X119670000Y-52170000D01*
X124120000Y-58200000D02*
X124120000Y-56620000D01*
X94200000Y-34350000D02*
X93750000Y-34800000D01*
X94200000Y-33300000D02*
X94200000Y-34350000D01*
X94845000Y-47160000D02*
X94610000Y-46925000D01*
X94610000Y-46925000D02*
X94610000Y-46375000D01*
X97160000Y-47160000D02*
X94845000Y-47160000D01*
X108990000Y-46925000D02*
X108990000Y-46375000D01*
X109255000Y-47190000D02*
X108990000Y-46925000D01*
X111540000Y-47190000D02*
X109255000Y-47190000D01*
X123700000Y-46925000D02*
X123700000Y-46375000D01*
X123925000Y-47150000D02*
X123700000Y-46925000D01*
X126390000Y-47150000D02*
X123925000Y-47150000D01*
X123130000Y-34350000D02*
X122680000Y-34800000D01*
X123130000Y-33300000D02*
X123130000Y-34350000D01*
X96955000Y-36800000D02*
X95930000Y-36800000D01*
X97995001Y-44014999D02*
X97995001Y-37840001D01*
X95635000Y-46375000D02*
X97995001Y-44014999D01*
X97995001Y-37840001D02*
X96955000Y-36800000D01*
X94610000Y-46375000D02*
X95635000Y-46375000D01*
X110015000Y-46375000D02*
X112385001Y-44004999D01*
X111425000Y-36800000D02*
X110400000Y-36800000D01*
X112385001Y-37760001D02*
X111425000Y-36800000D01*
X112385001Y-44004999D02*
X112385001Y-37760001D01*
X108990000Y-46375000D02*
X110015000Y-46375000D01*
X126875001Y-44224999D02*
X126875001Y-37790001D01*
X125885000Y-36800000D02*
X124860000Y-36800000D01*
X126875001Y-37790001D02*
X125885000Y-36800000D01*
X124725000Y-46375000D02*
X126875001Y-44224999D01*
X123700000Y-46375000D02*
X124725000Y-46375000D01*
X111220000Y-33980000D02*
X110400000Y-34800000D01*
X111220000Y-33300000D02*
X111220000Y-33980000D01*
X84900000Y-52850000D02*
X86250000Y-51500000D01*
X84900000Y-53000000D02*
X84900000Y-52850000D01*
X118300000Y-43835000D02*
X117825000Y-43835000D01*
X110000000Y-56296410D02*
X110000000Y-58200000D01*
X112540011Y-53756399D02*
X110000000Y-56296410D01*
X112540011Y-46476399D02*
X112540011Y-53756399D01*
X113621409Y-45395001D02*
X112540011Y-46476399D01*
X116285000Y-43835000D02*
X117275000Y-43835000D01*
X115800000Y-44320000D02*
X116285000Y-43835000D01*
X117275000Y-43835000D02*
X118300000Y-43835000D01*
X115800000Y-44820000D02*
X115800000Y-44320000D01*
X115600000Y-44820000D02*
X115024999Y-45395001D01*
X115024999Y-45395001D02*
X113621409Y-45395001D01*
X115800000Y-44820000D02*
X115600000Y-44820000D01*
X108309999Y-57350001D02*
X107460000Y-58200000D01*
X112090001Y-53569999D02*
X108309999Y-57350001D01*
X112090001Y-46289999D02*
X112090001Y-53569999D01*
X113560000Y-44820000D02*
X112090001Y-46289999D01*
X114260000Y-44820000D02*
X113560000Y-44820000D01*
X117275000Y-42565000D02*
X118300000Y-42565000D01*
X114460000Y-44820000D02*
X116715000Y-42565000D01*
X116715000Y-42565000D02*
X117275000Y-42565000D01*
X114260000Y-44820000D02*
X114460000Y-44820000D01*
X103590000Y-43835000D02*
X103115000Y-43835000D01*
X101000000Y-45310000D02*
X101000000Y-44810000D01*
X100710000Y-45600000D02*
X101000000Y-45310000D01*
X98160011Y-46096399D02*
X98656410Y-45600000D01*
X98656410Y-45600000D02*
X100710000Y-45600000D01*
X104920000Y-55720000D02*
X98160011Y-48960011D01*
X98160011Y-48960011D02*
X98160011Y-46096399D01*
X104920000Y-58200000D02*
X104920000Y-55720000D01*
X101475000Y-43835000D02*
X101000000Y-44310000D01*
X101000000Y-44310000D02*
X101000000Y-44810000D01*
X103590000Y-43835000D02*
X101475000Y-43835000D01*
X97710001Y-49146411D02*
X102380000Y-53816410D01*
X97710001Y-45909999D02*
X97710001Y-49146411D01*
X102380000Y-53816410D02*
X102380000Y-58200000D01*
X98810000Y-44810000D02*
X97710001Y-45909999D01*
X99510000Y-44810000D02*
X98810000Y-44810000D01*
X99710000Y-44810000D02*
X101955000Y-42565000D01*
X99510000Y-44810000D02*
X99710000Y-44810000D01*
X101955000Y-42565000D02*
X103590000Y-42565000D01*
X89085000Y-43960000D02*
X89210000Y-43835000D01*
X89210000Y-43835000D02*
X88735000Y-43835000D01*
X87100000Y-44320000D02*
X87100000Y-44820000D01*
X87585000Y-43835000D02*
X87100000Y-44320000D01*
X89210000Y-43835000D02*
X87585000Y-43835000D01*
X87100000Y-44820000D02*
X86900000Y-44820000D01*
X87100000Y-45320000D02*
X87100000Y-44820000D01*
X84900000Y-45400000D02*
X87020000Y-45400000D01*
X84400000Y-46765002D02*
X84400000Y-45900000D01*
X86259997Y-48624999D02*
X84400000Y-46765002D01*
X84400000Y-45900000D02*
X84900000Y-45400000D01*
X86324999Y-48624999D02*
X86259997Y-48624999D01*
X87020000Y-45400000D02*
X87100000Y-45320000D01*
X87934999Y-50234999D02*
X86324999Y-48624999D01*
X89754998Y-54500000D02*
X87934999Y-52680001D01*
X99840000Y-56140000D02*
X98200000Y-54500000D01*
X87934999Y-52680001D02*
X87934999Y-50234999D01*
X98200000Y-54500000D02*
X89754998Y-54500000D01*
X99840000Y-58200000D02*
X99840000Y-56140000D01*
X85940000Y-44820000D02*
X88195000Y-42565000D01*
X88195000Y-42565000D02*
X89210000Y-42565000D01*
X85240000Y-44820000D02*
X85940000Y-44820000D01*
X89568598Y-54950010D02*
X96150010Y-54950010D01*
X97300000Y-56100000D02*
X97300000Y-58200000D01*
X96150010Y-54950010D02*
X97300000Y-56100000D01*
X87484989Y-52866401D02*
X89568598Y-54950010D01*
X87484989Y-50486401D02*
X87484989Y-52866401D01*
X83949991Y-46951403D02*
X87484989Y-50486401D01*
X83949990Y-45410010D02*
X83949991Y-46951403D01*
X84540000Y-44820000D02*
X83949990Y-45410010D01*
X85240000Y-44820000D02*
X84540000Y-44820000D01*
X103124000Y-52670000D02*
X105054000Y-54600000D01*
X103124000Y-52170000D02*
X103124000Y-52670000D01*
X105054000Y-54600000D02*
X108100000Y-54600000D01*
X88710000Y-52810000D02*
X89949990Y-54049990D01*
X88710000Y-52170000D02*
X88710000Y-52810000D01*
X89949990Y-54049990D02*
X94600000Y-54049990D01*
X94600000Y-54049990D02*
X97600000Y-54049990D01*
X97600000Y-54049990D02*
X99849990Y-54049990D01*
X99849990Y-54049990D02*
X100300000Y-54500000D01*
X117250000Y-52170000D02*
X115800000Y-53620000D01*
X117950000Y-52170000D02*
X117250000Y-52170000D01*
X115800000Y-53620000D02*
X115800000Y-54900000D01*
X97220000Y-39270000D02*
X96750000Y-38800000D01*
X97220000Y-40950000D02*
X97220000Y-39270000D01*
X86280000Y-40950000D02*
X86480000Y-40950000D01*
X85780000Y-40450000D02*
X86280000Y-40950000D01*
X85780000Y-33750000D02*
X85780000Y-40450000D01*
X86240000Y-33290000D02*
X85780000Y-33750000D01*
X86840000Y-33290000D02*
X86240000Y-33290000D01*
X111610000Y-39190000D02*
X111220000Y-38800000D01*
X111610000Y-40950000D02*
X111610000Y-39190000D01*
X100700000Y-40950000D02*
X100900000Y-40950000D01*
X100200000Y-40450000D02*
X100700000Y-40950000D01*
X100200000Y-33800000D02*
X100200000Y-40450000D01*
X100700000Y-33300000D02*
X100200000Y-33800000D01*
X101300000Y-33300000D02*
X100700000Y-33300000D01*
X126100000Y-39220000D02*
X125680000Y-38800000D01*
X126100000Y-40950000D02*
X126100000Y-39220000D01*
X115150000Y-40950000D02*
X115350000Y-40950000D01*
X114650000Y-33800000D02*
X114650000Y-40450000D01*
X115170000Y-33280000D02*
X114650000Y-33800000D01*
X114650000Y-40450000D02*
X115150000Y-40950000D01*
X115770000Y-33280000D02*
X115170000Y-33280000D01*
X95635000Y-43835000D02*
X94610000Y-43835000D01*
X96335000Y-43835000D02*
X95635000Y-43835000D01*
X97220000Y-42950000D02*
X96335000Y-43835000D01*
X97220000Y-42450000D02*
X97220000Y-42950000D01*
X90235000Y-46375000D02*
X89210000Y-46375000D01*
X90310001Y-46299999D02*
X90235000Y-46375000D01*
X90310001Y-42004999D02*
X90310001Y-46299999D01*
X90245001Y-41939999D02*
X90310001Y-42004999D01*
X87690001Y-41939999D02*
X90245001Y-41939999D01*
X87180000Y-42450000D02*
X87690001Y-41939999D01*
X86480000Y-42450000D02*
X87180000Y-42450000D01*
X111610000Y-42950000D02*
X110725000Y-43835000D01*
X110015000Y-43835000D02*
X108990000Y-43835000D01*
X110725000Y-43835000D02*
X110015000Y-43835000D01*
X111610000Y-42450000D02*
X111610000Y-42950000D01*
X101314000Y-42450000D02*
X100900000Y-42450000D01*
X101824001Y-41939999D02*
X101314000Y-42450000D01*
X103590000Y-46375000D02*
X104615000Y-46375000D01*
X104690001Y-46299999D02*
X104690001Y-42004999D01*
X104625001Y-41939999D02*
X101824001Y-41939999D01*
X104690001Y-42004999D02*
X104625001Y-41939999D01*
X104615000Y-46375000D02*
X104690001Y-46299999D01*
X126100000Y-42950000D02*
X125215000Y-43835000D01*
X124725000Y-43835000D02*
X123700000Y-43835000D01*
X125215000Y-43835000D02*
X124725000Y-43835000D01*
X126100000Y-42450000D02*
X126100000Y-42950000D01*
X119325000Y-46375000D02*
X118300000Y-46375000D01*
X119400001Y-46299999D02*
X119325000Y-46375000D01*
X119400001Y-42004999D02*
X119400001Y-46299999D01*
X119335001Y-41939999D02*
X119400001Y-42004999D01*
X116560001Y-41939999D02*
X119335001Y-41939999D01*
X116050000Y-42450000D02*
X116560001Y-41939999D01*
X115350000Y-42450000D02*
X116050000Y-42450000D01*
X82500000Y-51500000D02*
X82000000Y-52000000D01*
X84750000Y-51500000D02*
X82500000Y-51500000D01*
D28*
G36*
X97165065Y-33902965D02*
G01*
X92519099Y-33902965D01*
X92584935Y-29887000D01*
X97230901Y-29887000D01*
X97165065Y-33902965D01*
G37*
X97165065Y-33902965D02*
X92519099Y-33902965D01*
X92584935Y-29887000D01*
X97230901Y-29887000D01*
X97165065Y-33902965D01*
G36*
X91173000Y-33783906D02*
G01*
X91124482Y-33769188D01*
X91000000Y-33756928D01*
X87821480Y-33756928D01*
X87828072Y-33690000D01*
X87828072Y-32890000D01*
X87815812Y-32765518D01*
X87779502Y-32645820D01*
X87720537Y-32535506D01*
X87641185Y-32438815D01*
X87607000Y-32410760D01*
X87607000Y-30717000D01*
X91173000Y-30717000D01*
X91173000Y-33783906D01*
G37*
X91173000Y-33783906D02*
X91124482Y-33769188D01*
X91000000Y-33756928D01*
X87821480Y-33756928D01*
X87828072Y-33690000D01*
X87828072Y-32890000D01*
X87815812Y-32765518D01*
X87779502Y-32645820D01*
X87720537Y-32535506D01*
X87641185Y-32438815D01*
X87607000Y-32410760D01*
X87607000Y-30717000D01*
X91173000Y-30717000D01*
X91173000Y-33783906D01*
G36*
X92235506Y-38225537D02*
G01*
X92345820Y-38284502D01*
X92465518Y-38320812D01*
X92590000Y-38333072D01*
X95768520Y-38333072D01*
X95761928Y-38400000D01*
X95761928Y-39200000D01*
X95774188Y-39324482D01*
X95810498Y-39444180D01*
X95869463Y-39554494D01*
X95948815Y-39651185D01*
X95973000Y-39671033D01*
X95973000Y-39993000D01*
X86540000Y-39993000D01*
X86540000Y-38177000D01*
X92176363Y-38177000D01*
X92235506Y-38225537D01*
G37*
X92235506Y-38225537D02*
X92345820Y-38284502D01*
X92465518Y-38320812D01*
X92590000Y-38333072D01*
X95768520Y-38333072D01*
X95761928Y-38400000D01*
X95761928Y-39200000D01*
X95774188Y-39324482D01*
X95810498Y-39444180D01*
X95869463Y-39554494D01*
X95948815Y-39651185D01*
X95973000Y-39671033D01*
X95973000Y-39993000D01*
X86540000Y-39993000D01*
X86540000Y-38177000D01*
X92176363Y-38177000D01*
X92235506Y-38225537D01*
G36*
X105520538Y-33772890D02*
G01*
X105460000Y-33766928D01*
X102281480Y-33766928D01*
X102288072Y-33700000D01*
X102288072Y-32900000D01*
X102275812Y-32775518D01*
X102239502Y-32655820D01*
X102180537Y-32545506D01*
X102101185Y-32448815D01*
X102004494Y-32369463D01*
X101940815Y-32335425D01*
X101928219Y-31017000D01*
X105494208Y-31017000D01*
X105520538Y-33772890D01*
G37*
X105520538Y-33772890D02*
X105460000Y-33766928D01*
X102281480Y-33766928D01*
X102288072Y-33700000D01*
X102288072Y-32900000D01*
X102275812Y-32775518D01*
X102239502Y-32655820D01*
X102180537Y-32545506D01*
X102101185Y-32448815D01*
X102004494Y-32369463D01*
X101940815Y-32335425D01*
X101928219Y-31017000D01*
X105494208Y-31017000D01*
X105520538Y-33772890D01*
G36*
X111633000Y-33902965D02*
G01*
X106987000Y-33902965D01*
X106987000Y-29847000D01*
X111633000Y-29847000D01*
X111633000Y-33902965D01*
G37*
X111633000Y-33902965D02*
X106987000Y-33902965D01*
X106987000Y-29847000D01*
X111633000Y-29847000D01*
X111633000Y-33902965D01*
G36*
X120011240Y-33754929D02*
G01*
X119930000Y-33746928D01*
X116751480Y-33746928D01*
X116758072Y-33680000D01*
X116758072Y-32880000D01*
X116745812Y-32755518D01*
X116709502Y-32635820D01*
X116650537Y-32525506D01*
X116571185Y-32428815D01*
X116474494Y-32349463D01*
X116436133Y-32328958D01*
X116427814Y-31027000D01*
X119993809Y-31027000D01*
X120011240Y-33754929D01*
G37*
X120011240Y-33754929D02*
X119930000Y-33746928D01*
X116751480Y-33746928D01*
X116758072Y-33680000D01*
X116758072Y-32880000D01*
X116745812Y-32755518D01*
X116709502Y-32635820D01*
X116650537Y-32525506D01*
X116571185Y-32428815D01*
X116474494Y-32349463D01*
X116436133Y-32328958D01*
X116427814Y-31027000D01*
X119993809Y-31027000D01*
X120011240Y-33754929D01*
G36*
X126227728Y-33902938D02*
G01*
X121581139Y-33902938D01*
X121581139Y-29866715D01*
X126246545Y-29857233D01*
X126227728Y-33902938D01*
G37*
X126227728Y-33902938D02*
X121581139Y-33902938D01*
X121581139Y-29866715D01*
X126246545Y-29857233D01*
X126227728Y-33902938D01*
G36*
X106705506Y-38225537D02*
G01*
X106815820Y-38284502D01*
X106935518Y-38320812D01*
X107060000Y-38333072D01*
X110238520Y-38333072D01*
X110231928Y-38400000D01*
X110231928Y-39200000D01*
X110244188Y-39324482D01*
X110280498Y-39444180D01*
X110339463Y-39554494D01*
X110418815Y-39651185D01*
X110433000Y-39662826D01*
X110433000Y-39993000D01*
X108510000Y-39993000D01*
X108485224Y-39995440D01*
X108461399Y-40002667D01*
X108439443Y-40014403D01*
X108420197Y-40030197D01*
X108404403Y-40049443D01*
X108392667Y-40071399D01*
X108385440Y-40095224D01*
X108383000Y-40120000D01*
X108383000Y-41272804D01*
X104979184Y-41267559D01*
X104917248Y-41234453D01*
X104773987Y-41190996D01*
X104662334Y-41179999D01*
X104662323Y-41179999D01*
X104625001Y-41176323D01*
X104587679Y-41179999D01*
X102147000Y-41179999D01*
X102147000Y-40120000D01*
X102144560Y-40095224D01*
X102137333Y-40071399D01*
X102125597Y-40049443D01*
X102109803Y-40030197D01*
X102090557Y-40014403D01*
X102068601Y-40002667D01*
X102044776Y-39995440D01*
X102020000Y-39993000D01*
X100960000Y-39993000D01*
X100960000Y-38177000D01*
X106646363Y-38177000D01*
X106705506Y-38225537D01*
G37*
X106705506Y-38225537D02*
X106815820Y-38284502D01*
X106935518Y-38320812D01*
X107060000Y-38333072D01*
X110238520Y-38333072D01*
X110231928Y-38400000D01*
X110231928Y-39200000D01*
X110244188Y-39324482D01*
X110280498Y-39444180D01*
X110339463Y-39554494D01*
X110418815Y-39651185D01*
X110433000Y-39662826D01*
X110433000Y-39993000D01*
X108510000Y-39993000D01*
X108485224Y-39995440D01*
X108461399Y-40002667D01*
X108439443Y-40014403D01*
X108420197Y-40030197D01*
X108404403Y-40049443D01*
X108392667Y-40071399D01*
X108385440Y-40095224D01*
X108383000Y-40120000D01*
X108383000Y-41272804D01*
X104979184Y-41267559D01*
X104917248Y-41234453D01*
X104773987Y-41190996D01*
X104662334Y-41179999D01*
X104662323Y-41179999D01*
X104625001Y-41176323D01*
X104587679Y-41179999D01*
X102147000Y-41179999D01*
X102147000Y-40120000D01*
X102144560Y-40095224D01*
X102137333Y-40071399D01*
X102125597Y-40049443D01*
X102109803Y-40030197D01*
X102090557Y-40014403D01*
X102068601Y-40002667D01*
X102044776Y-39995440D01*
X102020000Y-39993000D01*
X100960000Y-39993000D01*
X100960000Y-38177000D01*
X106646363Y-38177000D01*
X106705506Y-38225537D01*
G36*
X121165506Y-38225537D02*
G01*
X121275820Y-38284502D01*
X121395518Y-38320812D01*
X121520000Y-38333072D01*
X124698520Y-38333072D01*
X124691928Y-38400000D01*
X124691928Y-39200000D01*
X124704188Y-39324482D01*
X124740498Y-39444180D01*
X124799463Y-39554494D01*
X124878815Y-39651185D01*
X124903486Y-39671432D01*
X124903486Y-39993000D01*
X123030000Y-39993000D01*
X123005224Y-39995440D01*
X122981399Y-40002667D01*
X122959443Y-40014403D01*
X122940197Y-40030197D01*
X122924403Y-40049443D01*
X122912667Y-40071399D01*
X122905440Y-40095224D01*
X122903000Y-40120000D01*
X122903000Y-41282804D01*
X119708496Y-41277882D01*
X119627248Y-41234453D01*
X119483987Y-41190996D01*
X119372334Y-41179999D01*
X119372323Y-41179999D01*
X119335001Y-41176323D01*
X119297679Y-41179999D01*
X116667000Y-41179999D01*
X116667000Y-40120000D01*
X116664560Y-40095224D01*
X116657333Y-40071399D01*
X116645597Y-40049443D01*
X116629803Y-40030197D01*
X116610557Y-40014403D01*
X116588601Y-40002667D01*
X116564776Y-39995440D01*
X116540000Y-39993000D01*
X115410000Y-39993000D01*
X115410000Y-38177000D01*
X121106363Y-38177000D01*
X121165506Y-38225537D01*
G37*
X121165506Y-38225537D02*
X121275820Y-38284502D01*
X121395518Y-38320812D01*
X121520000Y-38333072D01*
X124698520Y-38333072D01*
X124691928Y-38400000D01*
X124691928Y-39200000D01*
X124704188Y-39324482D01*
X124740498Y-39444180D01*
X124799463Y-39554494D01*
X124878815Y-39651185D01*
X124903486Y-39671432D01*
X124903486Y-39993000D01*
X123030000Y-39993000D01*
X123005224Y-39995440D01*
X122981399Y-40002667D01*
X122959443Y-40014403D01*
X122940197Y-40030197D01*
X122924403Y-40049443D01*
X122912667Y-40071399D01*
X122905440Y-40095224D01*
X122903000Y-40120000D01*
X122903000Y-41282804D01*
X119708496Y-41277882D01*
X119627248Y-41234453D01*
X119483987Y-41190996D01*
X119372334Y-41179999D01*
X119372323Y-41179999D01*
X119335001Y-41176323D01*
X119297679Y-41179999D01*
X116667000Y-41179999D01*
X116667000Y-40120000D01*
X116664560Y-40095224D01*
X116657333Y-40071399D01*
X116645597Y-40049443D01*
X116629803Y-40030197D01*
X116610557Y-40014403D01*
X116588601Y-40002667D01*
X116564776Y-39995440D01*
X116540000Y-39993000D01*
X115410000Y-39993000D01*
X115410000Y-38177000D01*
X121106363Y-38177000D01*
X121165506Y-38225537D01*
G36*
X93983000Y-41282804D02*
G01*
X90618005Y-41277619D01*
X90537248Y-41234453D01*
X90393987Y-41190996D01*
X90282334Y-41179999D01*
X90282323Y-41179999D01*
X90245001Y-41176323D01*
X90207679Y-41179999D01*
X87747000Y-41179999D01*
X87747000Y-39787000D01*
X93983000Y-39787000D01*
X93983000Y-41282804D01*
G37*
X93983000Y-41282804D02*
X90618005Y-41277619D01*
X90537248Y-41234453D01*
X90393987Y-41190996D01*
X90282334Y-41179999D01*
X90282323Y-41179999D01*
X90245001Y-41176323D01*
X90207679Y-41179999D01*
X87747000Y-41179999D01*
X87747000Y-39787000D01*
X93983000Y-39787000D01*
X93983000Y-41282804D01*
G36*
X99203000Y-29703000D02*
G01*
X94477000Y-29703000D01*
X94477000Y-23660000D01*
X99203000Y-23660000D01*
X99203000Y-29703000D01*
G37*
X99203000Y-29703000D02*
X94477000Y-29703000D01*
X94477000Y-23660000D01*
X99203000Y-23660000D01*
X99203000Y-29703000D01*
G36*
X126243000Y-30063000D02*
G01*
X92527000Y-30063000D01*
X92527000Y-28076851D01*
X101478256Y-28066311D01*
X101931326Y-28253979D01*
X102440451Y-28355250D01*
X102959549Y-28355250D01*
X103468674Y-28253979D01*
X103928710Y-28063425D01*
X126243000Y-28037150D01*
X126243000Y-30063000D01*
G37*
X126243000Y-30063000D02*
X92527000Y-30063000D01*
X92527000Y-28076851D01*
X101478256Y-28066311D01*
X101931326Y-28253979D01*
X102440451Y-28355250D01*
X102959549Y-28355250D01*
X103468674Y-28253979D01*
X103928710Y-28063425D01*
X126243000Y-28037150D01*
X126243000Y-30063000D01*
G36*
X116890000Y-44819250D02*
G01*
X117048750Y-44978000D01*
X118173000Y-44978000D01*
X118173000Y-44958000D01*
X118427000Y-44958000D01*
X118427000Y-44978000D01*
X118447000Y-44978000D01*
X118447000Y-45232000D01*
X118427000Y-45232000D01*
X118427000Y-45252000D01*
X118173000Y-45252000D01*
X118173000Y-45232000D01*
X117048750Y-45232000D01*
X116890000Y-45390750D01*
X116886928Y-45405000D01*
X116899188Y-45529482D01*
X116935498Y-45649180D01*
X116984043Y-45740000D01*
X116935498Y-45830820D01*
X116899188Y-45950518D01*
X116886928Y-46075000D01*
X116886928Y-46675000D01*
X116899188Y-46799482D01*
X116935498Y-46919180D01*
X116994463Y-47029494D01*
X117073815Y-47126185D01*
X117170506Y-47205537D01*
X117280820Y-47264502D01*
X117367720Y-47290863D01*
X117295506Y-47329463D01*
X117198815Y-47408815D01*
X117119463Y-47505506D01*
X117060498Y-47615820D01*
X117024188Y-47735518D01*
X117011928Y-47860000D01*
X117011928Y-49360000D01*
X117024188Y-49484482D01*
X117060498Y-49604180D01*
X117119463Y-49714494D01*
X117198815Y-49811185D01*
X117235550Y-49841333D01*
X117145506Y-49889463D01*
X117048815Y-49968815D01*
X116969463Y-50065506D01*
X116910498Y-50175820D01*
X116874188Y-50295518D01*
X116861928Y-50420000D01*
X116861928Y-50920000D01*
X116874188Y-51044482D01*
X116910498Y-51164180D01*
X116969463Y-51274494D01*
X117048815Y-51371185D01*
X117108296Y-51420000D01*
X117107909Y-51420318D01*
X117101014Y-51420997D01*
X116957753Y-51464454D01*
X116825724Y-51535026D01*
X116709999Y-51629999D01*
X116686201Y-51658997D01*
X115289003Y-53056196D01*
X115259999Y-53079999D01*
X115226002Y-53121425D01*
X115165026Y-53195724D01*
X115106630Y-53304974D01*
X115094454Y-53327754D01*
X115050997Y-53471015D01*
X115040000Y-53582668D01*
X115040000Y-53582678D01*
X115036324Y-53620000D01*
X115040000Y-53657323D01*
X115040000Y-54196289D01*
X114996063Y-54240226D01*
X114882795Y-54409744D01*
X114804774Y-54598102D01*
X114765000Y-54798061D01*
X114765000Y-55001939D01*
X114804774Y-55201898D01*
X114882795Y-55390256D01*
X114996063Y-55559774D01*
X115140226Y-55703937D01*
X115309744Y-55817205D01*
X115498102Y-55895226D01*
X115698061Y-55935000D01*
X115901939Y-55935000D01*
X116101898Y-55895226D01*
X116290256Y-55817205D01*
X116459774Y-55703937D01*
X116603937Y-55559774D01*
X116717205Y-55390256D01*
X116795226Y-55201898D01*
X116835000Y-55001939D01*
X116835000Y-54798061D01*
X116795226Y-54598102D01*
X116717205Y-54409744D01*
X116603937Y-54240226D01*
X116560000Y-54196289D01*
X116560000Y-53934801D01*
X117442402Y-53052399D01*
X117500000Y-53058072D01*
X118400000Y-53058072D01*
X118524482Y-53045812D01*
X118644180Y-53009502D01*
X118710000Y-52974320D01*
X118775820Y-53009502D01*
X118895518Y-53045812D01*
X119020000Y-53058072D01*
X119483271Y-53058072D01*
X123352219Y-56927021D01*
X123173368Y-57046525D01*
X122966525Y-57253368D01*
X122850000Y-57427760D01*
X122733475Y-57253368D01*
X122526632Y-57046525D01*
X122283411Y-56884010D01*
X122013158Y-56772068D01*
X121726260Y-56715000D01*
X121433740Y-56715000D01*
X121146842Y-56772068D01*
X120876589Y-56884010D01*
X120633368Y-57046525D01*
X120426525Y-57253368D01*
X120310000Y-57427760D01*
X120193475Y-57253368D01*
X119986632Y-57046525D01*
X119743411Y-56884010D01*
X119473158Y-56772068D01*
X119186260Y-56715000D01*
X118893740Y-56715000D01*
X118606842Y-56772068D01*
X118336589Y-56884010D01*
X118093368Y-57046525D01*
X117961513Y-57178380D01*
X117939502Y-57105820D01*
X117880537Y-56995506D01*
X117801185Y-56898815D01*
X117704494Y-56819463D01*
X117594180Y-56760498D01*
X117474482Y-56724188D01*
X117350000Y-56711928D01*
X115650000Y-56711928D01*
X115525518Y-56724188D01*
X115405820Y-56760498D01*
X115295506Y-56819463D01*
X115198815Y-56898815D01*
X115119463Y-56995506D01*
X115060498Y-57105820D01*
X115024188Y-57225518D01*
X115011928Y-57350000D01*
X115011928Y-59050000D01*
X115024188Y-59174482D01*
X115060498Y-59294180D01*
X115084990Y-59340000D01*
X110960107Y-59340000D01*
X111153475Y-59146632D01*
X111315990Y-58903411D01*
X111427932Y-58633158D01*
X111485000Y-58346260D01*
X111485000Y-58053740D01*
X111427932Y-57766842D01*
X111315990Y-57496589D01*
X111153475Y-57253368D01*
X110946632Y-57046525D01*
X110760000Y-56921822D01*
X110760000Y-56611211D01*
X113051014Y-54320198D01*
X113080012Y-54296400D01*
X113106343Y-54264316D01*
X113174985Y-54180676D01*
X113245557Y-54048646D01*
X113246883Y-54044276D01*
X113289014Y-53905385D01*
X113300011Y-53793732D01*
X113300011Y-53793722D01*
X113303687Y-53756400D01*
X113300011Y-53719077D01*
X113300011Y-46950699D01*
X113368242Y-47030419D01*
X113466553Y-47107755D01*
X113578063Y-47164425D01*
X113698486Y-47198252D01*
X113823195Y-47207936D01*
X113974250Y-47205000D01*
X114133000Y-47046250D01*
X114133000Y-46443000D01*
X114387000Y-46443000D01*
X114387000Y-47046250D01*
X114545750Y-47205000D01*
X114696805Y-47207936D01*
X114821514Y-47198252D01*
X114941937Y-47164425D01*
X115030000Y-47119671D01*
X115118063Y-47164425D01*
X115238486Y-47198252D01*
X115363195Y-47207936D01*
X115514250Y-47205000D01*
X115673000Y-47046250D01*
X115673000Y-46443000D01*
X115927000Y-46443000D01*
X115927000Y-47046250D01*
X116085750Y-47205000D01*
X116236805Y-47207936D01*
X116361514Y-47198252D01*
X116481937Y-47164425D01*
X116593447Y-47107755D01*
X116691758Y-47030419D01*
X116773093Y-46935389D01*
X116834326Y-46826318D01*
X116873104Y-46707397D01*
X116885000Y-46601750D01*
X116726250Y-46443000D01*
X115927000Y-46443000D01*
X115673000Y-46443000D01*
X114387000Y-46443000D01*
X114133000Y-46443000D01*
X114113000Y-46443000D01*
X114113000Y-46197000D01*
X114133000Y-46197000D01*
X114133000Y-46173000D01*
X114387000Y-46173000D01*
X114387000Y-46197000D01*
X115673000Y-46197000D01*
X115673000Y-46173000D01*
X115927000Y-46173000D01*
X115927000Y-46197000D01*
X116726250Y-46197000D01*
X116885000Y-46038250D01*
X116873104Y-45932603D01*
X116834326Y-45813682D01*
X116773093Y-45704611D01*
X116691758Y-45609581D01*
X116641575Y-45570105D01*
X116701185Y-45521185D01*
X116780537Y-45424494D01*
X116839502Y-45314180D01*
X116875812Y-45194482D01*
X116888072Y-45070000D01*
X116888072Y-44810307D01*
X116890000Y-44819250D01*
G37*
X116890000Y-44819250D02*
X117048750Y-44978000D01*
X118173000Y-44978000D01*
X118173000Y-44958000D01*
X118427000Y-44958000D01*
X118427000Y-44978000D01*
X118447000Y-44978000D01*
X118447000Y-45232000D01*
X118427000Y-45232000D01*
X118427000Y-45252000D01*
X118173000Y-45252000D01*
X118173000Y-45232000D01*
X117048750Y-45232000D01*
X116890000Y-45390750D01*
X116886928Y-45405000D01*
X116899188Y-45529482D01*
X116935498Y-45649180D01*
X116984043Y-45740000D01*
X116935498Y-45830820D01*
X116899188Y-45950518D01*
X116886928Y-46075000D01*
X116886928Y-46675000D01*
X116899188Y-46799482D01*
X116935498Y-46919180D01*
X116994463Y-47029494D01*
X117073815Y-47126185D01*
X117170506Y-47205537D01*
X117280820Y-47264502D01*
X117367720Y-47290863D01*
X117295506Y-47329463D01*
X117198815Y-47408815D01*
X117119463Y-47505506D01*
X117060498Y-47615820D01*
X117024188Y-47735518D01*
X117011928Y-47860000D01*
X117011928Y-49360000D01*
X117024188Y-49484482D01*
X117060498Y-49604180D01*
X117119463Y-49714494D01*
X117198815Y-49811185D01*
X117235550Y-49841333D01*
X117145506Y-49889463D01*
X117048815Y-49968815D01*
X116969463Y-50065506D01*
X116910498Y-50175820D01*
X116874188Y-50295518D01*
X116861928Y-50420000D01*
X116861928Y-50920000D01*
X116874188Y-51044482D01*
X116910498Y-51164180D01*
X116969463Y-51274494D01*
X117048815Y-51371185D01*
X117108296Y-51420000D01*
X117107909Y-51420318D01*
X117101014Y-51420997D01*
X116957753Y-51464454D01*
X116825724Y-51535026D01*
X116709999Y-51629999D01*
X116686201Y-51658997D01*
X115289003Y-53056196D01*
X115259999Y-53079999D01*
X115226002Y-53121425D01*
X115165026Y-53195724D01*
X115106630Y-53304974D01*
X115094454Y-53327754D01*
X115050997Y-53471015D01*
X115040000Y-53582668D01*
X115040000Y-53582678D01*
X115036324Y-53620000D01*
X115040000Y-53657323D01*
X115040000Y-54196289D01*
X114996063Y-54240226D01*
X114882795Y-54409744D01*
X114804774Y-54598102D01*
X114765000Y-54798061D01*
X114765000Y-55001939D01*
X114804774Y-55201898D01*
X114882795Y-55390256D01*
X114996063Y-55559774D01*
X115140226Y-55703937D01*
X115309744Y-55817205D01*
X115498102Y-55895226D01*
X115698061Y-55935000D01*
X115901939Y-55935000D01*
X116101898Y-55895226D01*
X116290256Y-55817205D01*
X116459774Y-55703937D01*
X116603937Y-55559774D01*
X116717205Y-55390256D01*
X116795226Y-55201898D01*
X116835000Y-55001939D01*
X116835000Y-54798061D01*
X116795226Y-54598102D01*
X116717205Y-54409744D01*
X116603937Y-54240226D01*
X116560000Y-54196289D01*
X116560000Y-53934801D01*
X117442402Y-53052399D01*
X117500000Y-53058072D01*
X118400000Y-53058072D01*
X118524482Y-53045812D01*
X118644180Y-53009502D01*
X118710000Y-52974320D01*
X118775820Y-53009502D01*
X118895518Y-53045812D01*
X119020000Y-53058072D01*
X119483271Y-53058072D01*
X123352219Y-56927021D01*
X123173368Y-57046525D01*
X122966525Y-57253368D01*
X122850000Y-57427760D01*
X122733475Y-57253368D01*
X122526632Y-57046525D01*
X122283411Y-56884010D01*
X122013158Y-56772068D01*
X121726260Y-56715000D01*
X121433740Y-56715000D01*
X121146842Y-56772068D01*
X120876589Y-56884010D01*
X120633368Y-57046525D01*
X120426525Y-57253368D01*
X120310000Y-57427760D01*
X120193475Y-57253368D01*
X119986632Y-57046525D01*
X119743411Y-56884010D01*
X119473158Y-56772068D01*
X119186260Y-56715000D01*
X118893740Y-56715000D01*
X118606842Y-56772068D01*
X118336589Y-56884010D01*
X118093368Y-57046525D01*
X117961513Y-57178380D01*
X117939502Y-57105820D01*
X117880537Y-56995506D01*
X117801185Y-56898815D01*
X117704494Y-56819463D01*
X117594180Y-56760498D01*
X117474482Y-56724188D01*
X117350000Y-56711928D01*
X115650000Y-56711928D01*
X115525518Y-56724188D01*
X115405820Y-56760498D01*
X115295506Y-56819463D01*
X115198815Y-56898815D01*
X115119463Y-56995506D01*
X115060498Y-57105820D01*
X115024188Y-57225518D01*
X115011928Y-57350000D01*
X115011928Y-59050000D01*
X115024188Y-59174482D01*
X115060498Y-59294180D01*
X115084990Y-59340000D01*
X110960107Y-59340000D01*
X111153475Y-59146632D01*
X111315990Y-58903411D01*
X111427932Y-58633158D01*
X111485000Y-58346260D01*
X111485000Y-58053740D01*
X111427932Y-57766842D01*
X111315990Y-57496589D01*
X111153475Y-57253368D01*
X110946632Y-57046525D01*
X110760000Y-56921822D01*
X110760000Y-56611211D01*
X113051014Y-54320198D01*
X113080012Y-54296400D01*
X113106343Y-54264316D01*
X113174985Y-54180676D01*
X113245557Y-54048646D01*
X113246883Y-54044276D01*
X113289014Y-53905385D01*
X113300011Y-53793732D01*
X113300011Y-53793722D01*
X113303687Y-53756400D01*
X113300011Y-53719077D01*
X113300011Y-46950699D01*
X113368242Y-47030419D01*
X113466553Y-47107755D01*
X113578063Y-47164425D01*
X113698486Y-47198252D01*
X113823195Y-47207936D01*
X113974250Y-47205000D01*
X114133000Y-47046250D01*
X114133000Y-46443000D01*
X114387000Y-46443000D01*
X114387000Y-47046250D01*
X114545750Y-47205000D01*
X114696805Y-47207936D01*
X114821514Y-47198252D01*
X114941937Y-47164425D01*
X115030000Y-47119671D01*
X115118063Y-47164425D01*
X115238486Y-47198252D01*
X115363195Y-47207936D01*
X115514250Y-47205000D01*
X115673000Y-47046250D01*
X115673000Y-46443000D01*
X115927000Y-46443000D01*
X115927000Y-47046250D01*
X116085750Y-47205000D01*
X116236805Y-47207936D01*
X116361514Y-47198252D01*
X116481937Y-47164425D01*
X116593447Y-47107755D01*
X116691758Y-47030419D01*
X116773093Y-46935389D01*
X116834326Y-46826318D01*
X116873104Y-46707397D01*
X116885000Y-46601750D01*
X116726250Y-46443000D01*
X115927000Y-46443000D01*
X115673000Y-46443000D01*
X114387000Y-46443000D01*
X114133000Y-46443000D01*
X114113000Y-46443000D01*
X114113000Y-46197000D01*
X114133000Y-46197000D01*
X114133000Y-46173000D01*
X114387000Y-46173000D01*
X114387000Y-46197000D01*
X115673000Y-46197000D01*
X115673000Y-46173000D01*
X115927000Y-46173000D01*
X115927000Y-46197000D01*
X116726250Y-46197000D01*
X116885000Y-46038250D01*
X116873104Y-45932603D01*
X116834326Y-45813682D01*
X116773093Y-45704611D01*
X116691758Y-45609581D01*
X116641575Y-45570105D01*
X116701185Y-45521185D01*
X116780537Y-45424494D01*
X116839502Y-45314180D01*
X116875812Y-45194482D01*
X116888072Y-45070000D01*
X116888072Y-44810307D01*
X116890000Y-44819250D01*
G36*
X127340000Y-51767101D02*
G01*
X127140349Y-51567450D01*
X126749721Y-51306440D01*
X126315679Y-51126654D01*
X125854902Y-51035000D01*
X125385098Y-51035000D01*
X124924321Y-51126654D01*
X124490279Y-51306440D01*
X124099651Y-51567450D01*
X123767450Y-51899651D01*
X123506440Y-52290279D01*
X123450231Y-52425981D01*
X123321250Y-52297000D01*
X122597000Y-52297000D01*
X122597000Y-53046250D01*
X122755750Y-53205000D01*
X122845000Y-53208072D01*
X122969482Y-53195812D01*
X123089180Y-53159502D01*
X123199494Y-53100537D01*
X123262028Y-53049216D01*
X123235000Y-53185098D01*
X123235000Y-53654902D01*
X123326654Y-54115679D01*
X123506440Y-54549721D01*
X123767450Y-54940349D01*
X124099651Y-55272550D01*
X124490279Y-55533560D01*
X124924321Y-55713346D01*
X125385098Y-55805000D01*
X125854902Y-55805000D01*
X126315679Y-55713346D01*
X126749721Y-55533560D01*
X127140349Y-55272550D01*
X127340000Y-55072899D01*
X127340000Y-59340000D01*
X125080107Y-59340000D01*
X125273475Y-59146632D01*
X125435990Y-58903411D01*
X125547932Y-58633158D01*
X125605000Y-58346260D01*
X125605000Y-58053740D01*
X125547932Y-57766842D01*
X125435990Y-57496589D01*
X125273475Y-57253368D01*
X125066632Y-57046525D01*
X124880000Y-56921822D01*
X124880000Y-56657322D01*
X124883676Y-56619999D01*
X124880000Y-56582676D01*
X124880000Y-56582667D01*
X124869003Y-56471014D01*
X124825546Y-56327753D01*
X124754974Y-56195724D01*
X124660001Y-56079999D01*
X124631003Y-56056201D01*
X121609558Y-53034756D01*
X121647399Y-53024127D01*
X121740506Y-53100537D01*
X121850820Y-53159502D01*
X121970518Y-53195812D01*
X122095000Y-53208072D01*
X122184250Y-53205000D01*
X122343000Y-53046250D01*
X122343000Y-52297000D01*
X121930250Y-52297000D01*
X121926250Y-52293000D01*
X121127000Y-52293000D01*
X121127000Y-52317000D01*
X120891801Y-52317000D01*
X120873000Y-52298199D01*
X120873000Y-52293000D01*
X120867801Y-52293000D01*
X120853000Y-52278199D01*
X120853000Y-52047000D01*
X120873000Y-52047000D01*
X120873000Y-52023000D01*
X121127000Y-52023000D01*
X121127000Y-52047000D01*
X121926250Y-52047000D01*
X121930250Y-52043000D01*
X122343000Y-52043000D01*
X122343000Y-52023000D01*
X122597000Y-52023000D01*
X122597000Y-52043000D01*
X123321250Y-52043000D01*
X123480000Y-51884250D01*
X123483072Y-51770000D01*
X123470812Y-51645518D01*
X123434502Y-51525820D01*
X123377939Y-51420000D01*
X123434502Y-51314180D01*
X123470812Y-51194482D01*
X123483072Y-51070000D01*
X123483072Y-50270000D01*
X123470812Y-50145518D01*
X123434502Y-50025820D01*
X123419670Y-49998072D01*
X123737945Y-49998072D01*
X123741014Y-49999003D01*
X123852667Y-50010000D01*
X123852675Y-50010000D01*
X123890000Y-50013676D01*
X123927325Y-50010000D01*
X125724556Y-50010000D01*
X125810506Y-50080537D01*
X125920820Y-50139502D01*
X126040518Y-50175812D01*
X126165000Y-50188072D01*
X126615000Y-50188072D01*
X126739482Y-50175812D01*
X126859180Y-50139502D01*
X126969494Y-50080537D01*
X127066185Y-50001185D01*
X127145537Y-49904494D01*
X127204502Y-49794180D01*
X127240812Y-49674482D01*
X127253072Y-49550000D01*
X127253072Y-48950000D01*
X127240812Y-48825518D01*
X127204502Y-48705820D01*
X127145537Y-48595506D01*
X127066185Y-48498815D01*
X126969494Y-48419463D01*
X126859180Y-48360498D01*
X126739482Y-48324188D01*
X126615000Y-48311928D01*
X126165000Y-48311928D01*
X126040518Y-48324188D01*
X125920820Y-48360498D01*
X125810506Y-48419463D01*
X125724556Y-48490000D01*
X125488072Y-48490000D01*
X125488072Y-47910000D01*
X125724556Y-47910000D01*
X125810506Y-47980537D01*
X125920820Y-48039502D01*
X126040518Y-48075812D01*
X126165000Y-48088072D01*
X126615000Y-48088072D01*
X126739482Y-48075812D01*
X126859180Y-48039502D01*
X126969494Y-47980537D01*
X127066185Y-47901185D01*
X127145537Y-47804494D01*
X127204502Y-47694180D01*
X127240812Y-47574482D01*
X127253072Y-47450000D01*
X127253072Y-46850000D01*
X127240812Y-46725518D01*
X127204502Y-46605820D01*
X127145537Y-46495506D01*
X127066185Y-46398815D01*
X126969494Y-46319463D01*
X126859180Y-46260498D01*
X126739482Y-46224188D01*
X126615000Y-46211928D01*
X126165000Y-46211928D01*
X126040518Y-46224188D01*
X125920820Y-46260498D01*
X125906820Y-46267981D01*
X127340000Y-44834802D01*
X127340000Y-51767101D01*
G37*
X127340000Y-51767101D02*
X127140349Y-51567450D01*
X126749721Y-51306440D01*
X126315679Y-51126654D01*
X125854902Y-51035000D01*
X125385098Y-51035000D01*
X124924321Y-51126654D01*
X124490279Y-51306440D01*
X124099651Y-51567450D01*
X123767450Y-51899651D01*
X123506440Y-52290279D01*
X123450231Y-52425981D01*
X123321250Y-52297000D01*
X122597000Y-52297000D01*
X122597000Y-53046250D01*
X122755750Y-53205000D01*
X122845000Y-53208072D01*
X122969482Y-53195812D01*
X123089180Y-53159502D01*
X123199494Y-53100537D01*
X123262028Y-53049216D01*
X123235000Y-53185098D01*
X123235000Y-53654902D01*
X123326654Y-54115679D01*
X123506440Y-54549721D01*
X123767450Y-54940349D01*
X124099651Y-55272550D01*
X124490279Y-55533560D01*
X124924321Y-55713346D01*
X125385098Y-55805000D01*
X125854902Y-55805000D01*
X126315679Y-55713346D01*
X126749721Y-55533560D01*
X127140349Y-55272550D01*
X127340000Y-55072899D01*
X127340000Y-59340000D01*
X125080107Y-59340000D01*
X125273475Y-59146632D01*
X125435990Y-58903411D01*
X125547932Y-58633158D01*
X125605000Y-58346260D01*
X125605000Y-58053740D01*
X125547932Y-57766842D01*
X125435990Y-57496589D01*
X125273475Y-57253368D01*
X125066632Y-57046525D01*
X124880000Y-56921822D01*
X124880000Y-56657322D01*
X124883676Y-56619999D01*
X124880000Y-56582676D01*
X124880000Y-56582667D01*
X124869003Y-56471014D01*
X124825546Y-56327753D01*
X124754974Y-56195724D01*
X124660001Y-56079999D01*
X124631003Y-56056201D01*
X121609558Y-53034756D01*
X121647399Y-53024127D01*
X121740506Y-53100537D01*
X121850820Y-53159502D01*
X121970518Y-53195812D01*
X122095000Y-53208072D01*
X122184250Y-53205000D01*
X122343000Y-53046250D01*
X122343000Y-52297000D01*
X121930250Y-52297000D01*
X121926250Y-52293000D01*
X121127000Y-52293000D01*
X121127000Y-52317000D01*
X120891801Y-52317000D01*
X120873000Y-52298199D01*
X120873000Y-52293000D01*
X120867801Y-52293000D01*
X120853000Y-52278199D01*
X120853000Y-52047000D01*
X120873000Y-52047000D01*
X120873000Y-52023000D01*
X121127000Y-52023000D01*
X121127000Y-52047000D01*
X121926250Y-52047000D01*
X121930250Y-52043000D01*
X122343000Y-52043000D01*
X122343000Y-52023000D01*
X122597000Y-52023000D01*
X122597000Y-52043000D01*
X123321250Y-52043000D01*
X123480000Y-51884250D01*
X123483072Y-51770000D01*
X123470812Y-51645518D01*
X123434502Y-51525820D01*
X123377939Y-51420000D01*
X123434502Y-51314180D01*
X123470812Y-51194482D01*
X123483072Y-51070000D01*
X123483072Y-50270000D01*
X123470812Y-50145518D01*
X123434502Y-50025820D01*
X123419670Y-49998072D01*
X123737945Y-49998072D01*
X123741014Y-49999003D01*
X123852667Y-50010000D01*
X123852675Y-50010000D01*
X123890000Y-50013676D01*
X123927325Y-50010000D01*
X125724556Y-50010000D01*
X125810506Y-50080537D01*
X125920820Y-50139502D01*
X126040518Y-50175812D01*
X126165000Y-50188072D01*
X126615000Y-50188072D01*
X126739482Y-50175812D01*
X126859180Y-50139502D01*
X126969494Y-50080537D01*
X127066185Y-50001185D01*
X127145537Y-49904494D01*
X127204502Y-49794180D01*
X127240812Y-49674482D01*
X127253072Y-49550000D01*
X127253072Y-48950000D01*
X127240812Y-48825518D01*
X127204502Y-48705820D01*
X127145537Y-48595506D01*
X127066185Y-48498815D01*
X126969494Y-48419463D01*
X126859180Y-48360498D01*
X126739482Y-48324188D01*
X126615000Y-48311928D01*
X126165000Y-48311928D01*
X126040518Y-48324188D01*
X125920820Y-48360498D01*
X125810506Y-48419463D01*
X125724556Y-48490000D01*
X125488072Y-48490000D01*
X125488072Y-47910000D01*
X125724556Y-47910000D01*
X125810506Y-47980537D01*
X125920820Y-48039502D01*
X126040518Y-48075812D01*
X126165000Y-48088072D01*
X126615000Y-48088072D01*
X126739482Y-48075812D01*
X126859180Y-48039502D01*
X126969494Y-47980537D01*
X127066185Y-47901185D01*
X127145537Y-47804494D01*
X127204502Y-47694180D01*
X127240812Y-47574482D01*
X127253072Y-47450000D01*
X127253072Y-46850000D01*
X127240812Y-46725518D01*
X127204502Y-46605820D01*
X127145537Y-46495506D01*
X127066185Y-46398815D01*
X126969494Y-46319463D01*
X126859180Y-46260498D01*
X126739482Y-46224188D01*
X126615000Y-46211928D01*
X126165000Y-46211928D01*
X126040518Y-46224188D01*
X125920820Y-46260498D01*
X125906820Y-46267981D01*
X127340000Y-44834802D01*
X127340000Y-51767101D01*
G36*
X83953698Y-52275000D02*
G01*
X83910498Y-52355820D01*
X83874188Y-52475518D01*
X83861928Y-52600000D01*
X83861928Y-53400000D01*
X83874188Y-53524482D01*
X83910498Y-53644180D01*
X83969463Y-53754494D01*
X84048815Y-53851185D01*
X84145506Y-53930537D01*
X84255820Y-53989502D01*
X84375518Y-54025812D01*
X84500000Y-54038072D01*
X85300000Y-54038072D01*
X85424482Y-54025812D01*
X85544180Y-53989502D01*
X85654494Y-53930537D01*
X85700000Y-53893191D01*
X85745506Y-53930537D01*
X85855820Y-53989502D01*
X85975518Y-54025812D01*
X86100000Y-54038072D01*
X86214250Y-54035000D01*
X86373000Y-53876250D01*
X86373000Y-53127000D01*
X86353000Y-53127000D01*
X86353000Y-52873000D01*
X86373000Y-52873000D01*
X86373000Y-52853000D01*
X86627000Y-52853000D01*
X86627000Y-52873000D01*
X86647000Y-52873000D01*
X86647000Y-53127000D01*
X86627000Y-53127000D01*
X86627000Y-53876250D01*
X86785750Y-54035000D01*
X86900000Y-54038072D01*
X87024482Y-54025812D01*
X87144180Y-53989502D01*
X87254494Y-53930537D01*
X87351185Y-53851185D01*
X87370922Y-53827135D01*
X89004798Y-55461012D01*
X89028597Y-55490011D01*
X89057595Y-55513809D01*
X89144321Y-55584984D01*
X89182790Y-55605546D01*
X89276351Y-55655556D01*
X89419612Y-55699013D01*
X89531265Y-55710010D01*
X89531274Y-55710010D01*
X89568597Y-55713686D01*
X89605920Y-55710010D01*
X95835209Y-55710010D01*
X96540000Y-56414803D01*
X96540000Y-56711928D01*
X96450000Y-56711928D01*
X96325518Y-56724188D01*
X96205820Y-56760498D01*
X96095506Y-56819463D01*
X95998815Y-56898815D01*
X95919463Y-56995506D01*
X95860498Y-57105820D01*
X95824188Y-57225518D01*
X95811928Y-57350000D01*
X95811928Y-59050000D01*
X95824188Y-59174482D01*
X95860498Y-59294180D01*
X95884990Y-59340000D01*
X89582899Y-59340000D01*
X89672550Y-59250349D01*
X89933560Y-58859721D01*
X90113346Y-58425679D01*
X90205000Y-57964902D01*
X90205000Y-57495098D01*
X90113346Y-57034321D01*
X89933560Y-56600279D01*
X89672550Y-56209651D01*
X89340349Y-55877450D01*
X88949721Y-55616440D01*
X88515679Y-55436654D01*
X88054902Y-55345000D01*
X87585098Y-55345000D01*
X87124321Y-55436654D01*
X86690279Y-55616440D01*
X86299651Y-55877450D01*
X85967450Y-56209651D01*
X85706440Y-56600279D01*
X85526654Y-57034321D01*
X85435000Y-57495098D01*
X85435000Y-57964902D01*
X85526654Y-58425679D01*
X85706440Y-58859721D01*
X85967450Y-59250349D01*
X86057101Y-59340000D01*
X80660000Y-59340000D01*
X80660000Y-55163402D01*
X80728359Y-55306920D01*
X80902412Y-55540269D01*
X81118645Y-55735178D01*
X81368748Y-55884157D01*
X81643109Y-55981481D01*
X81873000Y-55860814D01*
X81873000Y-54667000D01*
X82127000Y-54667000D01*
X82127000Y-55860814D01*
X82356891Y-55981481D01*
X82631252Y-55884157D01*
X82881355Y-55735178D01*
X83097588Y-55540269D01*
X83271641Y-55306920D01*
X83396825Y-55044099D01*
X83441476Y-54896890D01*
X83320155Y-54667000D01*
X82127000Y-54667000D01*
X81873000Y-54667000D01*
X81853000Y-54667000D01*
X81853000Y-54413000D01*
X81873000Y-54413000D01*
X81873000Y-54393000D01*
X82127000Y-54393000D01*
X82127000Y-54413000D01*
X83320155Y-54413000D01*
X83441476Y-54183110D01*
X83396825Y-54035901D01*
X83271641Y-53773080D01*
X83097588Y-53539731D01*
X83013534Y-53463966D01*
X83094180Y-53439502D01*
X83204494Y-53380537D01*
X83301185Y-53301185D01*
X83380537Y-53204494D01*
X83439502Y-53094180D01*
X83475812Y-52974482D01*
X83488072Y-52850000D01*
X83488072Y-52260000D01*
X83945680Y-52260000D01*
X83953698Y-52275000D01*
G37*
X83953698Y-52275000D02*
X83910498Y-52355820D01*
X83874188Y-52475518D01*
X83861928Y-52600000D01*
X83861928Y-53400000D01*
X83874188Y-53524482D01*
X83910498Y-53644180D01*
X83969463Y-53754494D01*
X84048815Y-53851185D01*
X84145506Y-53930537D01*
X84255820Y-53989502D01*
X84375518Y-54025812D01*
X84500000Y-54038072D01*
X85300000Y-54038072D01*
X85424482Y-54025812D01*
X85544180Y-53989502D01*
X85654494Y-53930537D01*
X85700000Y-53893191D01*
X85745506Y-53930537D01*
X85855820Y-53989502D01*
X85975518Y-54025812D01*
X86100000Y-54038072D01*
X86214250Y-54035000D01*
X86373000Y-53876250D01*
X86373000Y-53127000D01*
X86353000Y-53127000D01*
X86353000Y-52873000D01*
X86373000Y-52873000D01*
X86373000Y-52853000D01*
X86627000Y-52853000D01*
X86627000Y-52873000D01*
X86647000Y-52873000D01*
X86647000Y-53127000D01*
X86627000Y-53127000D01*
X86627000Y-53876250D01*
X86785750Y-54035000D01*
X86900000Y-54038072D01*
X87024482Y-54025812D01*
X87144180Y-53989502D01*
X87254494Y-53930537D01*
X87351185Y-53851185D01*
X87370922Y-53827135D01*
X89004798Y-55461012D01*
X89028597Y-55490011D01*
X89057595Y-55513809D01*
X89144321Y-55584984D01*
X89182790Y-55605546D01*
X89276351Y-55655556D01*
X89419612Y-55699013D01*
X89531265Y-55710010D01*
X89531274Y-55710010D01*
X89568597Y-55713686D01*
X89605920Y-55710010D01*
X95835209Y-55710010D01*
X96540000Y-56414803D01*
X96540000Y-56711928D01*
X96450000Y-56711928D01*
X96325518Y-56724188D01*
X96205820Y-56760498D01*
X96095506Y-56819463D01*
X95998815Y-56898815D01*
X95919463Y-56995506D01*
X95860498Y-57105820D01*
X95824188Y-57225518D01*
X95811928Y-57350000D01*
X95811928Y-59050000D01*
X95824188Y-59174482D01*
X95860498Y-59294180D01*
X95884990Y-59340000D01*
X89582899Y-59340000D01*
X89672550Y-59250349D01*
X89933560Y-58859721D01*
X90113346Y-58425679D01*
X90205000Y-57964902D01*
X90205000Y-57495098D01*
X90113346Y-57034321D01*
X89933560Y-56600279D01*
X89672550Y-56209651D01*
X89340349Y-55877450D01*
X88949721Y-55616440D01*
X88515679Y-55436654D01*
X88054902Y-55345000D01*
X87585098Y-55345000D01*
X87124321Y-55436654D01*
X86690279Y-55616440D01*
X86299651Y-55877450D01*
X85967450Y-56209651D01*
X85706440Y-56600279D01*
X85526654Y-57034321D01*
X85435000Y-57495098D01*
X85435000Y-57964902D01*
X85526654Y-58425679D01*
X85706440Y-58859721D01*
X85967450Y-59250349D01*
X86057101Y-59340000D01*
X80660000Y-59340000D01*
X80660000Y-55163402D01*
X80728359Y-55306920D01*
X80902412Y-55540269D01*
X81118645Y-55735178D01*
X81368748Y-55884157D01*
X81643109Y-55981481D01*
X81873000Y-55860814D01*
X81873000Y-54667000D01*
X82127000Y-54667000D01*
X82127000Y-55860814D01*
X82356891Y-55981481D01*
X82631252Y-55884157D01*
X82881355Y-55735178D01*
X83097588Y-55540269D01*
X83271641Y-55306920D01*
X83396825Y-55044099D01*
X83441476Y-54896890D01*
X83320155Y-54667000D01*
X82127000Y-54667000D01*
X81873000Y-54667000D01*
X81853000Y-54667000D01*
X81853000Y-54413000D01*
X81873000Y-54413000D01*
X81873000Y-54393000D01*
X82127000Y-54393000D01*
X82127000Y-54413000D01*
X83320155Y-54413000D01*
X83441476Y-54183110D01*
X83396825Y-54035901D01*
X83271641Y-53773080D01*
X83097588Y-53539731D01*
X83013534Y-53463966D01*
X83094180Y-53439502D01*
X83204494Y-53380537D01*
X83301185Y-53301185D01*
X83380537Y-53204494D01*
X83439502Y-53094180D01*
X83475812Y-52974482D01*
X83488072Y-52850000D01*
X83488072Y-52260000D01*
X83945680Y-52260000D01*
X83953698Y-52275000D01*
G36*
X108957014Y-50039003D02*
G01*
X109068667Y-50050000D01*
X109068676Y-50050000D01*
X109105999Y-50053676D01*
X109143322Y-50050000D01*
X110874556Y-50050000D01*
X110960506Y-50120537D01*
X111070820Y-50179502D01*
X111190518Y-50215812D01*
X111315000Y-50228072D01*
X111330002Y-50228072D01*
X111330002Y-53255196D01*
X107826408Y-56758791D01*
X107606260Y-56715000D01*
X107313740Y-56715000D01*
X107026842Y-56772068D01*
X106756589Y-56884010D01*
X106513368Y-57046525D01*
X106306525Y-57253368D01*
X106190000Y-57427760D01*
X106073475Y-57253368D01*
X105866632Y-57046525D01*
X105680000Y-56921822D01*
X105680000Y-55757322D01*
X105683676Y-55719999D01*
X105680000Y-55682676D01*
X105680000Y-55682667D01*
X105669003Y-55571014D01*
X105625546Y-55427753D01*
X105589331Y-55360000D01*
X107396289Y-55360000D01*
X107440226Y-55403937D01*
X107609744Y-55517205D01*
X107798102Y-55595226D01*
X107998061Y-55635000D01*
X108201939Y-55635000D01*
X108401898Y-55595226D01*
X108590256Y-55517205D01*
X108759774Y-55403937D01*
X108903937Y-55259774D01*
X109017205Y-55090256D01*
X109095226Y-54901898D01*
X109135000Y-54701939D01*
X109135000Y-54498061D01*
X109095226Y-54298102D01*
X109017205Y-54109744D01*
X108903937Y-53940226D01*
X108759774Y-53796063D01*
X108590256Y-53682795D01*
X108401898Y-53604774D01*
X108201939Y-53565000D01*
X107998061Y-53565000D01*
X107798102Y-53604774D01*
X107609744Y-53682795D01*
X107440226Y-53796063D01*
X107396289Y-53840000D01*
X105368802Y-53840000D01*
X104586873Y-53058072D01*
X105090000Y-53058072D01*
X105214482Y-53045812D01*
X105334180Y-53009502D01*
X105399585Y-52974542D01*
X105478063Y-53014425D01*
X105598486Y-53048252D01*
X105723195Y-53057936D01*
X105874250Y-53055000D01*
X106033000Y-52896250D01*
X106033000Y-52293000D01*
X106287000Y-52293000D01*
X106287000Y-52896250D01*
X106445750Y-53055000D01*
X106596805Y-53057936D01*
X106721514Y-53048252D01*
X106799949Y-53026219D01*
X106890506Y-53100537D01*
X107000820Y-53159502D01*
X107120518Y-53195812D01*
X107245000Y-53208072D01*
X107334250Y-53205000D01*
X107493000Y-53046250D01*
X107493000Y-52297000D01*
X107747000Y-52297000D01*
X107747000Y-53046250D01*
X107905750Y-53205000D01*
X107995000Y-53208072D01*
X108119482Y-53195812D01*
X108239180Y-53159502D01*
X108349494Y-53100537D01*
X108446185Y-53021185D01*
X108525537Y-52924494D01*
X108584502Y-52814180D01*
X108620812Y-52694482D01*
X108633072Y-52570000D01*
X108630000Y-52455750D01*
X108471250Y-52297000D01*
X107747000Y-52297000D01*
X107493000Y-52297000D01*
X107090250Y-52297000D01*
X107086250Y-52293000D01*
X106287000Y-52293000D01*
X106033000Y-52293000D01*
X106013000Y-52293000D01*
X106013000Y-52047000D01*
X106033000Y-52047000D01*
X106033000Y-52023000D01*
X106287000Y-52023000D01*
X106287000Y-52047000D01*
X107086250Y-52047000D01*
X107090250Y-52043000D01*
X107493000Y-52043000D01*
X107493000Y-52023000D01*
X107747000Y-52023000D01*
X107747000Y-52043000D01*
X108471250Y-52043000D01*
X108507224Y-52007026D01*
X108873777Y-52373579D01*
X108782795Y-52509744D01*
X108704774Y-52698102D01*
X108665000Y-52898061D01*
X108665000Y-53101939D01*
X108704774Y-53301898D01*
X108782795Y-53490256D01*
X108896063Y-53659774D01*
X109040226Y-53803937D01*
X109209744Y-53917205D01*
X109398102Y-53995226D01*
X109598061Y-54035000D01*
X109801939Y-54035000D01*
X110001898Y-53995226D01*
X110190256Y-53917205D01*
X110359774Y-53803937D01*
X110503937Y-53659774D01*
X110617205Y-53490256D01*
X110695226Y-53301898D01*
X110735000Y-53101939D01*
X110735000Y-52898061D01*
X110695226Y-52698102D01*
X110617205Y-52509744D01*
X110503937Y-52340226D01*
X110460000Y-52296289D01*
X110460000Y-52162325D01*
X110463676Y-52125000D01*
X110460000Y-52087675D01*
X110460000Y-52087667D01*
X110449003Y-51976014D01*
X110405546Y-51832753D01*
X110334974Y-51700724D01*
X110240001Y-51584999D01*
X110211004Y-51561202D01*
X108808804Y-50159003D01*
X108785001Y-50129999D01*
X108669276Y-50035026D01*
X108600141Y-49998072D01*
X108822080Y-49998072D01*
X108957014Y-50039003D01*
G37*
X108957014Y-50039003D02*
X109068667Y-50050000D01*
X109068676Y-50050000D01*
X109105999Y-50053676D01*
X109143322Y-50050000D01*
X110874556Y-50050000D01*
X110960506Y-50120537D01*
X111070820Y-50179502D01*
X111190518Y-50215812D01*
X111315000Y-50228072D01*
X111330002Y-50228072D01*
X111330002Y-53255196D01*
X107826408Y-56758791D01*
X107606260Y-56715000D01*
X107313740Y-56715000D01*
X107026842Y-56772068D01*
X106756589Y-56884010D01*
X106513368Y-57046525D01*
X106306525Y-57253368D01*
X106190000Y-57427760D01*
X106073475Y-57253368D01*
X105866632Y-57046525D01*
X105680000Y-56921822D01*
X105680000Y-55757322D01*
X105683676Y-55719999D01*
X105680000Y-55682676D01*
X105680000Y-55682667D01*
X105669003Y-55571014D01*
X105625546Y-55427753D01*
X105589331Y-55360000D01*
X107396289Y-55360000D01*
X107440226Y-55403937D01*
X107609744Y-55517205D01*
X107798102Y-55595226D01*
X107998061Y-55635000D01*
X108201939Y-55635000D01*
X108401898Y-55595226D01*
X108590256Y-55517205D01*
X108759774Y-55403937D01*
X108903937Y-55259774D01*
X109017205Y-55090256D01*
X109095226Y-54901898D01*
X109135000Y-54701939D01*
X109135000Y-54498061D01*
X109095226Y-54298102D01*
X109017205Y-54109744D01*
X108903937Y-53940226D01*
X108759774Y-53796063D01*
X108590256Y-53682795D01*
X108401898Y-53604774D01*
X108201939Y-53565000D01*
X107998061Y-53565000D01*
X107798102Y-53604774D01*
X107609744Y-53682795D01*
X107440226Y-53796063D01*
X107396289Y-53840000D01*
X105368802Y-53840000D01*
X104586873Y-53058072D01*
X105090000Y-53058072D01*
X105214482Y-53045812D01*
X105334180Y-53009502D01*
X105399585Y-52974542D01*
X105478063Y-53014425D01*
X105598486Y-53048252D01*
X105723195Y-53057936D01*
X105874250Y-53055000D01*
X106033000Y-52896250D01*
X106033000Y-52293000D01*
X106287000Y-52293000D01*
X106287000Y-52896250D01*
X106445750Y-53055000D01*
X106596805Y-53057936D01*
X106721514Y-53048252D01*
X106799949Y-53026219D01*
X106890506Y-53100537D01*
X107000820Y-53159502D01*
X107120518Y-53195812D01*
X107245000Y-53208072D01*
X107334250Y-53205000D01*
X107493000Y-53046250D01*
X107493000Y-52297000D01*
X107747000Y-52297000D01*
X107747000Y-53046250D01*
X107905750Y-53205000D01*
X107995000Y-53208072D01*
X108119482Y-53195812D01*
X108239180Y-53159502D01*
X108349494Y-53100537D01*
X108446185Y-53021185D01*
X108525537Y-52924494D01*
X108584502Y-52814180D01*
X108620812Y-52694482D01*
X108633072Y-52570000D01*
X108630000Y-52455750D01*
X108471250Y-52297000D01*
X107747000Y-52297000D01*
X107493000Y-52297000D01*
X107090250Y-52297000D01*
X107086250Y-52293000D01*
X106287000Y-52293000D01*
X106033000Y-52293000D01*
X106013000Y-52293000D01*
X106013000Y-52047000D01*
X106033000Y-52047000D01*
X106033000Y-52023000D01*
X106287000Y-52023000D01*
X106287000Y-52047000D01*
X107086250Y-52047000D01*
X107090250Y-52043000D01*
X107493000Y-52043000D01*
X107493000Y-52023000D01*
X107747000Y-52023000D01*
X107747000Y-52043000D01*
X108471250Y-52043000D01*
X108507224Y-52007026D01*
X108873777Y-52373579D01*
X108782795Y-52509744D01*
X108704774Y-52698102D01*
X108665000Y-52898061D01*
X108665000Y-53101939D01*
X108704774Y-53301898D01*
X108782795Y-53490256D01*
X108896063Y-53659774D01*
X109040226Y-53803937D01*
X109209744Y-53917205D01*
X109398102Y-53995226D01*
X109598061Y-54035000D01*
X109801939Y-54035000D01*
X110001898Y-53995226D01*
X110190256Y-53917205D01*
X110359774Y-53803937D01*
X110503937Y-53659774D01*
X110617205Y-53490256D01*
X110695226Y-53301898D01*
X110735000Y-53101939D01*
X110735000Y-52898061D01*
X110695226Y-52698102D01*
X110617205Y-52509744D01*
X110503937Y-52340226D01*
X110460000Y-52296289D01*
X110460000Y-52162325D01*
X110463676Y-52125000D01*
X110460000Y-52087675D01*
X110460000Y-52087667D01*
X110449003Y-51976014D01*
X110405546Y-51832753D01*
X110334974Y-51700724D01*
X110240001Y-51584999D01*
X110211004Y-51561202D01*
X108808804Y-50159003D01*
X108785001Y-50129999D01*
X108669276Y-50035026D01*
X108600141Y-49998072D01*
X108822080Y-49998072D01*
X108957014Y-50039003D01*
G36*
X98365000Y-52139802D02*
G01*
X98365000Y-52201939D01*
X98404774Y-52401898D01*
X98482795Y-52590256D01*
X98596063Y-52759774D01*
X98740226Y-52903937D01*
X98909744Y-53017205D01*
X99098102Y-53095226D01*
X99298061Y-53135000D01*
X99501939Y-53135000D01*
X99701898Y-53095226D01*
X99890256Y-53017205D01*
X100059774Y-52903937D01*
X100203937Y-52759774D01*
X100221811Y-52733023D01*
X101620000Y-54131212D01*
X101620001Y-56921821D01*
X101433368Y-57046525D01*
X101226525Y-57253368D01*
X101110000Y-57427760D01*
X100993475Y-57253368D01*
X100786632Y-57046525D01*
X100600000Y-56921822D01*
X100600000Y-56177322D01*
X100603676Y-56139999D01*
X100600000Y-56102676D01*
X100600000Y-56102667D01*
X100589003Y-55991014D01*
X100545546Y-55847753D01*
X100474974Y-55715724D01*
X100380001Y-55599999D01*
X100351003Y-55576201D01*
X100309802Y-55535000D01*
X100401939Y-55535000D01*
X100601898Y-55495226D01*
X100790256Y-55417205D01*
X100959774Y-55303937D01*
X101103937Y-55159774D01*
X101217205Y-54990256D01*
X101295226Y-54801898D01*
X101335000Y-54601939D01*
X101335000Y-54398061D01*
X101295226Y-54198102D01*
X101217205Y-54009744D01*
X101103937Y-53840226D01*
X100959774Y-53696063D01*
X100790256Y-53582795D01*
X100601898Y-53504774D01*
X100401939Y-53465000D01*
X100335172Y-53465000D01*
X100274266Y-53415016D01*
X100142237Y-53344444D01*
X99998976Y-53300987D01*
X99887323Y-53289990D01*
X99887312Y-53289990D01*
X99849990Y-53286314D01*
X99812668Y-53289990D01*
X90264792Y-53289990D01*
X90032874Y-53058072D01*
X90650000Y-53058072D01*
X90774482Y-53045812D01*
X90894180Y-53009502D01*
X90949837Y-52979752D01*
X91018063Y-53014425D01*
X91138486Y-53048252D01*
X91263195Y-53057936D01*
X91414250Y-53055000D01*
X91573000Y-52896250D01*
X91573000Y-52293000D01*
X91827000Y-52293000D01*
X91827000Y-52896250D01*
X91985750Y-53055000D01*
X92136805Y-53057936D01*
X92261514Y-53048252D01*
X92317599Y-53032498D01*
X92400506Y-53100537D01*
X92510820Y-53159502D01*
X92630518Y-53195812D01*
X92755000Y-53208072D01*
X92844250Y-53205000D01*
X93003000Y-53046250D01*
X93003000Y-52297000D01*
X93257000Y-52297000D01*
X93257000Y-53046250D01*
X93415750Y-53205000D01*
X93505000Y-53208072D01*
X93629482Y-53195812D01*
X93749180Y-53159502D01*
X93859494Y-53100537D01*
X93956185Y-53021185D01*
X94035537Y-52924494D01*
X94094502Y-52814180D01*
X94130812Y-52694482D01*
X94143072Y-52570000D01*
X94140000Y-52455750D01*
X93981250Y-52297000D01*
X93257000Y-52297000D01*
X93003000Y-52297000D01*
X92630250Y-52297000D01*
X92626250Y-52293000D01*
X91827000Y-52293000D01*
X91573000Y-52293000D01*
X91553000Y-52293000D01*
X91553000Y-52047000D01*
X91573000Y-52047000D01*
X91573000Y-52023000D01*
X91827000Y-52023000D01*
X91827000Y-52047000D01*
X92626250Y-52047000D01*
X92630250Y-52043000D01*
X93003000Y-52043000D01*
X93003000Y-52023000D01*
X93257000Y-52023000D01*
X93257000Y-52043000D01*
X93981250Y-52043000D01*
X94140000Y-51884250D01*
X94143072Y-51770000D01*
X94130812Y-51645518D01*
X94094502Y-51525820D01*
X94043284Y-51430000D01*
X97655199Y-51430000D01*
X98365000Y-52139802D01*
G37*
X98365000Y-52139802D02*
X98365000Y-52201939D01*
X98404774Y-52401898D01*
X98482795Y-52590256D01*
X98596063Y-52759774D01*
X98740226Y-52903937D01*
X98909744Y-53017205D01*
X99098102Y-53095226D01*
X99298061Y-53135000D01*
X99501939Y-53135000D01*
X99701898Y-53095226D01*
X99890256Y-53017205D01*
X100059774Y-52903937D01*
X100203937Y-52759774D01*
X100221811Y-52733023D01*
X101620000Y-54131212D01*
X101620001Y-56921821D01*
X101433368Y-57046525D01*
X101226525Y-57253368D01*
X101110000Y-57427760D01*
X100993475Y-57253368D01*
X100786632Y-57046525D01*
X100600000Y-56921822D01*
X100600000Y-56177322D01*
X100603676Y-56139999D01*
X100600000Y-56102676D01*
X100600000Y-56102667D01*
X100589003Y-55991014D01*
X100545546Y-55847753D01*
X100474974Y-55715724D01*
X100380001Y-55599999D01*
X100351003Y-55576201D01*
X100309802Y-55535000D01*
X100401939Y-55535000D01*
X100601898Y-55495226D01*
X100790256Y-55417205D01*
X100959774Y-55303937D01*
X101103937Y-55159774D01*
X101217205Y-54990256D01*
X101295226Y-54801898D01*
X101335000Y-54601939D01*
X101335000Y-54398061D01*
X101295226Y-54198102D01*
X101217205Y-54009744D01*
X101103937Y-53840226D01*
X100959774Y-53696063D01*
X100790256Y-53582795D01*
X100601898Y-53504774D01*
X100401939Y-53465000D01*
X100335172Y-53465000D01*
X100274266Y-53415016D01*
X100142237Y-53344444D01*
X99998976Y-53300987D01*
X99887323Y-53289990D01*
X99887312Y-53289990D01*
X99849990Y-53286314D01*
X99812668Y-53289990D01*
X90264792Y-53289990D01*
X90032874Y-53058072D01*
X90650000Y-53058072D01*
X90774482Y-53045812D01*
X90894180Y-53009502D01*
X90949837Y-52979752D01*
X91018063Y-53014425D01*
X91138486Y-53048252D01*
X91263195Y-53057936D01*
X91414250Y-53055000D01*
X91573000Y-52896250D01*
X91573000Y-52293000D01*
X91827000Y-52293000D01*
X91827000Y-52896250D01*
X91985750Y-53055000D01*
X92136805Y-53057936D01*
X92261514Y-53048252D01*
X92317599Y-53032498D01*
X92400506Y-53100537D01*
X92510820Y-53159502D01*
X92630518Y-53195812D01*
X92755000Y-53208072D01*
X92844250Y-53205000D01*
X93003000Y-53046250D01*
X93003000Y-52297000D01*
X93257000Y-52297000D01*
X93257000Y-53046250D01*
X93415750Y-53205000D01*
X93505000Y-53208072D01*
X93629482Y-53195812D01*
X93749180Y-53159502D01*
X93859494Y-53100537D01*
X93956185Y-53021185D01*
X94035537Y-52924494D01*
X94094502Y-52814180D01*
X94130812Y-52694482D01*
X94143072Y-52570000D01*
X94140000Y-52455750D01*
X93981250Y-52297000D01*
X93257000Y-52297000D01*
X93003000Y-52297000D01*
X92630250Y-52297000D01*
X92626250Y-52293000D01*
X91827000Y-52293000D01*
X91573000Y-52293000D01*
X91553000Y-52293000D01*
X91553000Y-52047000D01*
X91573000Y-52047000D01*
X91573000Y-52023000D01*
X91827000Y-52023000D01*
X91827000Y-52047000D01*
X92626250Y-52047000D01*
X92630250Y-52043000D01*
X93003000Y-52043000D01*
X93003000Y-52023000D01*
X93257000Y-52023000D01*
X93257000Y-52043000D01*
X93981250Y-52043000D01*
X94140000Y-51884250D01*
X94143072Y-51770000D01*
X94130812Y-51645518D01*
X94094502Y-51525820D01*
X94043284Y-51430000D01*
X97655199Y-51430000D01*
X98365000Y-52139802D01*
G36*
X102189188Y-44680518D02*
G01*
X102176928Y-44805000D01*
X102180000Y-44819250D01*
X102338750Y-44978000D01*
X103463000Y-44978000D01*
X103463000Y-44958000D01*
X103717000Y-44958000D01*
X103717000Y-44978000D01*
X103737000Y-44978000D01*
X103737000Y-45232000D01*
X103717000Y-45232000D01*
X103717000Y-45252000D01*
X103463000Y-45252000D01*
X103463000Y-45232000D01*
X102338750Y-45232000D01*
X102180000Y-45390750D01*
X102176928Y-45405000D01*
X102189188Y-45529482D01*
X102225498Y-45649180D01*
X102274043Y-45740000D01*
X102225498Y-45830820D01*
X102189188Y-45950518D01*
X102176928Y-46075000D01*
X102176928Y-46675000D01*
X102189188Y-46799482D01*
X102225498Y-46919180D01*
X102284463Y-47029494D01*
X102363815Y-47126185D01*
X102460506Y-47205537D01*
X102570820Y-47264502D01*
X102586203Y-47269168D01*
X102581820Y-47270498D01*
X102471506Y-47329463D01*
X102374815Y-47408815D01*
X102295463Y-47505506D01*
X102236498Y-47615820D01*
X102200188Y-47735518D01*
X102187928Y-47860000D01*
X102187928Y-49360000D01*
X102200188Y-49484482D01*
X102236498Y-49604180D01*
X102295463Y-49714494D01*
X102374815Y-49811185D01*
X102410761Y-49840685D01*
X102319506Y-49889463D01*
X102222815Y-49968815D01*
X102143463Y-50065506D01*
X102084498Y-50175820D01*
X102048188Y-50295518D01*
X102035928Y-50420000D01*
X102035928Y-50920000D01*
X102048188Y-51044482D01*
X102084498Y-51164180D01*
X102143463Y-51274494D01*
X102222815Y-51371185D01*
X102282296Y-51420000D01*
X102222815Y-51468815D01*
X102143463Y-51565506D01*
X102084498Y-51675820D01*
X102053339Y-51778537D01*
X98920011Y-48645210D01*
X98920011Y-47180253D01*
X98948486Y-47188252D01*
X99073195Y-47197936D01*
X99224250Y-47195000D01*
X99383000Y-47036250D01*
X99383000Y-46433000D01*
X99363000Y-46433000D01*
X99363000Y-46360000D01*
X99657000Y-46360000D01*
X99657000Y-46433000D01*
X99637000Y-46433000D01*
X99637000Y-47036250D01*
X99795750Y-47195000D01*
X99946805Y-47197936D01*
X100071514Y-47188252D01*
X100191937Y-47154425D01*
X100255000Y-47122376D01*
X100318063Y-47154425D01*
X100438486Y-47188252D01*
X100563195Y-47197936D01*
X100714250Y-47195000D01*
X100873000Y-47036250D01*
X100873000Y-46433000D01*
X101127000Y-46433000D01*
X101127000Y-47036250D01*
X101285750Y-47195000D01*
X101436805Y-47197936D01*
X101561514Y-47188252D01*
X101681937Y-47154425D01*
X101793447Y-47097755D01*
X101891758Y-47020419D01*
X101973093Y-46925389D01*
X102034326Y-46816318D01*
X102073104Y-46697397D01*
X102085000Y-46591750D01*
X101926250Y-46433000D01*
X101127000Y-46433000D01*
X100873000Y-46433000D01*
X100853000Y-46433000D01*
X100853000Y-46349593D01*
X100858986Y-46349003D01*
X101002247Y-46305546D01*
X101134276Y-46234974D01*
X101192733Y-46187000D01*
X101926250Y-46187000D01*
X102085000Y-46028250D01*
X102073104Y-45922603D01*
X102034326Y-45803682D01*
X101973093Y-45694611D01*
X101891758Y-45599581D01*
X101841575Y-45560105D01*
X101901185Y-45511185D01*
X101980537Y-45414494D01*
X102039502Y-45304180D01*
X102075812Y-45184482D01*
X102088072Y-45060000D01*
X102088072Y-44595000D01*
X102215130Y-44595000D01*
X102189188Y-44680518D01*
G37*
X102189188Y-44680518D02*
X102176928Y-44805000D01*
X102180000Y-44819250D01*
X102338750Y-44978000D01*
X103463000Y-44978000D01*
X103463000Y-44958000D01*
X103717000Y-44958000D01*
X103717000Y-44978000D01*
X103737000Y-44978000D01*
X103737000Y-45232000D01*
X103717000Y-45232000D01*
X103717000Y-45252000D01*
X103463000Y-45252000D01*
X103463000Y-45232000D01*
X102338750Y-45232000D01*
X102180000Y-45390750D01*
X102176928Y-45405000D01*
X102189188Y-45529482D01*
X102225498Y-45649180D01*
X102274043Y-45740000D01*
X102225498Y-45830820D01*
X102189188Y-45950518D01*
X102176928Y-46075000D01*
X102176928Y-46675000D01*
X102189188Y-46799482D01*
X102225498Y-46919180D01*
X102284463Y-47029494D01*
X102363815Y-47126185D01*
X102460506Y-47205537D01*
X102570820Y-47264502D01*
X102586203Y-47269168D01*
X102581820Y-47270498D01*
X102471506Y-47329463D01*
X102374815Y-47408815D01*
X102295463Y-47505506D01*
X102236498Y-47615820D01*
X102200188Y-47735518D01*
X102187928Y-47860000D01*
X102187928Y-49360000D01*
X102200188Y-49484482D01*
X102236498Y-49604180D01*
X102295463Y-49714494D01*
X102374815Y-49811185D01*
X102410761Y-49840685D01*
X102319506Y-49889463D01*
X102222815Y-49968815D01*
X102143463Y-50065506D01*
X102084498Y-50175820D01*
X102048188Y-50295518D01*
X102035928Y-50420000D01*
X102035928Y-50920000D01*
X102048188Y-51044482D01*
X102084498Y-51164180D01*
X102143463Y-51274494D01*
X102222815Y-51371185D01*
X102282296Y-51420000D01*
X102222815Y-51468815D01*
X102143463Y-51565506D01*
X102084498Y-51675820D01*
X102053339Y-51778537D01*
X98920011Y-48645210D01*
X98920011Y-47180253D01*
X98948486Y-47188252D01*
X99073195Y-47197936D01*
X99224250Y-47195000D01*
X99383000Y-47036250D01*
X99383000Y-46433000D01*
X99363000Y-46433000D01*
X99363000Y-46360000D01*
X99657000Y-46360000D01*
X99657000Y-46433000D01*
X99637000Y-46433000D01*
X99637000Y-47036250D01*
X99795750Y-47195000D01*
X99946805Y-47197936D01*
X100071514Y-47188252D01*
X100191937Y-47154425D01*
X100255000Y-47122376D01*
X100318063Y-47154425D01*
X100438486Y-47188252D01*
X100563195Y-47197936D01*
X100714250Y-47195000D01*
X100873000Y-47036250D01*
X100873000Y-46433000D01*
X101127000Y-46433000D01*
X101127000Y-47036250D01*
X101285750Y-47195000D01*
X101436805Y-47197936D01*
X101561514Y-47188252D01*
X101681937Y-47154425D01*
X101793447Y-47097755D01*
X101891758Y-47020419D01*
X101973093Y-46925389D01*
X102034326Y-46816318D01*
X102073104Y-46697397D01*
X102085000Y-46591750D01*
X101926250Y-46433000D01*
X101127000Y-46433000D01*
X100873000Y-46433000D01*
X100853000Y-46433000D01*
X100853000Y-46349593D01*
X100858986Y-46349003D01*
X101002247Y-46305546D01*
X101134276Y-46234974D01*
X101192733Y-46187000D01*
X101926250Y-46187000D01*
X102085000Y-46028250D01*
X102073104Y-45922603D01*
X102034326Y-45803682D01*
X101973093Y-45694611D01*
X101891758Y-45599581D01*
X101841575Y-45560105D01*
X101901185Y-45511185D01*
X101980537Y-45414494D01*
X102039502Y-45304180D01*
X102075812Y-45184482D01*
X102088072Y-45060000D01*
X102088072Y-44595000D01*
X102215130Y-44595000D01*
X102189188Y-44680518D01*
G36*
X85367000Y-46197000D02*
G01*
X86166250Y-46197000D01*
X86170000Y-46193250D01*
X86173750Y-46197000D01*
X86973000Y-46197000D01*
X86973000Y-46173000D01*
X87227000Y-46173000D01*
X87227000Y-46197000D01*
X87247000Y-46197000D01*
X87247000Y-46443000D01*
X87227000Y-46443000D01*
X87227000Y-47046250D01*
X87385750Y-47205000D01*
X87536805Y-47207936D01*
X87661514Y-47198252D01*
X87781937Y-47164425D01*
X87893447Y-47107755D01*
X87939171Y-47071786D01*
X87983815Y-47126185D01*
X88080506Y-47205537D01*
X88173370Y-47255174D01*
X88155820Y-47260498D01*
X88045506Y-47319463D01*
X87948815Y-47398815D01*
X87869463Y-47495506D01*
X87810498Y-47605820D01*
X87774188Y-47725518D01*
X87761928Y-47850000D01*
X87761928Y-48987126D01*
X86888803Y-48114002D01*
X86865000Y-48084998D01*
X86749275Y-47990025D01*
X86643041Y-47933241D01*
X85884688Y-47174888D01*
X85921937Y-47164425D01*
X86033447Y-47107755D01*
X86131758Y-47030419D01*
X86170000Y-46985738D01*
X86208242Y-47030419D01*
X86306553Y-47107755D01*
X86418063Y-47164425D01*
X86538486Y-47198252D01*
X86663195Y-47207936D01*
X86814250Y-47205000D01*
X86973000Y-47046250D01*
X86973000Y-46443000D01*
X86173750Y-46443000D01*
X86170000Y-46446750D01*
X86166250Y-46443000D01*
X85367000Y-46443000D01*
X85367000Y-46467000D01*
X85176799Y-46467000D01*
X85160000Y-46450201D01*
X85160000Y-46214801D01*
X85201801Y-46173000D01*
X85367000Y-46173000D01*
X85367000Y-46197000D01*
G37*
X85367000Y-46197000D02*
X86166250Y-46197000D01*
X86170000Y-46193250D01*
X86173750Y-46197000D01*
X86973000Y-46197000D01*
X86973000Y-46173000D01*
X87227000Y-46173000D01*
X87227000Y-46197000D01*
X87247000Y-46197000D01*
X87247000Y-46443000D01*
X87227000Y-46443000D01*
X87227000Y-47046250D01*
X87385750Y-47205000D01*
X87536805Y-47207936D01*
X87661514Y-47198252D01*
X87781937Y-47164425D01*
X87893447Y-47107755D01*
X87939171Y-47071786D01*
X87983815Y-47126185D01*
X88080506Y-47205537D01*
X88173370Y-47255174D01*
X88155820Y-47260498D01*
X88045506Y-47319463D01*
X87948815Y-47398815D01*
X87869463Y-47495506D01*
X87810498Y-47605820D01*
X87774188Y-47725518D01*
X87761928Y-47850000D01*
X87761928Y-48987126D01*
X86888803Y-48114002D01*
X86865000Y-48084998D01*
X86749275Y-47990025D01*
X86643041Y-47933241D01*
X85884688Y-47174888D01*
X85921937Y-47164425D01*
X86033447Y-47107755D01*
X86131758Y-47030419D01*
X86170000Y-46985738D01*
X86208242Y-47030419D01*
X86306553Y-47107755D01*
X86418063Y-47164425D01*
X86538486Y-47198252D01*
X86663195Y-47207936D01*
X86814250Y-47205000D01*
X86973000Y-47046250D01*
X86973000Y-46443000D01*
X86173750Y-46443000D01*
X86170000Y-46446750D01*
X86166250Y-46443000D01*
X85367000Y-46443000D01*
X85367000Y-46467000D01*
X85176799Y-46467000D01*
X85160000Y-46450201D01*
X85160000Y-46214801D01*
X85201801Y-46173000D01*
X85367000Y-46173000D01*
X85367000Y-46197000D01*
G36*
X89337000Y-44978000D02*
G01*
X89357000Y-44978000D01*
X89357000Y-45232000D01*
X89337000Y-45232000D01*
X89337000Y-45252000D01*
X89083000Y-45252000D01*
X89083000Y-45232000D01*
X89063000Y-45232000D01*
X89063000Y-44978000D01*
X89083000Y-44978000D01*
X89083000Y-44958000D01*
X89337000Y-44958000D01*
X89337000Y-44978000D01*
G37*
X89337000Y-44978000D02*
X89357000Y-44978000D01*
X89357000Y-45232000D01*
X89337000Y-45232000D01*
X89337000Y-45252000D01*
X89083000Y-45252000D01*
X89083000Y-45232000D01*
X89063000Y-45232000D01*
X89063000Y-44978000D01*
X89083000Y-44978000D01*
X89083000Y-44958000D01*
X89337000Y-44958000D01*
X89337000Y-44978000D01*
M02*
