G04 #@! TF.GenerationSoftware,KiCad,Pcbnew,(5.1.5-0-10_14)*
G04 #@! TF.CreationDate,2020-02-25T16:28:57+09:00*
G04 #@! TF.ProjectId,hbldc,68626c64-632e-46b6-9963-61645f706362,rev?*
G04 #@! TF.SameCoordinates,Original*
G04 #@! TF.FileFunction,Legend,Top*
G04 #@! TF.FilePolarity,Positive*
%FSLAX46Y46*%
G04 Gerber Fmt 4.6, Leading zero omitted, Abs format (unit mm)*
G04 Created by KiCad (PCBNEW (5.1.5-0-10_14)) date 2020-02-25 16:28:57*
%MOMM*%
%LPD*%
G04 APERTURE LIST*
%ADD10C,0.150000*%
%ADD11C,0.120000*%
G04 APERTURE END LIST*
D10*
X124309523Y-56627142D02*
X124261904Y-56674761D01*
X124119047Y-56722380D01*
X124023809Y-56722380D01*
X123880952Y-56674761D01*
X123785714Y-56579523D01*
X123738095Y-56484285D01*
X123690476Y-56293809D01*
X123690476Y-56150952D01*
X123738095Y-55960476D01*
X123785714Y-55865238D01*
X123880952Y-55770000D01*
X124023809Y-55722380D01*
X124119047Y-55722380D01*
X124261904Y-55770000D01*
X124309523Y-55817619D01*
X121421428Y-56198571D02*
X121564285Y-56246190D01*
X121611904Y-56293809D01*
X121659523Y-56389047D01*
X121659523Y-56531904D01*
X121611904Y-56627142D01*
X121564285Y-56674761D01*
X121469047Y-56722380D01*
X121088095Y-56722380D01*
X121088095Y-55722380D01*
X121421428Y-55722380D01*
X121516666Y-55770000D01*
X121564285Y-55817619D01*
X121611904Y-55912857D01*
X121611904Y-56008095D01*
X121564285Y-56103333D01*
X121516666Y-56150952D01*
X121421428Y-56198571D01*
X121088095Y-56198571D01*
X118791904Y-56436666D02*
X119268095Y-56436666D01*
X118696666Y-56722380D02*
X119030000Y-55722380D01*
X119363333Y-56722380D01*
X116018095Y-56722380D02*
X116018095Y-55722380D01*
X116399047Y-55722380D01*
X116494285Y-55770000D01*
X116541904Y-55817619D01*
X116589523Y-55912857D01*
X116589523Y-56055714D01*
X116541904Y-56150952D01*
X116494285Y-56198571D01*
X116399047Y-56246190D01*
X116018095Y-56246190D01*
X109894761Y-56567142D02*
X109847142Y-56614761D01*
X109704285Y-56662380D01*
X109609047Y-56662380D01*
X109466190Y-56614761D01*
X109370952Y-56519523D01*
X109323333Y-56424285D01*
X109275714Y-56233809D01*
X109275714Y-56090952D01*
X109323333Y-55900476D01*
X109370952Y-55805238D01*
X109466190Y-55710000D01*
X109609047Y-55662380D01*
X109704285Y-55662380D01*
X109847142Y-55710000D01*
X109894761Y-55757619D01*
X110799523Y-56662380D02*
X110323333Y-56662380D01*
X110323333Y-55662380D01*
X107275714Y-56567142D02*
X107228095Y-56614761D01*
X107085238Y-56662380D01*
X106990000Y-56662380D01*
X106847142Y-56614761D01*
X106751904Y-56519523D01*
X106704285Y-56424285D01*
X106656666Y-56233809D01*
X106656666Y-56090952D01*
X106704285Y-55900476D01*
X106751904Y-55805238D01*
X106847142Y-55710000D01*
X106990000Y-55662380D01*
X107085238Y-55662380D01*
X107228095Y-55710000D01*
X107275714Y-55757619D01*
X107704285Y-56662380D02*
X107704285Y-55662380D01*
X107704285Y-56138571D02*
X108275714Y-56138571D01*
X108275714Y-56662380D02*
X108275714Y-55662380D01*
X104626666Y-56138571D02*
X104769523Y-56186190D01*
X104817142Y-56233809D01*
X104864761Y-56329047D01*
X104864761Y-56471904D01*
X104817142Y-56567142D01*
X104769523Y-56614761D01*
X104674285Y-56662380D01*
X104293333Y-56662380D01*
X104293333Y-55662380D01*
X104626666Y-55662380D01*
X104721904Y-55710000D01*
X104769523Y-55757619D01*
X104817142Y-55852857D01*
X104817142Y-55948095D01*
X104769523Y-56043333D01*
X104721904Y-56090952D01*
X104626666Y-56138571D01*
X104293333Y-56138571D01*
X105769523Y-56662380D02*
X105293333Y-56662380D01*
X105293333Y-55662380D01*
X101897619Y-56138571D02*
X102040476Y-56186190D01*
X102088095Y-56233809D01*
X102135714Y-56329047D01*
X102135714Y-56471904D01*
X102088095Y-56567142D01*
X102040476Y-56614761D01*
X101945238Y-56662380D01*
X101564285Y-56662380D01*
X101564285Y-55662380D01*
X101897619Y-55662380D01*
X101992857Y-55710000D01*
X102040476Y-55757619D01*
X102088095Y-55852857D01*
X102088095Y-55948095D01*
X102040476Y-56043333D01*
X101992857Y-56090952D01*
X101897619Y-56138571D01*
X101564285Y-56138571D01*
X102564285Y-56662380D02*
X102564285Y-55662380D01*
X102564285Y-56138571D02*
X103135714Y-56138571D01*
X103135714Y-56662380D02*
X103135714Y-55662380D01*
X98917142Y-56376666D02*
X99393333Y-56376666D01*
X98821904Y-56662380D02*
X99155238Y-55662380D01*
X99488571Y-56662380D01*
X100298095Y-56662380D02*
X99821904Y-56662380D01*
X99821904Y-55662380D01*
X96358095Y-56376666D02*
X96834285Y-56376666D01*
X96262857Y-56662380D02*
X96596190Y-55662380D01*
X96929523Y-56662380D01*
X97262857Y-56662380D02*
X97262857Y-55662380D01*
X97262857Y-56138571D02*
X97834285Y-56138571D01*
X97834285Y-56662380D02*
X97834285Y-55662380D01*
X81278095Y-56230000D02*
X81182857Y-56182380D01*
X81040000Y-56182380D01*
X80897142Y-56230000D01*
X80801904Y-56325238D01*
X80754285Y-56420476D01*
X80706666Y-56610952D01*
X80706666Y-56753809D01*
X80754285Y-56944285D01*
X80801904Y-57039523D01*
X80897142Y-57134761D01*
X81040000Y-57182380D01*
X81135238Y-57182380D01*
X81278095Y-57134761D01*
X81325714Y-57087142D01*
X81325714Y-56753809D01*
X81135238Y-56753809D01*
X81754285Y-57182380D02*
X81754285Y-56182380D01*
X82325714Y-57182380D01*
X82325714Y-56182380D01*
X82801904Y-57182380D02*
X82801904Y-56182380D01*
X83040000Y-56182380D01*
X83182857Y-56230000D01*
X83278095Y-56325238D01*
X83325714Y-56420476D01*
X83373333Y-56610952D01*
X83373333Y-56753809D01*
X83325714Y-56944285D01*
X83278095Y-57039523D01*
X83182857Y-57134761D01*
X83040000Y-57182380D01*
X82801904Y-57182380D01*
X81869523Y-49552380D02*
X81393333Y-49552380D01*
X81345714Y-50028571D01*
X81393333Y-49980952D01*
X81488571Y-49933333D01*
X81726666Y-49933333D01*
X81821904Y-49980952D01*
X81869523Y-50028571D01*
X81917142Y-50123809D01*
X81917142Y-50361904D01*
X81869523Y-50457142D01*
X81821904Y-50504761D01*
X81726666Y-50552380D01*
X81488571Y-50552380D01*
X81393333Y-50504761D01*
X81345714Y-50457142D01*
X82202857Y-49552380D02*
X82536190Y-50552380D01*
X82869523Y-49552380D01*
X80198094Y-40272380D02*
X80198094Y-39272380D01*
X80531428Y-39986666D01*
X80864761Y-39272380D01*
X80864761Y-40272380D01*
X81674285Y-39748571D02*
X81817142Y-39796190D01*
X81864761Y-39843809D01*
X81912380Y-39939047D01*
X81912380Y-40081904D01*
X81864761Y-40177142D01*
X81817142Y-40224761D01*
X81721904Y-40272380D01*
X81340951Y-40272380D01*
X81340951Y-39272380D01*
X81674285Y-39272380D01*
X81769523Y-39320000D01*
X81817142Y-39367619D01*
X81864761Y-39462857D01*
X81864761Y-39558095D01*
X81817142Y-39653333D01*
X81769523Y-39700952D01*
X81674285Y-39748571D01*
X81340951Y-39748571D01*
X80198094Y-44592380D02*
X80198094Y-43592380D01*
X80531428Y-44306666D01*
X80864761Y-43592380D01*
X80864761Y-44592380D01*
X81912380Y-44497142D02*
X81864761Y-44544761D01*
X81721904Y-44592380D01*
X81626666Y-44592380D01*
X81483808Y-44544761D01*
X81388570Y-44449523D01*
X81340951Y-44354285D01*
X81293332Y-44163809D01*
X81293332Y-44020952D01*
X81340951Y-43830476D01*
X81388570Y-43735238D01*
X81483808Y-43640000D01*
X81626666Y-43592380D01*
X81721904Y-43592380D01*
X81864761Y-43640000D01*
X81912380Y-43687619D01*
X80198095Y-35702380D02*
X80198095Y-34702380D01*
X80531428Y-35416666D01*
X80864761Y-34702380D01*
X80864761Y-35702380D01*
X81293333Y-35416666D02*
X81769523Y-35416666D01*
X81198095Y-35702380D02*
X81531428Y-34702380D01*
X81864761Y-35702380D01*
X106058095Y-26630000D02*
X105962857Y-26582380D01*
X105820000Y-26582380D01*
X105677142Y-26630000D01*
X105581904Y-26725238D01*
X105534285Y-26820476D01*
X105486666Y-27010952D01*
X105486666Y-27153809D01*
X105534285Y-27344285D01*
X105581904Y-27439523D01*
X105677142Y-27534761D01*
X105820000Y-27582380D01*
X105915238Y-27582380D01*
X106058095Y-27534761D01*
X106105714Y-27487142D01*
X106105714Y-27153809D01*
X105915238Y-27153809D01*
X106534285Y-27582380D02*
X106534285Y-26582380D01*
X107105714Y-27582380D01*
X107105714Y-26582380D01*
X107581904Y-27582380D02*
X107581904Y-26582380D01*
X107820000Y-26582380D01*
X107962857Y-26630000D01*
X108058095Y-26725238D01*
X108105714Y-26820476D01*
X108153333Y-27010952D01*
X108153333Y-27153809D01*
X108105714Y-27344285D01*
X108058095Y-27439523D01*
X107962857Y-27534761D01*
X107820000Y-27582380D01*
X107581904Y-27582380D01*
X91516666Y-26512380D02*
X91850000Y-27512380D01*
X92183333Y-26512380D01*
X93088095Y-27417142D02*
X93040476Y-27464761D01*
X92897619Y-27512380D01*
X92802380Y-27512380D01*
X92659523Y-27464761D01*
X92564285Y-27369523D01*
X92516666Y-27274285D01*
X92469047Y-27083809D01*
X92469047Y-26940952D01*
X92516666Y-26750476D01*
X92564285Y-26655238D01*
X92659523Y-26560000D01*
X92802380Y-26512380D01*
X92897619Y-26512380D01*
X93040476Y-26560000D01*
X93088095Y-26607619D01*
X94088095Y-27417142D02*
X94040476Y-27464761D01*
X93897619Y-27512380D01*
X93802380Y-27512380D01*
X93659523Y-27464761D01*
X93564285Y-27369523D01*
X93516666Y-27274285D01*
X93469047Y-27083809D01*
X93469047Y-26940952D01*
X93516666Y-26750476D01*
X93564285Y-26655238D01*
X93659523Y-26560000D01*
X93802380Y-26512380D01*
X93897619Y-26512380D01*
X94040476Y-26560000D01*
X94088095Y-26607619D01*
D11*
X95900000Y-49650000D02*
X90400000Y-49650000D01*
X95900000Y-47550000D02*
X90400000Y-47550000D01*
X95900000Y-49650000D02*
X95900000Y-47550000D01*
X110326000Y-49660000D02*
X110326000Y-47560000D01*
X110326000Y-47560000D02*
X104826000Y-47560000D01*
X110326000Y-49660000D02*
X104826000Y-49660000D01*
X125150000Y-49660000D02*
X119650000Y-49660000D01*
X125150000Y-47560000D02*
X119650000Y-47560000D01*
X125150000Y-49660000D02*
X125150000Y-47560000D01*
X93730000Y-51070000D02*
X93730000Y-51770000D01*
X92530000Y-51770000D02*
X92530000Y-51070000D01*
X107020000Y-51770000D02*
X107020000Y-51070000D01*
X108220000Y-51070000D02*
X108220000Y-51770000D01*
X121870000Y-51770000D02*
X121870000Y-51070000D01*
X123070000Y-51070000D02*
X123070000Y-51770000D01*
X96310000Y-49710000D02*
X96310000Y-47160000D01*
X98010000Y-49710000D02*
X98010000Y-47160000D01*
X96310000Y-49710000D02*
X98010000Y-49710000D01*
X110690000Y-49740000D02*
X112390000Y-49740000D01*
X112390000Y-49740000D02*
X112390000Y-47190000D01*
X110690000Y-49740000D02*
X110690000Y-47190000D01*
X125540000Y-49700000D02*
X125540000Y-47150000D01*
X127240000Y-49700000D02*
X127240000Y-47150000D01*
X125540000Y-49700000D02*
X127240000Y-49700000D01*
X87000000Y-53500000D02*
X84900000Y-53500000D01*
X87000000Y-52500000D02*
X84900000Y-52500000D01*
X87000000Y-53500000D02*
X87000000Y-52500000D01*
X95970000Y-59530000D02*
X95970000Y-58200000D01*
X97300000Y-59530000D02*
X95970000Y-59530000D01*
X98570000Y-59530000D02*
X98570000Y-56870000D01*
X98570000Y-56870000D02*
X111330000Y-56870000D01*
X98570000Y-59530000D02*
X111330000Y-59530000D01*
X111330000Y-59530000D02*
X111330000Y-56870000D01*
X115170000Y-59530000D02*
X115170000Y-58200000D01*
X116500000Y-59530000D02*
X115170000Y-59530000D01*
X117770000Y-59530000D02*
X117770000Y-56870000D01*
X117770000Y-56870000D02*
X125450000Y-56870000D01*
X117770000Y-59530000D02*
X125450000Y-59530000D01*
X125450000Y-59530000D02*
X125450000Y-56870000D01*
X80670000Y-50670000D02*
X82000000Y-50670000D01*
X80670000Y-52000000D02*
X80670000Y-50670000D01*
X80670000Y-53270000D02*
X83330000Y-53270000D01*
X83330000Y-53270000D02*
X83330000Y-55870000D01*
X80670000Y-53270000D02*
X80670000Y-55870000D01*
X80670000Y-55870000D02*
X83330000Y-55870000D01*
X97640000Y-33450000D02*
X97640000Y-38650000D01*
X92040000Y-33050000D02*
X92040000Y-39650000D01*
X92040000Y-39650000D02*
X92440000Y-39650000D01*
X91550000Y-32440000D02*
X91150000Y-32440000D01*
X91550000Y-39040000D02*
X91550000Y-32440000D01*
X85950000Y-38640000D02*
X85950000Y-33440000D01*
X106510000Y-39650000D02*
X106910000Y-39650000D01*
X106510000Y-33050000D02*
X106510000Y-39650000D01*
X112110000Y-33450000D02*
X112110000Y-38650000D01*
X100410000Y-38650000D02*
X100410000Y-33450000D01*
X106010000Y-39050000D02*
X106010000Y-32450000D01*
X106010000Y-32450000D02*
X105610000Y-32450000D01*
X120970000Y-39650000D02*
X121370000Y-39650000D01*
X120970000Y-33050000D02*
X120970000Y-39650000D01*
X126570000Y-33450000D02*
X126570000Y-38650000D01*
X114880000Y-38630000D02*
X114880000Y-33430000D01*
X120480000Y-39030000D02*
X120480000Y-32430000D01*
X120480000Y-32430000D02*
X120080000Y-32430000D01*
X85920000Y-45070000D02*
X85920000Y-46070000D01*
X84560000Y-46070000D02*
X84560000Y-45070000D01*
X86420000Y-46070000D02*
X86420000Y-45070000D01*
X87780000Y-45070000D02*
X87780000Y-46070000D01*
X100190000Y-45060000D02*
X100190000Y-46060000D01*
X98830000Y-46060000D02*
X98830000Y-45060000D01*
X100320000Y-46060000D02*
X100320000Y-45060000D01*
X101680000Y-45060000D02*
X101680000Y-46060000D01*
X114940000Y-45070000D02*
X114940000Y-46070000D01*
X113580000Y-46070000D02*
X113580000Y-45070000D01*
X115120000Y-46070000D02*
X115120000Y-45070000D01*
X116480000Y-45070000D02*
X116480000Y-46070000D01*
X96540000Y-42200000D02*
X96540000Y-41200000D01*
X97900000Y-41200000D02*
X97900000Y-42200000D01*
X87160000Y-41200000D02*
X87160000Y-42200000D01*
X85800000Y-42200000D02*
X85800000Y-41200000D01*
X112290000Y-41200000D02*
X112290000Y-42200000D01*
X110930000Y-42200000D02*
X110930000Y-41200000D01*
X100220000Y-42200000D02*
X100220000Y-41200000D01*
X101580000Y-41200000D02*
X101580000Y-42200000D01*
X126780000Y-41200000D02*
X126780000Y-42200000D01*
X125420000Y-42200000D02*
X125420000Y-41200000D01*
X114670000Y-42200000D02*
X114670000Y-41200000D01*
X116030000Y-41200000D02*
X116030000Y-42200000D01*
X89520000Y-51920000D02*
X89520000Y-50920000D01*
X90880000Y-50920000D02*
X90880000Y-51920000D01*
X105320000Y-50920000D02*
X105320000Y-51920000D01*
X103960000Y-51920000D02*
X103960000Y-50920000D01*
X118790000Y-51920000D02*
X118790000Y-50920000D01*
X120150000Y-50920000D02*
X120150000Y-51920000D01*
X92380000Y-50920000D02*
X92380000Y-51920000D01*
X91020000Y-51920000D02*
X91020000Y-50920000D01*
X105480000Y-51920000D02*
X105480000Y-50920000D01*
X106840000Y-50920000D02*
X106840000Y-51920000D01*
X89390000Y-50920000D02*
X89390000Y-51920000D01*
X88030000Y-51920000D02*
X88030000Y-50920000D01*
X102444000Y-51920000D02*
X102444000Y-50920000D01*
X103804000Y-50920000D02*
X103804000Y-51920000D01*
X118630000Y-50920000D02*
X118630000Y-51920000D01*
X117270000Y-51920000D02*
X117270000Y-50920000D01*
X121680000Y-50920000D02*
X121680000Y-51920000D01*
X120320000Y-51920000D02*
X120320000Y-50920000D01*
X86000000Y-52180000D02*
X85000000Y-52180000D01*
X85000000Y-50820000D02*
X86000000Y-50820000D01*
D10*
X93985000Y-46995000D02*
X95385000Y-46995000D01*
X93985000Y-41895000D02*
X89835000Y-41895000D01*
X93985000Y-47045000D02*
X89835000Y-47045000D01*
X93985000Y-41895000D02*
X93985000Y-42040000D01*
X89835000Y-41895000D02*
X89835000Y-42040000D01*
X89835000Y-47045000D02*
X89835000Y-46900000D01*
X93985000Y-47045000D02*
X93985000Y-46995000D01*
X108365000Y-47045000D02*
X108365000Y-46995000D01*
X104215000Y-47045000D02*
X104215000Y-46900000D01*
X104215000Y-41895000D02*
X104215000Y-42040000D01*
X108365000Y-41895000D02*
X108365000Y-42040000D01*
X108365000Y-47045000D02*
X104215000Y-47045000D01*
X108365000Y-41895000D02*
X104215000Y-41895000D01*
X108365000Y-46995000D02*
X109765000Y-46995000D01*
X123075000Y-46995000D02*
X124475000Y-46995000D01*
X123075000Y-41895000D02*
X118925000Y-41895000D01*
X123075000Y-47045000D02*
X118925000Y-47045000D01*
X123075000Y-41895000D02*
X123075000Y-42040000D01*
X118925000Y-41895000D02*
X118925000Y-42040000D01*
X118925000Y-47045000D02*
X118925000Y-46900000D01*
X123075000Y-47045000D02*
X123075000Y-46995000D01*
X82406666Y-34702380D02*
X82406666Y-35416666D01*
X82359047Y-35559523D01*
X82263809Y-35654761D01*
X82120952Y-35702380D01*
X82025714Y-35702380D01*
X83311428Y-35035714D02*
X83311428Y-35702380D01*
X83073333Y-34654761D02*
X82835238Y-35369047D01*
X83454285Y-35369047D01*
X87223333Y-49777142D02*
X87175714Y-49824761D01*
X87032857Y-49872380D01*
X86937619Y-49872380D01*
X86794761Y-49824761D01*
X86699523Y-49729523D01*
X86651904Y-49634285D01*
X86604285Y-49443809D01*
X86604285Y-49300952D01*
X86651904Y-49110476D01*
X86699523Y-49015238D01*
X86794761Y-48920000D01*
X86937619Y-48872380D01*
X87032857Y-48872380D01*
X87175714Y-48920000D01*
X87223333Y-48967619D01*
X88175714Y-49872380D02*
X87604285Y-49872380D01*
X87890000Y-49872380D02*
X87890000Y-48872380D01*
X87794761Y-49015238D01*
X87699523Y-49110476D01*
X87604285Y-49158095D01*
X101323333Y-50537142D02*
X101275714Y-50584761D01*
X101132857Y-50632380D01*
X101037619Y-50632380D01*
X100894761Y-50584761D01*
X100799523Y-50489523D01*
X100751904Y-50394285D01*
X100704285Y-50203809D01*
X100704285Y-50060952D01*
X100751904Y-49870476D01*
X100799523Y-49775238D01*
X100894761Y-49680000D01*
X101037619Y-49632380D01*
X101132857Y-49632380D01*
X101275714Y-49680000D01*
X101323333Y-49727619D01*
X101704285Y-49727619D02*
X101751904Y-49680000D01*
X101847142Y-49632380D01*
X102085238Y-49632380D01*
X102180476Y-49680000D01*
X102228095Y-49727619D01*
X102275714Y-49822857D01*
X102275714Y-49918095D01*
X102228095Y-50060952D01*
X101656666Y-50632380D01*
X102275714Y-50632380D01*
X116243333Y-50277142D02*
X116195714Y-50324761D01*
X116052857Y-50372380D01*
X115957619Y-50372380D01*
X115814761Y-50324761D01*
X115719523Y-50229523D01*
X115671904Y-50134285D01*
X115624285Y-49943809D01*
X115624285Y-49800952D01*
X115671904Y-49610476D01*
X115719523Y-49515238D01*
X115814761Y-49420000D01*
X115957619Y-49372380D01*
X116052857Y-49372380D01*
X116195714Y-49420000D01*
X116243333Y-49467619D01*
X116576666Y-49372380D02*
X117195714Y-49372380D01*
X116862380Y-49753333D01*
X117005238Y-49753333D01*
X117100476Y-49800952D01*
X117148095Y-49848571D01*
X117195714Y-49943809D01*
X117195714Y-50181904D01*
X117148095Y-50277142D01*
X117100476Y-50324761D01*
X117005238Y-50372380D01*
X116719523Y-50372380D01*
X116624285Y-50324761D01*
X116576666Y-50277142D01*
X93567142Y-53856666D02*
X93614761Y-53904285D01*
X93662380Y-54047142D01*
X93662380Y-54142380D01*
X93614761Y-54285238D01*
X93519523Y-54380476D01*
X93424285Y-54428095D01*
X93233809Y-54475714D01*
X93090952Y-54475714D01*
X92900476Y-54428095D01*
X92805238Y-54380476D01*
X92710000Y-54285238D01*
X92662380Y-54142380D01*
X92662380Y-54047142D01*
X92710000Y-53904285D01*
X92757619Y-53856666D01*
X92995714Y-52999523D02*
X93662380Y-52999523D01*
X92614761Y-53237619D02*
X93329047Y-53475714D01*
X93329047Y-52856666D01*
X108077142Y-53916666D02*
X108124761Y-53964285D01*
X108172380Y-54107142D01*
X108172380Y-54202380D01*
X108124761Y-54345238D01*
X108029523Y-54440476D01*
X107934285Y-54488095D01*
X107743809Y-54535714D01*
X107600952Y-54535714D01*
X107410476Y-54488095D01*
X107315238Y-54440476D01*
X107220000Y-54345238D01*
X107172380Y-54202380D01*
X107172380Y-54107142D01*
X107220000Y-53964285D01*
X107267619Y-53916666D01*
X107172380Y-53011904D02*
X107172380Y-53488095D01*
X107648571Y-53535714D01*
X107600952Y-53488095D01*
X107553333Y-53392857D01*
X107553333Y-53154761D01*
X107600952Y-53059523D01*
X107648571Y-53011904D01*
X107743809Y-52964285D01*
X107981904Y-52964285D01*
X108077142Y-53011904D01*
X108124761Y-53059523D01*
X108172380Y-53154761D01*
X108172380Y-53392857D01*
X108124761Y-53488095D01*
X108077142Y-53535714D01*
X122887142Y-53956666D02*
X122934761Y-54004285D01*
X122982380Y-54147142D01*
X122982380Y-54242380D01*
X122934761Y-54385238D01*
X122839523Y-54480476D01*
X122744285Y-54528095D01*
X122553809Y-54575714D01*
X122410952Y-54575714D01*
X122220476Y-54528095D01*
X122125238Y-54480476D01*
X122030000Y-54385238D01*
X121982380Y-54242380D01*
X121982380Y-54147142D01*
X122030000Y-54004285D01*
X122077619Y-53956666D01*
X121982380Y-53099523D02*
X121982380Y-53290000D01*
X122030000Y-53385238D01*
X122077619Y-53432857D01*
X122220476Y-53528095D01*
X122410952Y-53575714D01*
X122791904Y-53575714D01*
X122887142Y-53528095D01*
X122934761Y-53480476D01*
X122982380Y-53385238D01*
X122982380Y-53194761D01*
X122934761Y-53099523D01*
X122887142Y-53051904D01*
X122791904Y-53004285D01*
X122553809Y-53004285D01*
X122458571Y-53051904D01*
X122410952Y-53099523D01*
X122363333Y-53194761D01*
X122363333Y-53385238D01*
X122410952Y-53480476D01*
X122458571Y-53528095D01*
X122553809Y-53575714D01*
X97522380Y-51458095D02*
X96522380Y-51458095D01*
X96522380Y-51220000D01*
X96570000Y-51077142D01*
X96665238Y-50981904D01*
X96760476Y-50934285D01*
X96950952Y-50886666D01*
X97093809Y-50886666D01*
X97284285Y-50934285D01*
X97379523Y-50981904D01*
X97474761Y-51077142D01*
X97522380Y-51220000D01*
X97522380Y-51458095D01*
X97522380Y-49934285D02*
X97522380Y-50505714D01*
X97522380Y-50220000D02*
X96522380Y-50220000D01*
X96665238Y-50315238D01*
X96760476Y-50410476D01*
X96808095Y-50505714D01*
X112042380Y-51618095D02*
X111042380Y-51618095D01*
X111042380Y-51380000D01*
X111090000Y-51237142D01*
X111185238Y-51141904D01*
X111280476Y-51094285D01*
X111470952Y-51046666D01*
X111613809Y-51046666D01*
X111804285Y-51094285D01*
X111899523Y-51141904D01*
X111994761Y-51237142D01*
X112042380Y-51380000D01*
X112042380Y-51618095D01*
X111137619Y-50665714D02*
X111090000Y-50618095D01*
X111042380Y-50522857D01*
X111042380Y-50284761D01*
X111090000Y-50189523D01*
X111137619Y-50141904D01*
X111232857Y-50094285D01*
X111328095Y-50094285D01*
X111470952Y-50141904D01*
X112042380Y-50713333D01*
X112042380Y-50094285D01*
X126942380Y-51488095D02*
X125942380Y-51488095D01*
X125942380Y-51250000D01*
X125990000Y-51107142D01*
X126085238Y-51011904D01*
X126180476Y-50964285D01*
X126370952Y-50916666D01*
X126513809Y-50916666D01*
X126704285Y-50964285D01*
X126799523Y-51011904D01*
X126894761Y-51107142D01*
X126942380Y-51250000D01*
X126942380Y-51488095D01*
X125942380Y-50583333D02*
X125942380Y-49964285D01*
X126323333Y-50297619D01*
X126323333Y-50154761D01*
X126370952Y-50059523D01*
X126418571Y-50011904D01*
X126513809Y-49964285D01*
X126751904Y-49964285D01*
X126847142Y-50011904D01*
X126894761Y-50059523D01*
X126942380Y-50154761D01*
X126942380Y-50440476D01*
X126894761Y-50535714D01*
X126847142Y-50583333D01*
X84961904Y-54852380D02*
X84961904Y-53852380D01*
X85200000Y-53852380D01*
X85342857Y-53900000D01*
X85438095Y-53995238D01*
X85485714Y-54090476D01*
X85533333Y-54280952D01*
X85533333Y-54423809D01*
X85485714Y-54614285D01*
X85438095Y-54709523D01*
X85342857Y-54804761D01*
X85200000Y-54852380D01*
X84961904Y-54852380D01*
X86390476Y-54185714D02*
X86390476Y-54852380D01*
X86152380Y-53804761D02*
X85914285Y-54519047D01*
X86533333Y-54519047D01*
X92976666Y-25132380D02*
X92976666Y-25846666D01*
X92929047Y-25989523D01*
X92833809Y-26084761D01*
X92690952Y-26132380D01*
X92595714Y-26132380D01*
X93976666Y-26132380D02*
X93405238Y-26132380D01*
X93690952Y-26132380D02*
X93690952Y-25132380D01*
X93595714Y-25275238D01*
X93500476Y-25370476D01*
X93405238Y-25418095D01*
X105776666Y-25132380D02*
X105776666Y-25846666D01*
X105729047Y-25989523D01*
X105633809Y-26084761D01*
X105490952Y-26132380D01*
X105395714Y-26132380D01*
X106205238Y-25227619D02*
X106252857Y-25180000D01*
X106348095Y-25132380D01*
X106586190Y-25132380D01*
X106681428Y-25180000D01*
X106729047Y-25227619D01*
X106776666Y-25322857D01*
X106776666Y-25418095D01*
X106729047Y-25560952D01*
X106157619Y-26132380D01*
X106776666Y-26132380D01*
X94422380Y-58533333D02*
X95136666Y-58533333D01*
X95279523Y-58580952D01*
X95374761Y-58676190D01*
X95422380Y-58819047D01*
X95422380Y-58914285D01*
X94422380Y-58152380D02*
X94422380Y-57533333D01*
X94803333Y-57866666D01*
X94803333Y-57723809D01*
X94850952Y-57628571D01*
X94898571Y-57580952D01*
X94993809Y-57533333D01*
X95231904Y-57533333D01*
X95327142Y-57580952D01*
X95374761Y-57628571D01*
X95422380Y-57723809D01*
X95422380Y-58009523D01*
X95374761Y-58104761D01*
X95327142Y-58152380D01*
X82286666Y-39272380D02*
X82286666Y-39986666D01*
X82239047Y-40129523D01*
X82143809Y-40224761D01*
X82000952Y-40272380D01*
X81905714Y-40272380D01*
X83239047Y-39272380D02*
X82762857Y-39272380D01*
X82715238Y-39748571D01*
X82762857Y-39700952D01*
X82858095Y-39653333D01*
X83096190Y-39653333D01*
X83191428Y-39700952D01*
X83239047Y-39748571D01*
X83286666Y-39843809D01*
X83286666Y-40081904D01*
X83239047Y-40177142D01*
X83191428Y-40224761D01*
X83096190Y-40272380D01*
X82858095Y-40272380D01*
X82762857Y-40224761D01*
X82715238Y-40177142D01*
X82336666Y-43592380D02*
X82336666Y-44306666D01*
X82289047Y-44449523D01*
X82193809Y-44544761D01*
X82050952Y-44592380D01*
X81955714Y-44592380D01*
X83241428Y-43592380D02*
X83050952Y-43592380D01*
X82955714Y-43640000D01*
X82908095Y-43687619D01*
X82812857Y-43830476D01*
X82765238Y-44020952D01*
X82765238Y-44401904D01*
X82812857Y-44497142D01*
X82860476Y-44544761D01*
X82955714Y-44592380D01*
X83146190Y-44592380D01*
X83241428Y-44544761D01*
X83289047Y-44497142D01*
X83336666Y-44401904D01*
X83336666Y-44163809D01*
X83289047Y-44068571D01*
X83241428Y-44020952D01*
X83146190Y-43973333D01*
X82955714Y-43973333D01*
X82860476Y-44020952D01*
X82812857Y-44068571D01*
X82765238Y-44163809D01*
X113622380Y-58533333D02*
X114336666Y-58533333D01*
X114479523Y-58580952D01*
X114574761Y-58676190D01*
X114622380Y-58819047D01*
X114622380Y-58914285D01*
X113622380Y-58152380D02*
X113622380Y-57485714D01*
X114622380Y-57914285D01*
X81606666Y-57332380D02*
X81606666Y-58046666D01*
X81559047Y-58189523D01*
X81463809Y-58284761D01*
X81320952Y-58332380D01*
X81225714Y-58332380D01*
X82225714Y-57760952D02*
X82130476Y-57713333D01*
X82082857Y-57665714D01*
X82035238Y-57570476D01*
X82035238Y-57522857D01*
X82082857Y-57427619D01*
X82130476Y-57380000D01*
X82225714Y-57332380D01*
X82416190Y-57332380D01*
X82511428Y-57380000D01*
X82559047Y-57427619D01*
X82606666Y-57522857D01*
X82606666Y-57570476D01*
X82559047Y-57665714D01*
X82511428Y-57713333D01*
X82416190Y-57760952D01*
X82225714Y-57760952D01*
X82130476Y-57808571D01*
X82082857Y-57856190D01*
X82035238Y-57951428D01*
X82035238Y-58141904D01*
X82082857Y-58237142D01*
X82130476Y-58284761D01*
X82225714Y-58332380D01*
X82416190Y-58332380D01*
X82511428Y-58284761D01*
X82559047Y-58237142D01*
X82606666Y-58141904D01*
X82606666Y-57951428D01*
X82559047Y-57856190D01*
X82511428Y-57808571D01*
X82416190Y-57760952D01*
X98734761Y-35187619D02*
X98639523Y-35140000D01*
X98544285Y-35044761D01*
X98401428Y-34901904D01*
X98306190Y-34854285D01*
X98210952Y-34854285D01*
X98258571Y-35092380D02*
X98163333Y-35044761D01*
X98068095Y-34949523D01*
X98020476Y-34759047D01*
X98020476Y-34425714D01*
X98068095Y-34235238D01*
X98163333Y-34140000D01*
X98258571Y-34092380D01*
X98449047Y-34092380D01*
X98544285Y-34140000D01*
X98639523Y-34235238D01*
X98687142Y-34425714D01*
X98687142Y-34759047D01*
X98639523Y-34949523D01*
X98544285Y-35044761D01*
X98449047Y-35092380D01*
X98258571Y-35092380D01*
X99639523Y-35092380D02*
X99068095Y-35092380D01*
X99353809Y-35092380D02*
X99353809Y-34092380D01*
X99258571Y-34235238D01*
X99163333Y-34330476D01*
X99068095Y-34378095D01*
X86414761Y-31957619D02*
X86319523Y-31910000D01*
X86224285Y-31814761D01*
X86081428Y-31671904D01*
X85986190Y-31624285D01*
X85890952Y-31624285D01*
X85938571Y-31862380D02*
X85843333Y-31814761D01*
X85748095Y-31719523D01*
X85700476Y-31529047D01*
X85700476Y-31195714D01*
X85748095Y-31005238D01*
X85843333Y-30910000D01*
X85938571Y-30862380D01*
X86129047Y-30862380D01*
X86224285Y-30910000D01*
X86319523Y-31005238D01*
X86367142Y-31195714D01*
X86367142Y-31529047D01*
X86319523Y-31719523D01*
X86224285Y-31814761D01*
X86129047Y-31862380D01*
X85938571Y-31862380D01*
X86748095Y-30957619D02*
X86795714Y-30910000D01*
X86890952Y-30862380D01*
X87129047Y-30862380D01*
X87224285Y-30910000D01*
X87271904Y-30957619D01*
X87319523Y-31052857D01*
X87319523Y-31148095D01*
X87271904Y-31290952D01*
X86700476Y-31862380D01*
X87319523Y-31862380D01*
X113224761Y-35267619D02*
X113129523Y-35220000D01*
X113034285Y-35124761D01*
X112891428Y-34981904D01*
X112796190Y-34934285D01*
X112700952Y-34934285D01*
X112748571Y-35172380D02*
X112653333Y-35124761D01*
X112558095Y-35029523D01*
X112510476Y-34839047D01*
X112510476Y-34505714D01*
X112558095Y-34315238D01*
X112653333Y-34220000D01*
X112748571Y-34172380D01*
X112939047Y-34172380D01*
X113034285Y-34220000D01*
X113129523Y-34315238D01*
X113177142Y-34505714D01*
X113177142Y-34839047D01*
X113129523Y-35029523D01*
X113034285Y-35124761D01*
X112939047Y-35172380D01*
X112748571Y-35172380D01*
X113510476Y-34172380D02*
X114129523Y-34172380D01*
X113796190Y-34553333D01*
X113939047Y-34553333D01*
X114034285Y-34600952D01*
X114081904Y-34648571D01*
X114129523Y-34743809D01*
X114129523Y-34981904D01*
X114081904Y-35077142D01*
X114034285Y-35124761D01*
X113939047Y-35172380D01*
X113653333Y-35172380D01*
X113558095Y-35124761D01*
X113510476Y-35077142D01*
X100294761Y-32207619D02*
X100199523Y-32160000D01*
X100104285Y-32064761D01*
X99961428Y-31921904D01*
X99866190Y-31874285D01*
X99770952Y-31874285D01*
X99818571Y-32112380D02*
X99723333Y-32064761D01*
X99628095Y-31969523D01*
X99580476Y-31779047D01*
X99580476Y-31445714D01*
X99628095Y-31255238D01*
X99723333Y-31160000D01*
X99818571Y-31112380D01*
X100009047Y-31112380D01*
X100104285Y-31160000D01*
X100199523Y-31255238D01*
X100247142Y-31445714D01*
X100247142Y-31779047D01*
X100199523Y-31969523D01*
X100104285Y-32064761D01*
X100009047Y-32112380D01*
X99818571Y-32112380D01*
X101104285Y-31445714D02*
X101104285Y-32112380D01*
X100866190Y-31064761D02*
X100628095Y-31779047D01*
X101247142Y-31779047D01*
X127104761Y-35117619D02*
X127009523Y-35070000D01*
X126914285Y-34974761D01*
X126771428Y-34831904D01*
X126676190Y-34784285D01*
X126580952Y-34784285D01*
X126628571Y-35022380D02*
X126533333Y-34974761D01*
X126438095Y-34879523D01*
X126390476Y-34689047D01*
X126390476Y-34355714D01*
X126438095Y-34165238D01*
X126533333Y-34070000D01*
X126628571Y-34022380D01*
X126819047Y-34022380D01*
X126914285Y-34070000D01*
X127009523Y-34165238D01*
X127057142Y-34355714D01*
X127057142Y-34689047D01*
X127009523Y-34879523D01*
X126914285Y-34974761D01*
X126819047Y-35022380D01*
X126628571Y-35022380D01*
X127961904Y-34022380D02*
X127485714Y-34022380D01*
X127438095Y-34498571D01*
X127485714Y-34450952D01*
X127580952Y-34403333D01*
X127819047Y-34403333D01*
X127914285Y-34450952D01*
X127961904Y-34498571D01*
X128009523Y-34593809D01*
X128009523Y-34831904D01*
X127961904Y-34927142D01*
X127914285Y-34974761D01*
X127819047Y-35022380D01*
X127580952Y-35022380D01*
X127485714Y-34974761D01*
X127438095Y-34927142D01*
X114594761Y-32097619D02*
X114499523Y-32050000D01*
X114404285Y-31954761D01*
X114261428Y-31811904D01*
X114166190Y-31764285D01*
X114070952Y-31764285D01*
X114118571Y-32002380D02*
X114023333Y-31954761D01*
X113928095Y-31859523D01*
X113880476Y-31669047D01*
X113880476Y-31335714D01*
X113928095Y-31145238D01*
X114023333Y-31050000D01*
X114118571Y-31002380D01*
X114309047Y-31002380D01*
X114404285Y-31050000D01*
X114499523Y-31145238D01*
X114547142Y-31335714D01*
X114547142Y-31669047D01*
X114499523Y-31859523D01*
X114404285Y-31954761D01*
X114309047Y-32002380D01*
X114118571Y-32002380D01*
X115404285Y-31002380D02*
X115213809Y-31002380D01*
X115118571Y-31050000D01*
X115070952Y-31097619D01*
X114975714Y-31240476D01*
X114928095Y-31430952D01*
X114928095Y-31811904D01*
X114975714Y-31907142D01*
X115023333Y-31954761D01*
X115118571Y-32002380D01*
X115309047Y-32002380D01*
X115404285Y-31954761D01*
X115451904Y-31907142D01*
X115499523Y-31811904D01*
X115499523Y-31573809D01*
X115451904Y-31478571D01*
X115404285Y-31430952D01*
X115309047Y-31383333D01*
X115118571Y-31383333D01*
X115023333Y-31430952D01*
X114975714Y-31478571D01*
X114928095Y-31573809D01*
X85662380Y-47856666D02*
X85186190Y-48190000D01*
X85662380Y-48428095D02*
X84662380Y-48428095D01*
X84662380Y-48047142D01*
X84710000Y-47951904D01*
X84757619Y-47904285D01*
X84852857Y-47856666D01*
X84995714Y-47856666D01*
X85090952Y-47904285D01*
X85138571Y-47951904D01*
X85186190Y-48047142D01*
X85186190Y-48428095D01*
X85662380Y-46904285D02*
X85662380Y-47475714D01*
X85662380Y-47190000D02*
X84662380Y-47190000D01*
X84805238Y-47285238D01*
X84900476Y-47380476D01*
X84948095Y-47475714D01*
X87512380Y-47946666D02*
X87036190Y-48280000D01*
X87512380Y-48518095D02*
X86512380Y-48518095D01*
X86512380Y-48137142D01*
X86560000Y-48041904D01*
X86607619Y-47994285D01*
X86702857Y-47946666D01*
X86845714Y-47946666D01*
X86940952Y-47994285D01*
X86988571Y-48041904D01*
X87036190Y-48137142D01*
X87036190Y-48518095D01*
X86607619Y-47565714D02*
X86560000Y-47518095D01*
X86512380Y-47422857D01*
X86512380Y-47184761D01*
X86560000Y-47089523D01*
X86607619Y-47041904D01*
X86702857Y-46994285D01*
X86798095Y-46994285D01*
X86940952Y-47041904D01*
X87512380Y-47613333D01*
X87512380Y-46994285D01*
X100052380Y-47886666D02*
X99576190Y-48220000D01*
X100052380Y-48458095D02*
X99052380Y-48458095D01*
X99052380Y-48077142D01*
X99100000Y-47981904D01*
X99147619Y-47934285D01*
X99242857Y-47886666D01*
X99385714Y-47886666D01*
X99480952Y-47934285D01*
X99528571Y-47981904D01*
X99576190Y-48077142D01*
X99576190Y-48458095D01*
X99052380Y-47553333D02*
X99052380Y-46934285D01*
X99433333Y-47267619D01*
X99433333Y-47124761D01*
X99480952Y-47029523D01*
X99528571Y-46981904D01*
X99623809Y-46934285D01*
X99861904Y-46934285D01*
X99957142Y-46981904D01*
X100004761Y-47029523D01*
X100052380Y-47124761D01*
X100052380Y-47410476D01*
X100004761Y-47505714D01*
X99957142Y-47553333D01*
X101492380Y-47886666D02*
X101016190Y-48220000D01*
X101492380Y-48458095D02*
X100492380Y-48458095D01*
X100492380Y-48077142D01*
X100540000Y-47981904D01*
X100587619Y-47934285D01*
X100682857Y-47886666D01*
X100825714Y-47886666D01*
X100920952Y-47934285D01*
X100968571Y-47981904D01*
X101016190Y-48077142D01*
X101016190Y-48458095D01*
X100825714Y-47029523D02*
X101492380Y-47029523D01*
X100444761Y-47267619D02*
X101159047Y-47505714D01*
X101159047Y-46886666D01*
X114772380Y-47906666D02*
X114296190Y-48240000D01*
X114772380Y-48478095D02*
X113772380Y-48478095D01*
X113772380Y-48097142D01*
X113820000Y-48001904D01*
X113867619Y-47954285D01*
X113962857Y-47906666D01*
X114105714Y-47906666D01*
X114200952Y-47954285D01*
X114248571Y-48001904D01*
X114296190Y-48097142D01*
X114296190Y-48478095D01*
X113772380Y-47001904D02*
X113772380Y-47478095D01*
X114248571Y-47525714D01*
X114200952Y-47478095D01*
X114153333Y-47382857D01*
X114153333Y-47144761D01*
X114200952Y-47049523D01*
X114248571Y-47001904D01*
X114343809Y-46954285D01*
X114581904Y-46954285D01*
X114677142Y-47001904D01*
X114724761Y-47049523D01*
X114772380Y-47144761D01*
X114772380Y-47382857D01*
X114724761Y-47478095D01*
X114677142Y-47525714D01*
X116302380Y-47916666D02*
X115826190Y-48250000D01*
X116302380Y-48488095D02*
X115302380Y-48488095D01*
X115302380Y-48107142D01*
X115350000Y-48011904D01*
X115397619Y-47964285D01*
X115492857Y-47916666D01*
X115635714Y-47916666D01*
X115730952Y-47964285D01*
X115778571Y-48011904D01*
X115826190Y-48107142D01*
X115826190Y-48488095D01*
X115302380Y-47059523D02*
X115302380Y-47250000D01*
X115350000Y-47345238D01*
X115397619Y-47392857D01*
X115540476Y-47488095D01*
X115730952Y-47535714D01*
X116111904Y-47535714D01*
X116207142Y-47488095D01*
X116254761Y-47440476D01*
X116302380Y-47345238D01*
X116302380Y-47154761D01*
X116254761Y-47059523D01*
X116207142Y-47011904D01*
X116111904Y-46964285D01*
X115873809Y-46964285D01*
X115778571Y-47011904D01*
X115730952Y-47059523D01*
X115683333Y-47154761D01*
X115683333Y-47345238D01*
X115730952Y-47440476D01*
X115778571Y-47488095D01*
X115873809Y-47535714D01*
X97772380Y-44046666D02*
X97296190Y-44380000D01*
X97772380Y-44618095D02*
X96772380Y-44618095D01*
X96772380Y-44237142D01*
X96820000Y-44141904D01*
X96867619Y-44094285D01*
X96962857Y-44046666D01*
X97105714Y-44046666D01*
X97200952Y-44094285D01*
X97248571Y-44141904D01*
X97296190Y-44237142D01*
X97296190Y-44618095D01*
X96772380Y-43713333D02*
X96772380Y-43046666D01*
X97772380Y-43475238D01*
X85632380Y-41906666D02*
X85156190Y-42240000D01*
X85632380Y-42478095D02*
X84632380Y-42478095D01*
X84632380Y-42097142D01*
X84680000Y-42001904D01*
X84727619Y-41954285D01*
X84822857Y-41906666D01*
X84965714Y-41906666D01*
X85060952Y-41954285D01*
X85108571Y-42001904D01*
X85156190Y-42097142D01*
X85156190Y-42478095D01*
X85060952Y-41335238D02*
X85013333Y-41430476D01*
X84965714Y-41478095D01*
X84870476Y-41525714D01*
X84822857Y-41525714D01*
X84727619Y-41478095D01*
X84680000Y-41430476D01*
X84632380Y-41335238D01*
X84632380Y-41144761D01*
X84680000Y-41049523D01*
X84727619Y-41001904D01*
X84822857Y-40954285D01*
X84870476Y-40954285D01*
X84965714Y-41001904D01*
X85013333Y-41049523D01*
X85060952Y-41144761D01*
X85060952Y-41335238D01*
X85108571Y-41430476D01*
X85156190Y-41478095D01*
X85251428Y-41525714D01*
X85441904Y-41525714D01*
X85537142Y-41478095D01*
X85584761Y-41430476D01*
X85632380Y-41335238D01*
X85632380Y-41144761D01*
X85584761Y-41049523D01*
X85537142Y-41001904D01*
X85441904Y-40954285D01*
X85251428Y-40954285D01*
X85156190Y-41001904D01*
X85108571Y-41049523D01*
X85060952Y-41144761D01*
X112032380Y-44096666D02*
X111556190Y-44430000D01*
X112032380Y-44668095D02*
X111032380Y-44668095D01*
X111032380Y-44287142D01*
X111080000Y-44191904D01*
X111127619Y-44144285D01*
X111222857Y-44096666D01*
X111365714Y-44096666D01*
X111460952Y-44144285D01*
X111508571Y-44191904D01*
X111556190Y-44287142D01*
X111556190Y-44668095D01*
X112032380Y-43620476D02*
X112032380Y-43430000D01*
X111984761Y-43334761D01*
X111937142Y-43287142D01*
X111794285Y-43191904D01*
X111603809Y-43144285D01*
X111222857Y-43144285D01*
X111127619Y-43191904D01*
X111080000Y-43239523D01*
X111032380Y-43334761D01*
X111032380Y-43525238D01*
X111080000Y-43620476D01*
X111127619Y-43668095D01*
X111222857Y-43715714D01*
X111460952Y-43715714D01*
X111556190Y-43668095D01*
X111603809Y-43620476D01*
X111651428Y-43525238D01*
X111651428Y-43334761D01*
X111603809Y-43239523D01*
X111556190Y-43191904D01*
X111460952Y-43144285D01*
X100032380Y-42402857D02*
X99556190Y-42736190D01*
X100032380Y-42974285D02*
X99032380Y-42974285D01*
X99032380Y-42593333D01*
X99080000Y-42498095D01*
X99127619Y-42450476D01*
X99222857Y-42402857D01*
X99365714Y-42402857D01*
X99460952Y-42450476D01*
X99508571Y-42498095D01*
X99556190Y-42593333D01*
X99556190Y-42974285D01*
X100032380Y-41450476D02*
X100032380Y-42021904D01*
X100032380Y-41736190D02*
X99032380Y-41736190D01*
X99175238Y-41831428D01*
X99270476Y-41926666D01*
X99318095Y-42021904D01*
X99032380Y-40831428D02*
X99032380Y-40736190D01*
X99080000Y-40640952D01*
X99127619Y-40593333D01*
X99222857Y-40545714D01*
X99413333Y-40498095D01*
X99651428Y-40498095D01*
X99841904Y-40545714D01*
X99937142Y-40593333D01*
X99984761Y-40640952D01*
X100032380Y-40736190D01*
X100032380Y-40831428D01*
X99984761Y-40926666D01*
X99937142Y-40974285D01*
X99841904Y-41021904D01*
X99651428Y-41069523D01*
X99413333Y-41069523D01*
X99222857Y-41021904D01*
X99127619Y-40974285D01*
X99080000Y-40926666D01*
X99032380Y-40831428D01*
X126582380Y-44842857D02*
X126106190Y-45176190D01*
X126582380Y-45414285D02*
X125582380Y-45414285D01*
X125582380Y-45033333D01*
X125630000Y-44938095D01*
X125677619Y-44890476D01*
X125772857Y-44842857D01*
X125915714Y-44842857D01*
X126010952Y-44890476D01*
X126058571Y-44938095D01*
X126106190Y-45033333D01*
X126106190Y-45414285D01*
X126582380Y-43890476D02*
X126582380Y-44461904D01*
X126582380Y-44176190D02*
X125582380Y-44176190D01*
X125725238Y-44271428D01*
X125820476Y-44366666D01*
X125868095Y-44461904D01*
X126582380Y-42938095D02*
X126582380Y-43509523D01*
X126582380Y-43223809D02*
X125582380Y-43223809D01*
X125725238Y-43319047D01*
X125820476Y-43414285D01*
X125868095Y-43509523D01*
X114522380Y-42382857D02*
X114046190Y-42716190D01*
X114522380Y-42954285D02*
X113522380Y-42954285D01*
X113522380Y-42573333D01*
X113570000Y-42478095D01*
X113617619Y-42430476D01*
X113712857Y-42382857D01*
X113855714Y-42382857D01*
X113950952Y-42430476D01*
X113998571Y-42478095D01*
X114046190Y-42573333D01*
X114046190Y-42954285D01*
X114522380Y-41430476D02*
X114522380Y-42001904D01*
X114522380Y-41716190D02*
X113522380Y-41716190D01*
X113665238Y-41811428D01*
X113760476Y-41906666D01*
X113808095Y-42001904D01*
X113617619Y-41049523D02*
X113570000Y-41001904D01*
X113522380Y-40906666D01*
X113522380Y-40668571D01*
X113570000Y-40573333D01*
X113617619Y-40525714D01*
X113712857Y-40478095D01*
X113808095Y-40478095D01*
X113950952Y-40525714D01*
X114522380Y-41097142D01*
X114522380Y-40478095D01*
X90742380Y-54692857D02*
X90266190Y-55026190D01*
X90742380Y-55264285D02*
X89742380Y-55264285D01*
X89742380Y-54883333D01*
X89790000Y-54788095D01*
X89837619Y-54740476D01*
X89932857Y-54692857D01*
X90075714Y-54692857D01*
X90170952Y-54740476D01*
X90218571Y-54788095D01*
X90266190Y-54883333D01*
X90266190Y-55264285D01*
X90742380Y-53740476D02*
X90742380Y-54311904D01*
X90742380Y-54026190D02*
X89742380Y-54026190D01*
X89885238Y-54121428D01*
X89980476Y-54216666D01*
X90028095Y-54311904D01*
X89742380Y-53407142D02*
X89742380Y-52788095D01*
X90123333Y-53121428D01*
X90123333Y-52978571D01*
X90170952Y-52883333D01*
X90218571Y-52835714D01*
X90313809Y-52788095D01*
X90551904Y-52788095D01*
X90647142Y-52835714D01*
X90694761Y-52883333D01*
X90742380Y-52978571D01*
X90742380Y-53264285D01*
X90694761Y-53359523D01*
X90647142Y-53407142D01*
X105192380Y-54672857D02*
X104716190Y-55006190D01*
X105192380Y-55244285D02*
X104192380Y-55244285D01*
X104192380Y-54863333D01*
X104240000Y-54768095D01*
X104287619Y-54720476D01*
X104382857Y-54672857D01*
X104525714Y-54672857D01*
X104620952Y-54720476D01*
X104668571Y-54768095D01*
X104716190Y-54863333D01*
X104716190Y-55244285D01*
X105192380Y-53720476D02*
X105192380Y-54291904D01*
X105192380Y-54006190D02*
X104192380Y-54006190D01*
X104335238Y-54101428D01*
X104430476Y-54196666D01*
X104478095Y-54291904D01*
X104525714Y-52863333D02*
X105192380Y-52863333D01*
X104144761Y-53101428D02*
X104859047Y-53339523D01*
X104859047Y-52720476D01*
X119972380Y-54722857D02*
X119496190Y-55056190D01*
X119972380Y-55294285D02*
X118972380Y-55294285D01*
X118972380Y-54913333D01*
X119020000Y-54818095D01*
X119067619Y-54770476D01*
X119162857Y-54722857D01*
X119305714Y-54722857D01*
X119400952Y-54770476D01*
X119448571Y-54818095D01*
X119496190Y-54913333D01*
X119496190Y-55294285D01*
X119972380Y-53770476D02*
X119972380Y-54341904D01*
X119972380Y-54056190D02*
X118972380Y-54056190D01*
X119115238Y-54151428D01*
X119210476Y-54246666D01*
X119258095Y-54341904D01*
X118972380Y-52865714D02*
X118972380Y-53341904D01*
X119448571Y-53389523D01*
X119400952Y-53341904D01*
X119353333Y-53246666D01*
X119353333Y-53008571D01*
X119400952Y-52913333D01*
X119448571Y-52865714D01*
X119543809Y-52818095D01*
X119781904Y-52818095D01*
X119877142Y-52865714D01*
X119924761Y-52913333D01*
X119972380Y-53008571D01*
X119972380Y-53246666D01*
X119924761Y-53341904D01*
X119877142Y-53389523D01*
X92202380Y-54682857D02*
X91726190Y-55016190D01*
X92202380Y-55254285D02*
X91202380Y-55254285D01*
X91202380Y-54873333D01*
X91250000Y-54778095D01*
X91297619Y-54730476D01*
X91392857Y-54682857D01*
X91535714Y-54682857D01*
X91630952Y-54730476D01*
X91678571Y-54778095D01*
X91726190Y-54873333D01*
X91726190Y-55254285D01*
X92202380Y-53730476D02*
X92202380Y-54301904D01*
X92202380Y-54016190D02*
X91202380Y-54016190D01*
X91345238Y-54111428D01*
X91440476Y-54206666D01*
X91488095Y-54301904D01*
X91202380Y-52873333D02*
X91202380Y-53063809D01*
X91250000Y-53159047D01*
X91297619Y-53206666D01*
X91440476Y-53301904D01*
X91630952Y-53349523D01*
X92011904Y-53349523D01*
X92107142Y-53301904D01*
X92154761Y-53254285D01*
X92202380Y-53159047D01*
X92202380Y-52968571D01*
X92154761Y-52873333D01*
X92107142Y-52825714D01*
X92011904Y-52778095D01*
X91773809Y-52778095D01*
X91678571Y-52825714D01*
X91630952Y-52873333D01*
X91583333Y-52968571D01*
X91583333Y-53159047D01*
X91630952Y-53254285D01*
X91678571Y-53301904D01*
X91773809Y-53349523D01*
X106812380Y-54752857D02*
X106336190Y-55086190D01*
X106812380Y-55324285D02*
X105812380Y-55324285D01*
X105812380Y-54943333D01*
X105860000Y-54848095D01*
X105907619Y-54800476D01*
X106002857Y-54752857D01*
X106145714Y-54752857D01*
X106240952Y-54800476D01*
X106288571Y-54848095D01*
X106336190Y-54943333D01*
X106336190Y-55324285D01*
X106812380Y-53800476D02*
X106812380Y-54371904D01*
X106812380Y-54086190D02*
X105812380Y-54086190D01*
X105955238Y-54181428D01*
X106050476Y-54276666D01*
X106098095Y-54371904D01*
X105812380Y-53467142D02*
X105812380Y-52800476D01*
X106812380Y-53229047D01*
X89192380Y-54672857D02*
X88716190Y-55006190D01*
X89192380Y-55244285D02*
X88192380Y-55244285D01*
X88192380Y-54863333D01*
X88240000Y-54768095D01*
X88287619Y-54720476D01*
X88382857Y-54672857D01*
X88525714Y-54672857D01*
X88620952Y-54720476D01*
X88668571Y-54768095D01*
X88716190Y-54863333D01*
X88716190Y-55244285D01*
X89192380Y-53720476D02*
X89192380Y-54291904D01*
X89192380Y-54006190D02*
X88192380Y-54006190D01*
X88335238Y-54101428D01*
X88430476Y-54196666D01*
X88478095Y-54291904D01*
X88620952Y-53149047D02*
X88573333Y-53244285D01*
X88525714Y-53291904D01*
X88430476Y-53339523D01*
X88382857Y-53339523D01*
X88287619Y-53291904D01*
X88240000Y-53244285D01*
X88192380Y-53149047D01*
X88192380Y-52958571D01*
X88240000Y-52863333D01*
X88287619Y-52815714D01*
X88382857Y-52768095D01*
X88430476Y-52768095D01*
X88525714Y-52815714D01*
X88573333Y-52863333D01*
X88620952Y-52958571D01*
X88620952Y-53149047D01*
X88668571Y-53244285D01*
X88716190Y-53291904D01*
X88811428Y-53339523D01*
X89001904Y-53339523D01*
X89097142Y-53291904D01*
X89144761Y-53244285D01*
X89192380Y-53149047D01*
X89192380Y-52958571D01*
X89144761Y-52863333D01*
X89097142Y-52815714D01*
X89001904Y-52768095D01*
X88811428Y-52768095D01*
X88716190Y-52815714D01*
X88668571Y-52863333D01*
X88620952Y-52958571D01*
X103656380Y-54702857D02*
X103180190Y-55036190D01*
X103656380Y-55274285D02*
X102656380Y-55274285D01*
X102656380Y-54893333D01*
X102704000Y-54798095D01*
X102751619Y-54750476D01*
X102846857Y-54702857D01*
X102989714Y-54702857D01*
X103084952Y-54750476D01*
X103132571Y-54798095D01*
X103180190Y-54893333D01*
X103180190Y-55274285D01*
X103656380Y-53750476D02*
X103656380Y-54321904D01*
X103656380Y-54036190D02*
X102656380Y-54036190D01*
X102799238Y-54131428D01*
X102894476Y-54226666D01*
X102942095Y-54321904D01*
X103656380Y-53274285D02*
X103656380Y-53083809D01*
X103608761Y-52988571D01*
X103561142Y-52940952D01*
X103418285Y-52845714D01*
X103227809Y-52798095D01*
X102846857Y-52798095D01*
X102751619Y-52845714D01*
X102704000Y-52893333D01*
X102656380Y-52988571D01*
X102656380Y-53179047D01*
X102704000Y-53274285D01*
X102751619Y-53321904D01*
X102846857Y-53369523D01*
X103084952Y-53369523D01*
X103180190Y-53321904D01*
X103227809Y-53274285D01*
X103275428Y-53179047D01*
X103275428Y-52988571D01*
X103227809Y-52893333D01*
X103180190Y-52845714D01*
X103084952Y-52798095D01*
X118472380Y-54682857D02*
X117996190Y-55016190D01*
X118472380Y-55254285D02*
X117472380Y-55254285D01*
X117472380Y-54873333D01*
X117520000Y-54778095D01*
X117567619Y-54730476D01*
X117662857Y-54682857D01*
X117805714Y-54682857D01*
X117900952Y-54730476D01*
X117948571Y-54778095D01*
X117996190Y-54873333D01*
X117996190Y-55254285D01*
X117567619Y-54301904D02*
X117520000Y-54254285D01*
X117472380Y-54159047D01*
X117472380Y-53920952D01*
X117520000Y-53825714D01*
X117567619Y-53778095D01*
X117662857Y-53730476D01*
X117758095Y-53730476D01*
X117900952Y-53778095D01*
X118472380Y-54349523D01*
X118472380Y-53730476D01*
X117472380Y-53111428D02*
X117472380Y-53016190D01*
X117520000Y-52920952D01*
X117567619Y-52873333D01*
X117662857Y-52825714D01*
X117853333Y-52778095D01*
X118091428Y-52778095D01*
X118281904Y-52825714D01*
X118377142Y-52873333D01*
X118424761Y-52920952D01*
X118472380Y-53016190D01*
X118472380Y-53111428D01*
X118424761Y-53206666D01*
X118377142Y-53254285D01*
X118281904Y-53301904D01*
X118091428Y-53349523D01*
X117853333Y-53349523D01*
X117662857Y-53301904D01*
X117567619Y-53254285D01*
X117520000Y-53206666D01*
X117472380Y-53111428D01*
X121482380Y-54682857D02*
X121006190Y-55016190D01*
X121482380Y-55254285D02*
X120482380Y-55254285D01*
X120482380Y-54873333D01*
X120530000Y-54778095D01*
X120577619Y-54730476D01*
X120672857Y-54682857D01*
X120815714Y-54682857D01*
X120910952Y-54730476D01*
X120958571Y-54778095D01*
X121006190Y-54873333D01*
X121006190Y-55254285D01*
X120577619Y-54301904D02*
X120530000Y-54254285D01*
X120482380Y-54159047D01*
X120482380Y-53920952D01*
X120530000Y-53825714D01*
X120577619Y-53778095D01*
X120672857Y-53730476D01*
X120768095Y-53730476D01*
X120910952Y-53778095D01*
X121482380Y-54349523D01*
X121482380Y-53730476D01*
X121482380Y-52778095D02*
X121482380Y-53349523D01*
X121482380Y-53063809D02*
X120482380Y-53063809D01*
X120625238Y-53159047D01*
X120720476Y-53254285D01*
X120768095Y-53349523D01*
X84857142Y-50652380D02*
X84523809Y-50176190D01*
X84285714Y-50652380D02*
X84285714Y-49652380D01*
X84666666Y-49652380D01*
X84761904Y-49700000D01*
X84809523Y-49747619D01*
X84857142Y-49842857D01*
X84857142Y-49985714D01*
X84809523Y-50080952D01*
X84761904Y-50128571D01*
X84666666Y-50176190D01*
X84285714Y-50176190D01*
X85238095Y-49747619D02*
X85285714Y-49700000D01*
X85380952Y-49652380D01*
X85619047Y-49652380D01*
X85714285Y-49700000D01*
X85761904Y-49747619D01*
X85809523Y-49842857D01*
X85809523Y-49938095D01*
X85761904Y-50080952D01*
X85190476Y-50652380D01*
X85809523Y-50652380D01*
X86190476Y-49747619D02*
X86238095Y-49700000D01*
X86333333Y-49652380D01*
X86571428Y-49652380D01*
X86666666Y-49700000D01*
X86714285Y-49747619D01*
X86761904Y-49842857D01*
X86761904Y-49938095D01*
X86714285Y-50080952D01*
X86142857Y-50652380D01*
X86761904Y-50652380D01*
X91048095Y-42532380D02*
X91048095Y-43341904D01*
X91095714Y-43437142D01*
X91143333Y-43484761D01*
X91238571Y-43532380D01*
X91429047Y-43532380D01*
X91524285Y-43484761D01*
X91571904Y-43437142D01*
X91619523Y-43341904D01*
X91619523Y-42532380D01*
X92619523Y-43532380D02*
X92048095Y-43532380D01*
X92333809Y-43532380D02*
X92333809Y-42532380D01*
X92238571Y-42675238D01*
X92143333Y-42770476D01*
X92048095Y-42818095D01*
X105698095Y-42492380D02*
X105698095Y-43301904D01*
X105745714Y-43397142D01*
X105793333Y-43444761D01*
X105888571Y-43492380D01*
X106079047Y-43492380D01*
X106174285Y-43444761D01*
X106221904Y-43397142D01*
X106269523Y-43301904D01*
X106269523Y-42492380D01*
X106698095Y-42587619D02*
X106745714Y-42540000D01*
X106840952Y-42492380D01*
X107079047Y-42492380D01*
X107174285Y-42540000D01*
X107221904Y-42587619D01*
X107269523Y-42682857D01*
X107269523Y-42778095D01*
X107221904Y-42920952D01*
X106650476Y-43492380D01*
X107269523Y-43492380D01*
X120288095Y-42352380D02*
X120288095Y-43161904D01*
X120335714Y-43257142D01*
X120383333Y-43304761D01*
X120478571Y-43352380D01*
X120669047Y-43352380D01*
X120764285Y-43304761D01*
X120811904Y-43257142D01*
X120859523Y-43161904D01*
X120859523Y-42352380D01*
X121240476Y-42352380D02*
X121859523Y-42352380D01*
X121526190Y-42733333D01*
X121669047Y-42733333D01*
X121764285Y-42780952D01*
X121811904Y-42828571D01*
X121859523Y-42923809D01*
X121859523Y-43161904D01*
X121811904Y-43257142D01*
X121764285Y-43304761D01*
X121669047Y-43352380D01*
X121383333Y-43352380D01*
X121288095Y-43304761D01*
X121240476Y-43257142D01*
M02*
